<?xml version="1.0" encoding="UTF-8"?>
<svg xmlns="http://www.w3.org/2000/svg" viewBox="0 0 1024 1024">
  <defs>
    <style>
      .cls-1, .cls-2, .cls-3, .cls-4, .cls-5, .cls-6, .cls-7, .cls-8, .cls-9, .cls-10, .cls-11, .cls-12, .cls-13, .cls-14, .cls-15, .cls-16, .cls-17, .cls-18 {
        stroke: #231f20;
      }

      .cls-1, .cls-2, .cls-3, .cls-9, .cls-12, .cls-14, .cls-15, .cls-16 {
        stroke-width: 3px;
      }

      .cls-2, .cls-10 {
        fill: #f897da;
      }

      .cls-3, .cls-13, .cls-19 {
        fill: #03c6fe;
      }

      .cls-4, .cls-5, .cls-6, .cls-7, .cls-8, .cls-10, .cls-11, .cls-13 {
        stroke-miterlimit: 10;
      }

      .cls-4, .cls-20, .cls-16 {
        fill: #fff;
      }

      .cls-5, .cls-21, .cls-12 {
        fill: #9474d9;
      }

      .cls-6, .cls-9, .cls-22, .cls-17 {
        fill: #fb574d;
      }

      .cls-21, .cls-22, .cls-17, .cls-19 {
        font-family: Fredoka-Bold, Fredoka;
        font-size: 359.9461px;
        font-weight: 700;
      }

      .cls-8, .cls-14 {
        fill: #eac658;
      }

      .cls-11, .cls-15 {
        fill: #01cdaa;
      }

      .cls-20 {
        stroke-width: 0px;
      }

      .cls-18 {
        fill: none;
        stroke-width: 10px;
      }
    </style>
  </defs>
  <g id="Layer_2" data-name="Layer 2">
    <path class="cls-16" d="M906.495,511.995c0,217.88-176.62,394.5-394.5,394.5-71.38,0-138.32-18.96-196.08-52.11-.3,18.84-15.66,34.01-34.57,34.01-19.09,0-34.57-15.48-34.57-34.58,0-14.34,8.72-26.63,21.14-31.87-91.6-72.24-150.41-184.23-150.41-309.95,0-217.87,176.62-394.49,394.49-394.49s394.5,176.62,394.5,394.49Z"/>
    <circle class="cls-3" cx="612.9881" cy="839.0822" r="34.5618"/>
    <circle class="cls-2" cx="563.4516" cy="872.7192" r="30.4283"/>
    <circle class="cls-12" cx="494.2643" cy="866.6812" r="38.759"/>
    <circle class="cls-9" cx="623.0916" cy="783.4201" r="18.0828"/>
    <circle class="cls-9" cx="545.4461" cy="755.4239" r="10.9831"/>
    <circle class="cls-9" cx="117.3289" cy="775.7924" r="10.9831"/>
    <circle class="cls-3" cx="55.0025" cy="673.1956" r="10.9831"/>
    <circle class="cls-12" cx="641.9655" cy="734.0041" r="22.2815"/>
    <circle class="cls-3" cx="469.5292" cy="778.1422" r="22.2815"/>
    <circle class="cls-15" cx="411.1782" cy="740.8518" r="29.657"/>
    <circle class="cls-16" cx="365.888" cy="822.201" r="54.8333"/>
    <circle class="cls-9" cx="435.5679" cy="819.0172" r="19.2314"/>
    <circle class="cls-2" cx="437.0815" cy="860.1941" r="19.2314"/>
    <circle class="cls-14" cx="447.2477" cy="881.4913" r="19.2314"/>
    <circle class="cls-9" cx="409.5832" cy="877.4255" r="14.8007"/>
    <circle class="cls-12" cx="668.7113" cy="828.8142" r="19.8908"/>
    <circle class="cls-15" cx="655.6597" cy="861.1788" r="16.8077"/>
    <circle class="cls-15" cx="694.5299" cy="780.8582" r="16.8077"/>
    <circle class="cls-15" cx="460.6946" cy="483.4458" r="16.8077"/>
    <circle class="cls-16" cx="768.7872" cy="708.1892" r="16.8077"/>
    <circle class="cls-16" cx="609.2323" cy="877.6897" r="16.1532"/>
    <circle class="cls-12" cx="736.2304" cy="770.5088" r="16.8077"/>
    <circle class="cls-3" cx="745.0931" cy="806.9235" r="18.349"/>
    <circle class="cls-14" cx="820.4537" cy="780.8582" r="64.8159"/>
    <circle class="cls-9" cx="796.27" cy="574.5952" r="23.2048"/>
    <circle class="cls-2" cx="761.6837" cy="858.5281" r="18.9836" transform="translate(-322.9765 1233.6878) rotate(-67.5)"/>
    <circle class="cls-12" cx="389.6294" cy="655.8045" r="18.9836"/>
    <circle class="cls-9" cx="207.075" cy="834.1138" r="18.9836"/>
    <circle class="cls-12" cx="190.578" cy="793.1751" r="26.6825"/>
    <circle class="cls-2" cx="341.5256" cy="684.55" r="30.011"/>
    <circle class="cls-15" cx="200.8343" cy="648.4631" r="38.8993"/>
    <circle class="cls-1" cx="229.8543" cy="733.0069" r="35.6333"/>
    <circle class="cls-14" cx="269.6864" cy="749.3029" r="23.0895"/>
    <circle class="cls-9" cx="268.1229" cy="792.6582" r="23.0895"/>
    <circle class="cls-9" cx="330.1227" cy="727.798" r="23.0895"/>
    <circle class="cls-2" cx="289.7426" cy="644.8992" r="23.0895"/>
    <circle class="cls-16" cx="288.5771" cy="536.9919" r="20.7951"/>
    <circle class="cls-1" cx="302.0382" cy="595.9472" r="16.6203"/>
    <circle class="cls-9" cx="243.7771" cy="574.3067" r="35.4035"/>
    <circle class="cls-12" cx="252.1068" cy="597.2028" r="13.2644"/>
    <circle class="cls-3" cx="227.7461" cy="606.5182" r="13.2644"/>
    <circle class="cls-3" cx="414.0921" cy="389.5554" r="13.2644"/>
    <circle class="cls-9" cx="258.1819" cy="623.7316" r="7.1893"/>
    <circle class="cls-9" cx="247.9834" cy="519.6144" r="7.1893"/>
    <circle class="cls-9" cx="274.2064" cy="490.6351" r="7.1893"/>
    <circle class="cls-14" cx="188.5528" cy="591.0415" r="18.5223"/>
    <circle class="cls-16" cx="152.406" cy="623.2373" r="18.5223"/>
    <circle class="cls-9" cx="144.2107" cy="593.8392" r="18.5223"/>
    <circle class="cls-9" cx="150.4896" cy="419.9016" r="15.047"/>
    <circle class="cls-14" cx="168.1242" cy="397.144" r="15.047"/>
    <circle class="cls-9" cx="201.0411" cy="402.7448" r="11.1296"/>
    <circle class="cls-12" cx="185.3784" cy="456.8905" r="41.8017"/>
    <circle class="cls-3" cx="201.0411" cy="253.4075" r="51.689"/>
    <circle class="cls-15" cx="201.8751" cy="334.0906" r="41.8017"/>
    <circle class="cls-1" cx="277.5974" cy="278.9855" r="25.1182"/>
    <circle class="cls-9" cx="289.9534" cy="325.5672" r="21.5791"/>
    <circle class="cls-9" cx="374.0033" cy="226.09" r="22.6815"/>
    <circle class="cls-9" cx="385.7161" cy="172.9244" r="22.6815"/>
    <circle class="cls-16" cx="351.3219" cy="177.4667" r="16.7049"/>
    <circle class="cls-16" cx="268.8855" cy="101.9558" r="13.3692"/>
    <circle class="cls-14" cx="226.0438" cy="111.3489" r="13.3692"/>
    <circle class="cls-14" cx="507.4523" cy="400.5053" r="13.3692"/>
    <circle class="cls-15" cx="209.3218" cy="149.0519" r="13.3692"/>
    <circle class="cls-9" cx="310.3461" cy="124.8049" r="13.3692"/>
    <circle class="cls-16" cx="134.169" cy="226.09" r="21.1394"/>
    <circle class="cls-9" cx="135.3299" cy="302.2172" r="21.1394"/>
    <circle class="cls-1" cx="810.7798" cy="486.1086" r="21.1394"/>
    <circle class="cls-3" cx="865.5901" cy="497.6924" r="21.1394"/>
    <circle class="cls-15" cx="879.6487" cy="450.7761" r="16.1191"/>
    <circle class="cls-2" cx="836.5481" cy="356.1848" r="25.1566"/>
    <circle class="cls-12" cx="827.8888" cy="318.7214" r="11.8298"/>
    <circle class="cls-12" cx="508.9917" cy="144.5805" r="11.8298"/>
    <circle class="cls-9" cx="448.8647" cy="163.7494" r="11.8298"/>
    <circle class="cls-3" cx="429.4504" cy="141.7877" r="8.6241"/>
    <circle class="cls-14" cx="452.0705" cy="140.2077" r="8.6241"/>
    <circle class="cls-16" cx="422.7162" cy="164.4915" r="8.6241"/>
    <circle class="cls-15" cx="411.6748" cy="150.4118" r="8.6241"/>
    <circle class="cls-2" cx="556.7998" cy="187.684" r="8.6241"/>
    <circle class="cls-1" cx="379.5171" cy="273.3429" r="8.6241"/>
    <circle class="cls-9" cx="681.0915" cy="857.9468" r="8.6241"/>
    <circle class="cls-3" cx="815.9995" cy="637.7876" r="8.6241"/>
    <circle class="cls-9" cx="875.5319" cy="579.719" r="8.6241"/>
    <circle class="cls-1" cx="847.5158" cy="665.0691" r="8.6241"/>
    <circle class="cls-14" cx="821.6213" cy="390.8491" r="16.1191"/>
    <circle class="cls-9" cx="271.9232" cy="238.5803" r="17.299"/>
    <circle class="cls-14" cx="338.2514" cy="296.434" r="28.7399"/>
    <circle class="cls-2" cx="316.7424" cy="210.805" r="34.4877"/>
    <circle class="cls-3" cx="283.6631" cy="437.3083" r="26.2637"/>
    <circle class="cls-16" cx="280.4436" cy="392.0525" r="15.0202"/>
    <circle class="cls-9" cx="239.6352" cy="375.964" r="13.5914"/>
    <circle class="cls-1" cx="247.9834" cy="472.9297" r="18.9517"/>
    <circle class="cls-2" cx="224.1789" cy="503.6976" r="21.9164"/>
    <circle class="cls-15" cx="197.4189" cy="532.4104" r="21.9164"/>
    <circle class="cls-16" cx="139.2464" cy="519.6144" r="21.9164"/>
    <circle class="cls-3" cx="157.8672" cy="558.0193" r="27.7612"/>
  </g>
  <g id="Layer_5" data-name="Layer 5">
    <g>
      <text class="cls-17" transform="translate(323.7148 615.7251) rotate(-13.1125)"><tspan x="0" y="0">l</tspan></text>
      <path class="cls-20" d="M371.5889,619.8359c-5.7544,0-11.1885-.6016-16.1519-1.7881-8.8076-2.1084-16.6348-6.335-23.269-12.5645-6.1807-5.8018-11.5547-13.7871-15.9722-23.7324-4.04-9.084-7.582-20.2695-10.8257-34.1904l-36.1738-155.2983c-1.4668-6.2969-2.3188-12.502-2.5317-18.4424-.3237-8.8257,2.8037-17.2241,9.0449-24.2759,5.8618-6.6338,15.4033-11.4209,29.1616-14.6265,6.7866-1.5806,12.6377-2.3486,17.8887-2.3486,5.6382,0,10.458.8813,14.7339,2.6943,8.5391,3.6299,14.9531,9.8486,18.562,17.9893,2.457,5.5562,4.4375,11.5317,5.8916,17.7725,0,0,35.1992,151.1138,35.2017,151.1245,2.4946-.3203,5.0854-.4805,7.7495-.4805l.48.001c5.3418.0498,13.314,1.8037,21.1431,9.8799,5.4644,5.6465,9.4209,14.3467,12.46,27.3896,3.1069,13.3408,3.5415,23.124,1.3667,30.79-3.2534,11.4951-9.8906,16.8525-14.8853,19.3223-4.3589,2.1465-8.6504,3.7158-12.7778,4.6758-11.2295,2.6162-21.4062,4.4561-30.2432,5.4658-3.7559.4268-7.4048.6426-10.853.6426Z"/>
      <text class="cls-22" transform="translate(323.7148 615.7251) rotate(-13.1125)"><tspan x="0" y="0">l</tspan></text>
      <path class="cls-18" d="M371.5889,619.8359c-5.7544,0-11.1885-.6016-16.1519-1.7881-8.8076-2.1084-16.6348-6.335-23.269-12.5645-6.1807-5.8018-11.5547-13.7871-15.9722-23.7324-4.04-9.084-7.582-20.2695-10.8257-34.1904l-36.1738-155.2983c-1.4668-6.2969-2.3188-12.502-2.5317-18.4424-.3237-8.8257,2.8037-17.2241,9.0449-24.2759,5.8618-6.6338,15.4033-11.4209,29.1616-14.6265,6.7866-1.5806,12.6377-2.3486,17.8887-2.3486,5.6382,0,10.458.8813,14.7339,2.6943,8.5391,3.6299,14.9531,9.8486,18.562,17.9893,2.457,5.5562,4.4375,11.5317,5.8916,17.7725,0,0,35.1992,151.1138,35.2017,151.1245,2.4946-.3203,5.0854-.4805,7.7495-.4805l.48.001c5.3418.0498,13.314,1.8037,21.1431,9.8799,5.4644,5.6465,9.4209,14.3467,12.46,27.3896,3.1069,13.3408,3.5415,23.124,1.3667,30.79-3.2534,11.4951-9.8906,16.8525-14.8853,19.3223-4.3589,2.1465-8.6504,3.7158-12.7778,4.6758-11.2295,2.6162-21.4062,4.4561-30.2432,5.4658-3.7559.4268-7.4048.6426-10.853.6426Z"/>
    </g>
    <g>
      <text class="cls-17" transform="translate(429.4503 699.3736) rotate(18.0449)"><tspan x="0" y="0">l</tspan></text>
      <path class="cls-20" d="M522.1396,746.3984c-.7197,0-1.4482-.0312-2.165-.0918-4.832-.418-9.3154-1.2949-13.3496-2.6084-10.9702-3.5742-20.6294-7.2656-28.7124-10.9717-9.1436-4.2012-16.7168-9.2305-22.519-14.9541-6.4448-6.3584-10.9561-14.0264-13.4106-22.791-2.2881-8.165-2.7554-17.7793-1.3882-28.5742,1.2417-9.8613,3.998-21.2666,8.4258-34.8574l49.3931-151.6133c2-6.1392,4.4805-11.8882,7.373-17.0869,4.292-7.7236,11.314-13.293,20.3032-16.0981,3.208-1.0034,6.7822-1.5142,10.6143-1.5142,6.3037,0,13.4707,1.3369,21.9092,4.0869,13.6729,4.4541,22.4873,9.9116,27.7373,17.1753,5.4268,7.5181,7.6992,16.1577,6.5771,24.9927-.7734,6.0298-2.1709,12.1675-4.1553,18.2603,0,0-48.0615,147.5278-48.0654,147.5376,2.4375,1.0781,4.877,2.3652,7.292,3.8496,4.543,2.8037,10.4609,8.4307,12.9795,19.3955,1.7559,7.6514.6406,17.1455-3.5098,29.8818-4.2402,13.0205-8.9307,21.6182-14.7588,27.0547-6.3408,5.9209-13.2637,8.9268-20.5703,8.9268Z"/>
      <text class="cls-19" transform="translate(429.4503 699.3736) rotate(18.0449)"><tspan x="0" y="0">l</tspan></text>
      <path class="cls-18" d="M522.1396,746.3984c-.7197,0-1.4482-.0312-2.165-.0918-4.832-.418-9.3154-1.2949-13.3496-2.6084-10.9702-3.5742-20.6294-7.2656-28.7124-10.9717-9.1436-4.2012-16.7168-9.2305-22.519-14.9541-6.4448-6.3584-10.9561-14.0264-13.4106-22.791-2.2881-8.165-2.7554-17.7793-1.3882-28.5742,1.2417-9.8613,3.998-21.2666,8.4258-34.8574l49.3931-151.6133c2-6.1392,4.4805-11.8882,7.373-17.0869,4.292-7.7236,11.314-13.293,20.3032-16.0981,3.208-1.0034,6.7822-1.5142,10.6143-1.5142,6.3037,0,13.4707,1.3369,21.9092,4.0869,13.6729,4.4541,22.4873,9.9116,27.7373,17.1753,5.4268,7.5181,7.6992,16.1577,6.5771,24.9927-.7734,6.0298-2.1709,12.1675-4.1553,18.2603,0,0-48.0615,147.5278-48.0654,147.5376,2.4375,1.0781,4.877,2.3652,7.292,3.8496,4.543,2.8037,10.4609,8.4307,12.9795,19.3955,1.7559,7.6514.6406,17.1455-3.5098,29.8818-4.2402,13.0205-8.9307,21.6182-14.7588,27.0547-6.3408,5.9209-13.2637,8.9268-20.5703,8.9268Z"/>
    </g>
    <g>
      <text class="cls-17" transform="translate(733.9211 536.9917) rotate(-39.1415)"><tspan x="0" y="0">l</tspan></text>
      <path class="cls-20" d="M752.2324,526.4062c-5.0938,0-10.2119-.7822-15.2109-2.3271-8.1035-2.5029-16.4375-7.3203-24.7676-14.3188-7.6133-6.3857-15.7061-14.8833-24.7285-25.9692l-100.6543-123.6729c-4.084-5.0176-7.5732-10.2202-10.3691-15.4629-4.1611-7.7822-5.0371-16.7012-2.5264-25.7773,2.3594-8.5386,8.832-17.0264,19.7871-25.9429,11.1533-9.0781,20.5166-13.5278,29.4668-14.0049.7168-.0376,1.416-.0557,2.1055-.0557,8.4131,0,16.1807,2.7905,22.4629,8.0703,4.6523,3.9204,9.0537,8.4214,13.0977,13.3906,0,0,97.9414,120.3384,97.9482,120.3462,2.2275-1.4648,4.6309-2.8169,7.1875-4.0425,3.6055-1.7192,7.5078-2.585,11.624-2.585,3.7539,0,7.6924.7354,11.708,2.186,7.3887,2.6758,14.7617,8.7573,23.2148,19.144,8.6436,10.6206,13.3271,19.2207,14.7383,27.064,2.1211,11.7607-1.4912,19.4873-4.8955,23.897-2.9707,3.8369-6.1387,7.1309-9.4287,9.8086-8.9395,7.2749-17.2754,13.3926-24.7764,18.1821-8.4824,5.4062-16.8125,9.0459-24.7705,10.8223-3.7178.8291-7.4883,1.248-11.2129,1.248Z"/>
      <text class="cls-21" transform="translate(733.9211 536.9917) rotate(-39.1415)"><tspan x="0" y="0">l</tspan></text>
      <path class="cls-18" d="M752.2324,526.4062c-5.0938,0-10.2119-.7822-15.2109-2.3271-8.1035-2.5029-16.4375-7.3203-24.7676-14.3188-7.6133-6.3857-15.7061-14.8833-24.7285-25.9692l-100.6543-123.6729c-4.084-5.0176-7.5732-10.2202-10.3691-15.4629-4.1611-7.7822-5.0371-16.7012-2.5264-25.7773,2.3594-8.5386,8.832-17.0264,19.7871-25.9429,11.1533-9.0781,20.5166-13.5278,29.4668-14.0049.7168-.0376,1.416-.0557,2.1055-.0557,8.4131,0,16.1807,2.7905,22.4629,8.0703,4.6523,3.9204,9.0537,8.4214,13.0977,13.3906,0,0,97.9414,120.3384,97.9482,120.3462,2.2275-1.4648,4.6309-2.8169,7.1875-4.0425,3.6055-1.7192,7.5078-2.585,11.624-2.585,3.7539,0,7.6924.7354,11.708,2.186,7.3887,2.6758,14.7617,8.7573,23.2148,19.144,8.6436,10.6206,13.3271,19.2207,14.7383,27.064,2.1211,11.7607-1.4912,19.4873-4.8955,23.897-2.9707,3.8369-6.1387,7.1309-9.4287,9.8086-8.9395,7.2749-17.2754,13.3926-24.7764,18.1821-8.4824,5.4062-16.8125,9.0459-24.7705,10.8223-3.7178.8291-7.4883,1.248-11.2129,1.248Z"/>
    </g>
  </g>
  <g id="Layer_6" data-name="Layer 6">
    <circle class="cls-6" cx="708.9761" cy="733.4144" r="10.9831"/>
    <circle class="cls-5" cx="481.7403" cy="716.0423" r="22.2815"/>
    <circle class="cls-4" cx="719.9592" cy="503.5545" r="22.2815"/>
    <circle class="cls-4" cx="256.3495" cy="409.687" r="22.2815"/>
    <circle class="cls-11" cx="574.7083" cy="718.8423" r="29.657"/>
    <circle class="cls-11" cx="624.2246" cy="461.4363" r="16.8077"/>
    <circle class="cls-8" cx="662.4685" cy="317.0461" r="16.8077"/>
    <circle class="cls-5" cx="553.1595" cy="633.795" r="18.9836"/>
    <circle class="cls-13" cx="391.2762" cy="584.5087" r="13.2644"/>
    <circle class="cls-10" cx="289.4225" cy="580.9965" r="13.2644"/>
    <circle class="cls-10" cx="769.8128" cy="351.8535" r="13.2644"/>
    <circle class="cls-10" cx="481.7403" cy="308.9267" r="13.2644"/>
    <circle class="cls-13" cx="577.6222" cy="367.5459" r="13.2644"/>
    <circle class="cls-6" cx="364.5711" cy="380.7353" r="11.1296"/>
    <circle class="cls-7" cx="411.5135" cy="450.9202" r="18.9517"/>
    <circle class="cls-11" cx="360.9489" cy="510.4009" r="21.9164"/>
  </g>
  <g id="Layer_7" data-name="Layer 7">
    <path class="cls-4" d="M627.4929,200.9288c-4.0598-10.1269-21.1602-8.617-23.0281,3.838-2.2378,14.9215,17.5669,32.5767,17.5669,32.5767,0,0,24.1125-11.0689,26.3503-25.9904,1.8679-12.455-14.0373-18.9149-20.8891-10.4244Z"/>
    <path class="cls-10" d="M412.0704,279.2225c-10.0233-4.3094-21.0727,8.8289-13.6059,18.9711,8.9454,12.1507,35.4364,10.6816,35.4364,10.6816,0,0,9.271-24.8592.3256-37.0099-7.4668-10.1422-23.294-3.4937-22.1562,7.3572Z"/>
    <path class="cls-11" d="M684.1119,609.2593c2.5925-10.5979-12.1921-19.3225-20.9599-10.2813-10.5041,10.8316-4.6745,36.7149-4.6745,36.7149,0,0,26.0501,5.0324,36.5542-5.7992,8.7678-9.0412-.4065-23.5511-10.9198-20.6345Z"/>
    <path class="cls-6" d="M532.4954,516.4898c-7.8127-7.6157-22.8371.6892-19.5017,12.8339,3.9959,14.5496,29.2534,22.6733,29.2534,22.6733,0,0,17.5653-19.8845,13.5694-34.4341-3.3354-12.1446-20.4941-11.6108-23.3211-1.0731Z"/>
    <path class="cls-6" d="M77.3343,94.2256c-9.9922-4.381-21.1353,8.6779-13.7413,18.8733,8.8582,12.2144,35.3591,10.9349,35.3591,10.9349,0,0,9.4487-24.7922.5905-37.0066-7.394-10.1954-23.2684-3.6603-22.2082,7.1984Z"/>
    <path class="cls-6" d="M919.9722,127.4766c5.8232-9.2264-5.4264-22.1937-16.6111-16.4041-13.3996,6.9361-16.0896,33.3311-16.0896,33.3311,0,0,23.1044,13.0429,36.504,6.1069,11.1847-5.7896,7.092-22.4615-3.8034-23.0338Z"/>
    <path class="cls-13" d="M830.1029,65.7521c-3.9066-1.8612-8.4866,3.1769-5.6824,7.3107,3.3595,4.9524,13.881,4.7751,13.881,4.7751,0,0,4.0544-9.7106.6949-14.6629-2.8042-4.1338-9.1786-1.7408-8.8935,2.5771Z"/>
    <path class="cls-8" d="M957.2926,77.7827c1.2232-4.1508-4.4728-7.8809-8.1138-4.4612-4.362,4.097-2.5314,14.4595-2.5314,14.4595,0,0,10.2276,2.4758,14.5896-1.6211,3.641-3.4197.2748-9.3381-3.9445-8.3772Z"/>
    <path class="cls-10" d="M103.3058,899.9581c-5.8232,9.2264,5.4264,22.1937,16.6111,16.4041,13.3996-6.9361,16.0896-33.3311,16.0896-33.3311,0,0-23.1044-13.0429-36.504-6.1069-11.1847,5.7896-7.092,22.4615,3.8034,23.0338Z"/>
    <path class="cls-11" d="M193.1751,961.6826c3.9066,1.8612,8.4866-3.1769,5.6824-7.3107-3.3595-4.9524-13.881-4.7751-13.881-4.7751,0,0-4.0544,9.7106-.6949,14.6629,2.8042,4.1338,9.1786,1.7408,8.8935-2.5771Z"/>
    <path class="cls-1" d="M65.9854,949.652c-1.2232,4.1508,4.4728,7.8809,8.1138,4.4612,4.362-4.097,2.5314-14.4595,2.5314-14.4595,0,0-10.2276-2.4758-14.5896,1.6211-3.641,3.4197-.2748,9.3381,3.9445,8.3772Z"/>
    <path class="cls-8" d="M309.3087,419.6004c-10.8178-1.4186-17.8741,14.2311-7.9288,21.9581,11.9148,9.2572,37.0059.6334,37.0059.6334,0,0,2.1549-26.4441-9.7599-35.7013-9.9453-7.727-23.3655,2.9782-19.3173,13.1098Z"/>
  </g>
</svg>