<svg
  xmlns="http://www.w3.org/2000/svg"
  viewBox="0 0 32 32"
  width="32"
  height="32"
>
  <path fill="#000000" d="M16 1H8c-1.1 0-2 .9-2 2H5c-1.66 0-3 1.34-3 3v14c0 1.66 1.34 3 3 3h14c1.66 0 3-1.34 3-3V6c0-1.66-1.34-3-3-3h-1c0-1.1-.9-2-2-2zM8 3h8v2H8V3zm10 18H5c-.55 0-1-.45-1-1V6c0-.55.45-1 1-1h1v1c0 1.1.9 2 2 2h8c1.1 0 2-.9 2-2V5h1c.55 0 1 .45 1 1v14c0 .55-.45 1-1 1z"/>
  <path fill="#000000" d="M15 11H9c-.55 0-1 .45-1 1v9c0 .55.45 1 1 1h6c.55 0 1-.45 1-1v-9c0-.55-.45-1-1-1zm-1 9h-4v-7h4v7z"/>
</svg>
