<?xml version="1.0" encoding="UTF-8"?>
<svg xmlns="http://www.w3.org/2000/svg" xmlns:xlink="http://www.w3.org/1999/xlink" viewBox="0 0 1080 1080">
  <defs>
    <style>
      .cls-1, .cls-2, .cls-3 {
        fill: #ffc157;
      }

      .cls-4 {
        filter: url(#drop-shadow-93);
      }

      .cls-4, .cls-5, .cls-6, .cls-7, .cls-8, .cls-9, .cls-10, .cls-11, .cls-12, .cls-13, .cls-14, .cls-15, .cls-16, .cls-17, .cls-18, .cls-19, .cls-20, .cls-21, .cls-22, .cls-23, .cls-24, .cls-25, .cls-2, .cls-26, .cls-27, .cls-28, .cls-29, .cls-30, .cls-31, .cls-32, .cls-33, .cls-34, .cls-35, .cls-36, .cls-37, .cls-38, .cls-39, .cls-40, .cls-41, .cls-42, .cls-43, .cls-44, .cls-45, .cls-46, .cls-47, .cls-48, .cls-49, .cls-50, .cls-51, .cls-52, .cls-53, .cls-54, .cls-55, .cls-56, .cls-57, .cls-58, .cls-59, .cls-60, .cls-61, .cls-62, .cls-63, .cls-64, .cls-65, .cls-66 {
        stroke-miterlimit: 10;
      }

      .cls-4, .cls-5, .cls-6, .cls-7, .cls-8, .cls-9, .cls-10, .cls-11, .cls-12, .cls-13, .cls-14, .cls-15, .cls-16, .cls-17, .cls-18, .cls-21, .cls-22, .cls-23, .cls-24, .cls-25, .cls-2, .cls-26, .cls-27, .cls-28, .cls-29, .cls-30, .cls-31, .cls-32, .cls-33, .cls-35, .cls-36, .cls-37, .cls-38, .cls-39, .cls-40, .cls-41, .cls-42, .cls-43, .cls-44, .cls-45, .cls-47, .cls-48, .cls-49, .cls-50, .cls-51, .cls-52, .cls-53, .cls-54, .cls-55, .cls-56, .cls-57, .cls-58, .cls-59, .cls-60, .cls-61, .cls-62, .cls-63, .cls-64, .cls-65, .cls-66 {
        stroke: #000;
      }

      .cls-4, .cls-5, .cls-7, .cls-11, .cls-17, .cls-23, .cls-24, .cls-25, .cls-29, .cls-32, .cls-36, .cls-37, .cls-39, .cls-41, .cls-45, .cls-51, .cls-54, .cls-56, .cls-60, .cls-66 {
        stroke-width: .75px;
      }

      .cls-4, .cls-7, .cls-13, .cls-15, .cls-67, .cls-41, .cls-45, .cls-54 {
        fill: #fb574d;
      }

      .cls-5 {
        filter: url(#drop-shadow-88);
      }

      .cls-5, .cls-10, .cls-21, .cls-22, .cls-68, .cls-35, .cls-44, .cls-53, .cls-57, .cls-60, .cls-62 {
        fill: #eac658;
      }

      .cls-6, .cls-8, .cls-28 {
        stroke-width: .4508px;
      }

      .cls-6, .cls-12, .cls-16, .cls-19, .cls-20, .cls-26, .cls-27, .cls-30, .cls-32, .cls-34, .cls-38, .cls-40, .cls-42, .cls-43, .cls-46, .cls-61 {
        fill: none;
      }

      .cls-7, .cls-10, .cls-13, .cls-28, .cls-31, .cls-33, .cls-36, .cls-44, .cls-69, .cls-53, .cls-56 {
        mix-blend-mode: screen;
      }

      .cls-8, .cls-25, .cls-28, .cls-31, .cls-50, .cls-70 {
        fill: #9474d9;
      }

      .cls-71 {
        clip-path: url(#clippath-11);
      }

      .cls-72 {
        clip-path: url(#clippath-16);
      }

      .cls-9, .cls-18, .cls-30 {
        stroke-width: 6px;
      }

      .cls-9, .cls-73, .cls-58, .cls-63 {
        fill: #fff;
      }

      .cls-10, .cls-12, .cls-62 {
        stroke-width: 4.652px;
      }

      .cls-11 {
        filter: url(#drop-shadow-86);
      }

      .cls-11, .cls-29, .cls-33, .cls-36, .cls-74, .cls-47, .cls-49 {
        fill: #01cdaa;
      }

      .cls-75 {
        filter: url(#drop-shadow-74);
      }

      .cls-13, .cls-15, .cls-31, .cls-38, .cls-47, .cls-50, .cls-52, .cls-55, .cls-58, .cls-59, .cls-61 {
        stroke-width: 3px;
      }

      .cls-14, .cls-16 {
        stroke-width: 3.3537px;
      }

      .cls-14, .cls-17, .cls-18, .cls-23, .cls-76, .cls-37, .cls-39, .cls-69, .cls-51, .cls-52, .cls-55, .cls-77, .cls-64, .cls-65, .cls-66, .cls-78 {
        fill: #03c6fe;
      }

      .cls-17 {
        filter: url(#drop-shadow-92);
      }

      .cls-79 {
        filter: url(#drop-shadow-76);
      }

      .cls-19, .cls-20, .cls-34, .cls-46 {
        stroke: #fff;
      }

      .cls-19, .cls-20, .cls-34, .cls-46, .cls-52, .cls-61 {
        stroke-linecap: round;
      }

      .cls-19, .cls-20, .cls-46 {
        stroke-width: 18.2869px;
      }

      .cls-80 {
        filter: url(#drop-shadow-81);
      }

      .cls-20 {
        stroke-dasharray: 0 0 0 0 0 0 66.8932 16.7233 33.4466 66.8932 16.7233 33.4466;
      }

      .cls-21 {
        filter: url(#drop-shadow-89);
        stroke-width: 3.8538px;
      }

      .cls-22, .cls-40, .cls-53 {
        stroke-width: .7726px;
      }

      .cls-23 {
        filter: url(#drop-shadow-96);
      }

      .cls-24, .cls-48, .cls-81, .cls-56, .cls-59 {
        fill: #f897da;
      }

      .cls-82 {
        clip-path: url(#clippath-2);
      }

      .cls-83 {
        filter: url(#drop-shadow-83);
      }

      .cls-84 {
        clip-path: url(#clippath-13);
      }

      .cls-85 {
        isolation: isolate;
      }

      .cls-25 {
        filter: url(#drop-shadow-99);
      }

      .cls-2, .cls-26, .cls-65 {
        stroke-width: 8px;
      }

      .cls-86 {
        clip-path: url(#clippath-15);
      }

      .cls-87 {
        clip-path: url(#clippath-6);
      }

      .cls-27, .cls-64 {
        stroke-width: 1.9483px;
      }

      .cls-76, .cls-3, .cls-77 {
        mix-blend-mode: multiply;
      }

      .cls-88 {
        filter: url(#drop-shadow-80);
      }

      .cls-89 {
        clip-path: url(#clippath-7);
      }

      .cls-33, .cls-42, .cls-49 {
        stroke-width: 1.2709px;
      }

      .cls-34 {
        stroke-width: 13px;
      }

      .cls-35, .cls-43, .cls-44 {
        stroke-width: 2px;
      }

      .cls-90 {
        clip-path: url(#clippath-1);
      }

      .cls-91 {
        clip-path: url(#clippath-4);
      }

      .cls-37 {
        filter: url(#drop-shadow-98);
      }

      .cls-39 {
        filter: url(#drop-shadow-97);
      }

      .cls-92 {
        filter: url(#drop-shadow-79);
      }

      .cls-93 {
        filter: url(#drop-shadow-82);
      }

      .cls-94 {
        clip-path: url(#clippath-12);
      }

      .cls-73, .cls-69, .cls-3, .cls-77 {
        stroke-width: 0px;
      }

      .cls-45 {
        filter: url(#drop-shadow-94);
      }

      .cls-46 {
        stroke-dasharray: 0 0 0 0 33.4466 66.8932 16.7233 33.4466;
      }

      .cls-47 {
        filter: url(#drop-shadow-101);
      }

      .cls-48 {
        filter: url(#drop-shadow-84);
      }

      .cls-95 {
        filter: url(#drop-shadow-73);
      }

      .cls-96 {
        filter: url(#drop-shadow-72);
      }

      .cls-51 {
        filter: url(#drop-shadow-85);
      }

      .cls-97 {
        clip-path: url(#clippath-9);
      }

      .cls-98 {
        clip-path: url(#clippath);
      }

      .cls-99 {
        clip-path: url(#clippath-3);
      }

      .cls-54 {
        filter: url(#drop-shadow-95);
      }

      .cls-100 {
        clip-path: url(#clippath-8);
      }

      .cls-101 {
        filter: url(#drop-shadow-75);
      }

      .cls-57 {
        filter: url(#drop-shadow-91);
        stroke-width: 1.3624px;
      }

      .cls-102 {
        clip-path: url(#clippath-14);
      }

      .cls-103 {
        clip-path: url(#clippath-5);
      }

      .cls-59 {
        filter: url(#drop-shadow-100);
      }

      .cls-60 {
        filter: url(#drop-shadow-90);
      }

      .cls-104 {
        filter: url(#drop-shadow-78);
      }

      .cls-105 {
        clip-path: url(#clippath-10);
      }

      .cls-63 {
        stroke-width: 1.4667px;
      }

      .cls-106 {
        filter: url(#drop-shadow-71);
      }

      .cls-66 {
        filter: url(#drop-shadow-87);
      }

      .cls-107 {
        filter: url(#drop-shadow-77);
      }
    </style>
    <filter id="drop-shadow-71" filterUnits="userSpaceOnUse">
      <feOffset dx="12" dy="12"/>
      <feGaussianBlur result="blur" stdDeviation="0"/>
      <feFlood flood-color="#000" flood-opacity=".66"/>
      <feComposite in2="blur" operator="in"/>
      <feComposite in="SourceGraphic"/>
    </filter>
    <clipPath id="clippath">
      <path class="cls-2" d="M822.7225,417.7524c-43.3-105.54-151.5901-180.35-278.3201-180.35-164.86,0-298.5,126.59-298.5,282.75,0,20.17,2.23,39.84,6.47,58.81,12.8,57.33,43.9399,108.25,87.3401,146.99,14.21,12.69,29.74,24.07,46.3699,33.94,45.8901,27.26,100.1602,43.01,158.3201,43.01,42.48,0,82.88-8.4,119.46-23.55,13.92-5.77,27.28-12.51,39.99-20.14,83.5701-50.1,139.05-138.44,139.05-239.06,0-36.12-7.15-70.65-20.1799-102.4ZM478.9024,540.9024c49.51-9.28-4.4199-73.93,82-64,120.97,39.87-36.02,143.7-82,64Z"/>
    </clipPath>
    <clipPath id="clippath-1">
      <path class="cls-77" d="M530.9024,375.9024c-39.5731,1.4128-82.1641,24.9909-98,66-2.5137,6.5095-11.7338,32.5707-2,63,11.7017,36.5813,45.4878,62.8826,83,68,35.0226,4.7778,68.6211-9.547,90-33,30.9243-33.9246,40.0255-91.0566,11-129-26.8738-35.1305-72.3583-35.4156-84-35ZM477.9024,540.9024c49.51-9.28-4.4199-73.93,82-64,120.97,39.87-36.02,143.7-82,64Z"/>
    </clipPath>
    <clipPath id="clippath-2">
      <path class="cls-18" d="M396.9024,907.9024c-1.3865,8.8917-26.0701,12.624-43,11-6.6617-.639-22.8459-2.1915-25-10-2.1484-7.7881,10.2307-19.7309,23-23,21.2582-5.4424,46.495,12.4125,45,22Z"/>
    </clipPath>
    <clipPath id="clippath-3">
      <path class="cls-14" d="M713.867,917.3353c-.775,4.97-14.572,7.0563-24.0351,6.1485-3.7236-.3572-12.7699-1.225-13.9739-5.5895-1.2009-4.3532,5.7185-11.0287,12.856-12.856,11.8824-3.042,25.9886,6.938,25.153,12.297Z"/>
    </clipPath>
    <clipPath id="clippath-4">
      <path class="cls-64" d="M437.8819,925.972c-.4502,2.8873-8.4655,4.0993-13.963,3.5719-2.1632-.2075-7.4186-.7116-8.118-3.2472-.6976-2.529,3.3221-6.407,7.4686-7.4686,6.903-1.7673,15.0979,4.0306,14.6124,7.1439Z"/>
    </clipPath>
    <filter id="drop-shadow-72" filterUnits="userSpaceOnUse">
      <feOffset dx="3" dy="3"/>
      <feGaussianBlur result="blur-2" stdDeviation="0"/>
      <feFlood flood-color="#000" flood-opacity=".66"/>
      <feComposite in2="blur-2" operator="in"/>
      <feComposite in="SourceGraphic"/>
    </filter>
    <clipPath id="clippath-5">
      <rect class="cls-35" x="418.7358" y="355.7481" width="40.1667" height="16.5906" rx="8.2953" ry="8.2953" transform="translate(-130.2734 329.0652) rotate(-36.1619)"/>
    </clipPath>
    <filter id="drop-shadow-73" filterUnits="userSpaceOnUse">
      <feOffset dx="1.2709" dy="1.2709"/>
      <feGaussianBlur result="blur-3" stdDeviation="0"/>
      <feFlood flood-color="#000" flood-opacity=".66"/>
      <feComposite in2="blur-3" operator="in"/>
      <feComposite in="SourceGraphic"/>
    </filter>
    <clipPath id="clippath-6">
      <rect class="cls-49" x="673.3111" y="677.5292" width="17.0159" height="7.0283" rx="3.5142" ry="3.5142" transform="translate(-218.4869 1024.7679) rotate(-65.8636)"/>
    </clipPath>
    <filter id="drop-shadow-74" filterUnits="userSpaceOnUse">
      <feOffset dx="3" dy="3"/>
      <feGaussianBlur result="blur-4" stdDeviation="0"/>
      <feFlood flood-color="#000" flood-opacity=".66"/>
      <feComposite in2="blur-4" operator="in"/>
      <feComposite in="SourceGraphic"/>
    </filter>
    <clipPath id="clippath-7">
      <rect class="cls-55" x="637.7358" y="380.7481" width="40.1667" height="16.5906" rx="8.2953" ry="8.2953" transform="translate(-29.5187 723.1803) rotate(-56.5265)"/>
    </clipPath>
    <filter id="drop-shadow-75" filterUnits="userSpaceOnUse">
      <feOffset dx="3" dy="3"/>
      <feGaussianBlur result="blur-5" stdDeviation="0"/>
      <feFlood flood-color="#000" flood-opacity=".66"/>
      <feComposite in2="blur-5" operator="in"/>
      <feComposite in="SourceGraphic"/>
    </filter>
    <clipPath id="clippath-8">
      <rect class="cls-15" x="737.7358" y="452.7481" width="40.1667" height="16.5906" rx="8.2953" ry="8.2953" transform="translate(1003.4535 -391.3148) rotate(74.7605)"/>
    </clipPath>
    <filter id="drop-shadow-76" filterUnits="userSpaceOnUse">
      <feOffset dx="3" dy="3"/>
      <feGaussianBlur result="blur-6" stdDeviation="0"/>
      <feFlood flood-color="#000" flood-opacity=".66"/>
      <feComposite in2="blur-6" operator="in"/>
      <feComposite in="SourceGraphic"/>
    </filter>
    <clipPath id="clippath-9">
      <rect class="cls-50" x="629.7358" y="567.7481" width="40.1667" height="16.5906" rx="8.2953" ry="8.2953" transform="translate(292.3612 -215.3571) rotate(24.1364)"/>
    </clipPath>
    <filter id="drop-shadow-77" filterUnits="userSpaceOnUse">
      <feOffset dx="3" dy="3"/>
      <feGaussianBlur result="blur-7" stdDeviation="0"/>
      <feFlood flood-color="#000" flood-opacity=".66"/>
      <feComposite in2="blur-7" operator="in"/>
      <feComposite in="SourceGraphic"/>
    </filter>
    <clipPath id="clippath-10">
      <rect class="cls-50" x="319.7358" y="412.7481" width="40.1667" height="16.5906" rx="8.2953" ry="8.2953" transform="translate(817.8877 167.6563) rotate(100.982)"/>
    </clipPath>
    <filter id="drop-shadow-78" filterUnits="userSpaceOnUse">
      <feOffset dx="4.652" dy="4.652"/>
      <feGaussianBlur result="blur-8" stdDeviation="0"/>
      <feFlood flood-color="#000" flood-opacity=".66"/>
      <feComposite in2="blur-8" operator="in"/>
      <feComposite in="SourceGraphic"/>
    </filter>
    <clipPath id="clippath-11">
      <rect class="cls-62" x="284.6765" y="554.1801" width="62.2852" height="25.7265" rx="12.8632" ry="12.8632" transform="translate(-227.2572 211.5887) rotate(-27.6785)"/>
    </clipPath>
    <filter id="drop-shadow-79" filterUnits="userSpaceOnUse">
      <feOffset dx="2.0603" dy="2.0603"/>
      <feGaussianBlur result="blur-9" stdDeviation="0"/>
      <feFlood flood-color="#000" flood-opacity=".66"/>
      <feComposite in2="blur-9" operator="in"/>
      <feComposite in="SourceGraphic"/>
    </filter>
    <clipPath id="clippath-12">
      <rect class="cls-22" x="515.6307" y="207.729" width="18.5602" height="11.8469" transform="translate(-40.1884 256.5669) rotate(-26.4904)"/>
    </clipPath>
    <filter id="drop-shadow-80" filterUnits="userSpaceOnUse">
      <feOffset dx="2" dy="2"/>
      <feGaussianBlur result="blur-10" stdDeviation="0"/>
      <feFlood flood-color="#000" flood-opacity=".66"/>
      <feComposite in2="blur-10" operator="in"/>
      <feComposite in="SourceGraphic"/>
    </filter>
    <clipPath id="clippath-13">
      <rect class="cls-41" x="377.9024" y="523.9024" width="18.0167" height="11.5"/>
    </clipPath>
    <filter id="drop-shadow-81" filterUnits="userSpaceOnUse">
      <feOffset dx="2" dy="2"/>
      <feGaussianBlur result="blur-11" stdDeviation="0"/>
      <feFlood flood-color="#000" flood-opacity=".66"/>
      <feComposite in2="blur-11" operator="in"/>
      <feComposite in="SourceGraphic"/>
    </filter>
    <clipPath id="clippath-14">
      <rect class="cls-24" x="506.9024" y="652.9024" width="18.0167" height="11.5" transform="translate(1078.8511 39.7137) rotate(80.3583)"/>
    </clipPath>
    <filter id="drop-shadow-82" filterUnits="userSpaceOnUse">
      <feOffset dx="2" dy="2"/>
      <feGaussianBlur result="blur-12" stdDeviation="0"/>
      <feFlood flood-color="#000" flood-opacity=".66"/>
      <feComposite in2="blur-12" operator="in"/>
      <feComposite in="SourceGraphic"/>
    </filter>
    <clipPath id="clippath-15">
      <rect class="cls-29" x="699.9024" y="419.9024" width="18.0167" height="11.5" transform="translate(-114.5947 500.3069) rotate(-36.1619)"/>
    </clipPath>
    <filter id="drop-shadow-83" filterUnits="userSpaceOnUse">
      <feOffset dx="1.2023" dy="1.2023"/>
      <feGaussianBlur result="blur-13" stdDeviation="0"/>
      <feFlood flood-color="#000" flood-opacity=".66"/>
      <feComposite in2="blur-13" operator="in"/>
      <feComposite in="SourceGraphic"/>
    </filter>
    <clipPath id="clippath-16">
      <rect class="cls-8" x="285.4956" y="498.1959" width="10.8303" height="6.913" transform="translate(263.5507 -77.602) rotate(27.4054)"/>
    </clipPath>
    <filter id="drop-shadow-84" filterUnits="userSpaceOnUse">
      <feOffset dx="1" dy="1"/>
      <feGaussianBlur result="blur-14" stdDeviation="0"/>
      <feFlood flood-color="#000" flood-opacity=".66"/>
      <feComposite in2="blur-14" operator="in"/>
      <feComposite in="SourceGraphic"/>
    </filter>
    <filter id="drop-shadow-85" filterUnits="userSpaceOnUse">
      <feOffset dx="1" dy="1"/>
      <feGaussianBlur result="blur-15" stdDeviation="0"/>
      <feFlood flood-color="#000" flood-opacity=".66"/>
      <feComposite in2="blur-15" operator="in"/>
      <feComposite in="SourceGraphic"/>
    </filter>
    <filter id="drop-shadow-86" filterUnits="userSpaceOnUse">
      <feOffset dx="1" dy="1"/>
      <feGaussianBlur result="blur-16" stdDeviation="0"/>
      <feFlood flood-color="#000" flood-opacity=".66"/>
      <feComposite in2="blur-16" operator="in"/>
      <feComposite in="SourceGraphic"/>
    </filter>
    <filter id="drop-shadow-87" filterUnits="userSpaceOnUse">
      <feOffset dx="1" dy="1"/>
      <feGaussianBlur result="blur-17" stdDeviation="0"/>
      <feFlood flood-color="#000" flood-opacity=".66"/>
      <feComposite in2="blur-17" operator="in"/>
      <feComposite in="SourceGraphic"/>
    </filter>
    <filter id="drop-shadow-88" filterUnits="userSpaceOnUse">
      <feOffset dx="1" dy="1"/>
      <feGaussianBlur result="blur-18" stdDeviation="0"/>
      <feFlood flood-color="#000" flood-opacity=".66"/>
      <feComposite in2="blur-18" operator="in"/>
      <feComposite in="SourceGraphic"/>
    </filter>
    <filter id="drop-shadow-89" filterUnits="userSpaceOnUse">
      <feOffset dx="5.1384" dy="5.1384"/>
      <feGaussianBlur result="blur-19" stdDeviation="0"/>
      <feFlood flood-color="#000" flood-opacity=".66"/>
      <feComposite in2="blur-19" operator="in"/>
      <feComposite in="SourceGraphic"/>
    </filter>
    <filter id="drop-shadow-90" filterUnits="userSpaceOnUse">
      <feOffset dx="1" dy="1"/>
      <feGaussianBlur result="blur-20" stdDeviation="0"/>
      <feFlood flood-color="#000" flood-opacity=".66"/>
      <feComposite in2="blur-20" operator="in"/>
      <feComposite in="SourceGraphic"/>
    </filter>
    <filter id="drop-shadow-91" filterUnits="userSpaceOnUse">
      <feOffset dx="1.8166" dy="1.8166"/>
      <feGaussianBlur result="blur-21" stdDeviation="0"/>
      <feFlood flood-color="#000" flood-opacity=".66"/>
      <feComposite in2="blur-21" operator="in"/>
      <feComposite in="SourceGraphic"/>
    </filter>
    <filter id="drop-shadow-92" filterUnits="userSpaceOnUse">
      <feOffset dx="1" dy="1"/>
      <feGaussianBlur result="blur-22" stdDeviation="0"/>
      <feFlood flood-color="#000" flood-opacity=".66"/>
      <feComposite in2="blur-22" operator="in"/>
      <feComposite in="SourceGraphic"/>
    </filter>
    <filter id="drop-shadow-93" filterUnits="userSpaceOnUse">
      <feOffset dx="1" dy="1"/>
      <feGaussianBlur result="blur-23" stdDeviation="0"/>
      <feFlood flood-color="#000" flood-opacity=".66"/>
      <feComposite in2="blur-23" operator="in"/>
      <feComposite in="SourceGraphic"/>
    </filter>
    <filter id="drop-shadow-94" filterUnits="userSpaceOnUse">
      <feOffset dx="1" dy="1"/>
      <feGaussianBlur result="blur-24" stdDeviation="0"/>
      <feFlood flood-color="#000" flood-opacity=".66"/>
      <feComposite in2="blur-24" operator="in"/>
      <feComposite in="SourceGraphic"/>
    </filter>
    <filter id="drop-shadow-95" filterUnits="userSpaceOnUse">
      <feOffset dx="1" dy="1"/>
      <feGaussianBlur result="blur-25" stdDeviation="0"/>
      <feFlood flood-color="#000" flood-opacity=".66"/>
      <feComposite in2="blur-25" operator="in"/>
      <feComposite in="SourceGraphic"/>
    </filter>
    <filter id="drop-shadow-96" filterUnits="userSpaceOnUse">
      <feOffset dx="1" dy="1"/>
      <feGaussianBlur result="blur-26" stdDeviation="0"/>
      <feFlood flood-color="#000" flood-opacity=".66"/>
      <feComposite in2="blur-26" operator="in"/>
      <feComposite in="SourceGraphic"/>
    </filter>
    <filter id="drop-shadow-97" filterUnits="userSpaceOnUse">
      <feOffset dx="1" dy="1"/>
      <feGaussianBlur result="blur-27" stdDeviation="0"/>
      <feFlood flood-color="#000" flood-opacity=".66"/>
      <feComposite in2="blur-27" operator="in"/>
      <feComposite in="SourceGraphic"/>
    </filter>
    <filter id="drop-shadow-98" filterUnits="userSpaceOnUse">
      <feOffset dx="1" dy="1"/>
      <feGaussianBlur result="blur-28" stdDeviation="0"/>
      <feFlood flood-color="#000" flood-opacity=".66"/>
      <feComposite in2="blur-28" operator="in"/>
      <feComposite in="SourceGraphic"/>
    </filter>
    <filter id="drop-shadow-99" filterUnits="userSpaceOnUse">
      <feOffset dx="1" dy="1"/>
      <feGaussianBlur result="blur-29" stdDeviation="0"/>
      <feFlood flood-color="#000" flood-opacity=".66"/>
      <feComposite in2="blur-29" operator="in"/>
      <feComposite in="SourceGraphic"/>
    </filter>
    <filter id="drop-shadow-100" filterUnits="userSpaceOnUse">
      <feOffset dx="2" dy="2"/>
      <feGaussianBlur result="blur-30" stdDeviation="0"/>
      <feFlood flood-color="#000" flood-opacity=".66"/>
      <feComposite in2="blur-30" operator="in"/>
      <feComposite in="SourceGraphic"/>
    </filter>
    <filter id="drop-shadow-101" filterUnits="userSpaceOnUse">
      <feOffset dx="2" dy="2"/>
      <feGaussianBlur result="blur-31" stdDeviation="0"/>
      <feFlood flood-color="#000" flood-opacity=".66"/>
      <feComposite in2="blur-31" operator="in"/>
      <feComposite in="SourceGraphic"/>
    </filter>
  </defs>
  <g class="cls-85">
    <g id="SPRINKLES">
      <g>
        <g id="Dough" class="cls-106">
          <path class="cls-1" d="M822.7225,417.7524c-43.3-105.54-151.5901-180.35-278.3201-180.35-164.86,0-298.5,126.59-298.5,282.75,0,20.17,2.23,39.84,6.47,58.81,12.8,57.33,43.9399,108.25,87.3401,146.99,14.21,12.69,29.74,24.07,46.3699,33.94,45.8901,27.26,100.1602,43.01,158.3201,43.01,42.48,0,82.88-8.4,119.46-23.55,13.92-5.77,27.28-12.51,39.99-20.14,83.5701-50.1,139.05-138.44,139.05-239.06,0-36.12-7.15-70.65-20.1799-102.4ZM478.9024,540.9024c49.51-9.28-4.4199-73.93,82-64,120.97,39.87-36.02,143.7-82,64Z"/>
          <g class="cls-98">
            <path class="cls-3" d="M270.1423,621.6346c2.895,2.2062,8.5839,6.1086,14,13,8.724,11.1003,10.3848,21.2978,13,30,6.553,21.8049,19.6993,36.2213,35,53,9.8153,10.7634,17.5579,16.8536,33,29,14.447,11.3637,25.3035,19.7869,29,17,5.9733-4.5035-15.0613-32.0127-5-45,5.5597-7.1766,17.7242-6.2082,20-6,21.6626,1.9816,22.9832,23.2068,44,33,31.115,14.4985,77.0549-9.2682,92-17,14.8174-7.6657,17.6361-11.9459,27-12,21.2534-.1227,26.4219,21.0225,56,28,16.1072,3.7997,26.0374.181,30,7,5.5663,9.5786-10.3701,23.013-6,29,6.1947,8.4866,49.7935-2.6473,67-32,5.5164-9.4103,8.135-20.3776,9-24,3.4324-14.3752,1.1212-18.4937,3-36,1.9979-18.6165,3.3557-32.5862,13-42,7.5548-7.3742,13.4923-5.902,27-11,31.8472-12.0197,49.3893-39.2806,55-48,8.3451-12.9686,13.809-27.0067,18-47,3.8132-18.1912,21.4492-102.3233-6-146-53.7029-85.4509-282.8053-20.5532-313-12-196.5736,55.6832-321.929,180.1992-310,205,3.7659,7.8293,23.1348,9.7159,55,34Z"/>
          </g>
          <path class="cls-26" d="M822.7225,417.7524c-43.3-105.54-151.5901-180.35-278.3201-180.35-164.86,0-298.5,126.59-298.5,282.75,0,20.17,2.23,39.84,6.47,58.81,12.8,57.33,43.9399,108.25,87.3401,146.99,14.21,12.69,29.74,24.07,46.3699,33.94,45.8901,27.26,100.1602,43.01,158.3201,43.01,42.48,0,82.88-8.4,119.46-23.55,13.92-5.77,27.28-12.51,39.99-20.14,83.5701-50.1,139.05-138.44,139.05-239.06,0-36.12-7.15-70.65-20.1799-102.4ZM478.9024,540.9024c49.51-9.28-4.4199-73.93,82-64,120.97,39.87-36.02,143.7-82,64Z"/>
        </g>
        <g id="Frosting">
          <path class="cls-65" d="M815.4425,473.3124l-.01-.19c-1.22-16.02,0-30.95,4.2-46.61,1.62-6.03,1.62-10.91-.76-16.38-34.9399-79.41-109.1-140.04-193.8799-162.32-182.76-51.52-381.79,82.04-380.4801,272.1-.0199,16.61,1.51,33.39,4.51,49.42.84,5.45,3.4401,10.64,7.86,13.95,8.9299,7.05,20.51,13.54,27.9399,22,13.51,14.85,12.53,27.55,21.3301,48.64,4,9.3701,8.75,18.08,14.9199,26.07,7.3,9.68,14.24,14.07,16.9202,24.08,4.99,16.15-3.9102,31.21-3.9701,47.67.13,13.66-.0599,32.02,10.01,41.59,11.48,10.14,33.15,6.6,40.7101-6.63,6.96-13.02-4.6901-44.27-8.8401-58.4-4.99-14.7599,7.65-30.22,22.5901-33.04,13.1899-2.63,27.6099,3.47,38.3899,10.1,7.8401,5.02,14.63,10.38,23.6101,14.34,14.47,7.25,31.1399,4.99,45.3398-2.06,15.8901-7.46,23.1101-16.65,39.4001-19.15,13.3899-2.16,24.8599-1.68,36.8499,3.24,8.53,3.53,13.3101,8.55,23.8501,13.76,17.0601,8.28,37.36,12.83,54.23,18.53,11.25,3.54,13.4199,11.67,10.51,22.42-1.9399,9.72-6.55,19.37-9.13,28.48-3.2101,12.66,7.5699,27.06,20.76,27.79,10.65.65,22.99-6.11,22.8199-17.32.16-4.84-1.78-12.55-2.1799-19.65-1.51-14.27,1.7-24.13,7.51-37.17,3.6-9.51,5.8099-20.43,6.4199-30.39.28-12.86.72-27.65,3.6899-41.14,2.1301-11.13,4.1702-21.82,10.7401-29.84,9.2-11.9,23.1901-12.88,36.49-19.69,26.16-12.18,53.1801-46.29,53.41-84.58,1.0699-19.66-3.6301-40.05-5.76-59.62ZM477.9024,540.9024c49.51-9.28-4.4199-73.93,82-64,120.97,39.87-36.02,143.7-82,64Z"/>
          <g>
            <path class="cls-76" d="M530.9024,375.9024c-39.5731,1.4128-82.1641,24.9909-98,66-2.5137,6.5095-11.7338,32.5707-2,63,11.7017,36.5813,45.4878,62.8826,83,68,35.0226,4.7778,68.6211-9.547,90-33,30.9243-33.9246,40.0255-91.0566,11-129-26.8738-35.1305-72.3583-35.4156-84-35ZM477.9024,540.9024c49.51-9.28-4.4199-73.93,82-64,120.97,39.87-36.02,143.7-82,64Z"/>
            <g class="cls-90">
              <path class="cls-77" d="M616.9024,470.9024c8.0378,43.205-34.6176,104.4023-87.5,100-35.0493-2.9177-69.259-34.5222-70.5-70.5-.7136-20.6882,9.3981-44.9814,25-55.5,5.7822-3.8983,9.1576-3.7735,21.3965-11.606,8.6429-5.5312,13.8058-9.9748,19.6035-8.394,4.4348,1.2092,5.0413,4.7982,9,5,5.3615.2733,7.8777-6.1249,12.7131-9.5106,13.3662-9.3589,39.8134,7.5481,41.2869,8.5106,14.7207,9.6161,25.9889,25.8144,29,42Z"/>
              <path class="cls-77" d="M564.9024,506.4024c.7117,30.218-45.8475,59.2187-75,44.5-14.9938-7.5701-24.4703-26.2444-23-44.5,1.798-22.3249,19.6376-39.9333,40-43.5,29.6042-5.1854,57.4595,20.5502,58,43.5Z"/>
            </g>
          </g>
          <path class="cls-77" d="M775.6925,613.1624c-11.79,8.0699-28.8401,10.55-39.03,18.63-11.9399,9.35-14.21,24.84-16.9,39.48-3.5399,16.66-1.64,30.83-4.08,47.08-3.51,24.74-16.3701,33.8799-12.45,60.86,1.9299,14.48,5.01,24.09-8.4801,30.96-12.34,6.44-27.41.17-32.2999-12.98-4.03-9.62.8599-17.07,3.98-26.42,3.1399-10.83,11.23-28.12-2.1801-34.87-15.42-6.55-32.36-9.57-48.9401-16.29-15.7799-5.3199-26.5999-17.3-41.8599-20.69-10.8201-2.6299-25.01-1.96-35.96,1.5-12.3601,4-17.8701,10.77-31.1301,16.9301-14.3699,7.29-31.6399,9.67-46.3,2.16-18.8599-9.03-34.1099-25.65-56.48-24.78-14.4099.2-27.7799,11.91-28.8199,25.63-.0699,8.35,4.28,16.3,6.27,24.4901,2.65,10.18,5.7101,21.5,5.89,31.8799.4299,12.32-10.15,20.52-21.65,22.2401,2.48-7.96,5.83-17.69,4.63-33.07-1.64-20.91-9.5701-24.9-8-41,1.52-15.56,11.21-35.26,28-42,16.85-6.76,35.1799,1.8,57,12,24.71,11.55,27.48,19.79,40,19,17.9199-1.13,18.73-18.42,41-27,25.6899-9.89,54.15,1.75,67,7,13.55,5.54,14.5601,8.84,36,18,20.85,8.9,31.27,13.35,39,11,13.5901-4.14,20.25-21.82,33-57,10.35-28.55,8.49-33.19,17-44,9.95-12.64,16.52-11.4,40-28,24.5801-17.37,37.46-26.48,42-41,6.65-21.26-11.7-31.35-17-62-5.54-32.07,5.74-71.95,28.4199-91.75,2.5,5.17,4.8201,10.43,6.9701,15.77,1.2899,5.98-1.02,12.3-2.25,18.21-1.54,6.6-2.34,12-2.76,18.43-1.4,16.72,1.5299,33.04,3.99,49.36l.03.2c7.45,46.22-4.9901,86.06-43.61,112.04Z"/>
          <path class="cls-77" d="M775.6925,613.1624c-11.79,8.0699-28.8401,10.55-39.03,18.63-11.9399,9.35-14.21,24.84-16.9,39.48-3.5399,16.66-1.64,30.83-4.08,47.08-3.51,24.74-16.3701,33.8799-12.45,60.86,1.9299,14.48,5.01,24.09-8.4801,30.96-12.34,6.44-27.41.17-32.2999-12.98-4.03-9.62.8599-17.07,3.98-26.42,3.1399-10.83,11.23-28.12-2.1801-34.87-15.42-6.55-32.36-9.57-48.9401-16.29-15.7799-5.3199-26.5999-17.3-41.8599-20.69-10.8201-2.6299-25.01-1.96-35.96,1.5-12.3601,4-17.8701,10.77-31.1301,16.9301-14.3699,7.29-31.6399,9.67-46.3,2.16-18.8599-9.03-34.1099-25.65-56.48-24.78-14.4099.2-27.7799,11.91-28.8199,25.63-.0699,8.35,4.28,16.3,6.27,24.4901,2.65,10.18,5.7101,21.5,5.89,31.8799.4299,12.32-10.15,20.52-21.65,22.2401-7.51,1.14-15.41-.4901-20.91-5.53-12.58-12.88-11.4299-37.68-8.76-54.36,2.99-14.66,7.23-30.15-1.4099-43.38-7.3601-12.21-18.5701-21.46-24.72-34.57-10.53-20-10.3601-40.66-24.8-55.94-5.3301-6.15-13.0601-11.14-19.97-16.16-5.3201-3.94-10.66-6.83-13.5601-12.81-9.84-35.35-7.95-75.27-1.0801-110.89.52-2.93,6.2401-29.1,5.9901-17.15.4,38.85,8.8199,79.36,29.09,116.15,3.12-2.14,7.02-3.43,11.26-3.43,10.22,0,18.5,7.39,18.5,16.5,0,6.79-4.6,12.62-11.1799,15.15,10.71,13.76,23.47,26.71,38.5299,38.4901,21.4301,16.65,46.29,25.84,71.76,32.59.99-8.28,8.84-14.73,18.39-14.73,10.22,0,18.5,7.39,18.5,16.5,0,2.33-.55,4.54-1.52,6.54,111.73,21.33,267.65-12.13,306.6001-146.57-1.4701.33-3,.53-4.5801.53-10.22,0-18.5-7.39-18.5-16.5s8.28-16.5,18.5-16.5c3.98,0,7.65,1.13,10.6599,3.03,6.4001-52.38-8.1699-103.78-33.1199-147.14-51.8301-79.26-122.42-96.71-212.6301-110.19,8.54-1.32,20.03-1.59,29.53-1.4901,116.3401.83,221.23,66.22,267.48,162.04,2.5,5.17,4.8201,10.43,6.9701,15.77,1.2899,5.98-1.02,12.3-2.25,18.21-1.54,6.6-2.34,12-2.76,18.43-1.4,16.72,1.5299,33.04,3.99,49.36l.03.2c7.45,46.22-4.9901,86.06-43.61,112.04Z"/>
        </g>
        <g>
          <path class="cls-19" d="M303.9024,530.9024c-.1918-17.7067.1731-35.5211,2.1035-53.128"/>
          <path class="cls-46" d="M308.3265,461.2154c2.3937-13.8438,5.9734-27.4943,11.2434-40.7941,10.8638-29.486,28.2878-54.8773,50.2014-75.4048"/>
          <path class="cls-20" d="M382.4255,334.0928c28.4807-22.649,62.9866-37.9501,99.8359-44.5361,36.7089-7.099,71.7897-5.8669,106.3359.6531"/>
          <path class="cls-19" d="M604.9486,293.6872c17.0289,4.0172,33.9694,9.2119,50.9539,15.2153"/>
        </g>
        <path class="cls-34" d="M450.4024,548.4024c6.0625,5.2454,42.074,35.3909,92,29,13.7241-1.7568,40.2119-7.7737,63-30,31.0171-30.2524,32.8055-68.7115,33-77"/>
        <g>
          <path class="cls-78" d="M396.9024,907.9024c-1.3865,8.8917-26.0701,12.624-43,11-6.6617-.639-22.8459-2.1915-25-10-2.1484-7.7881,10.2307-19.7309,23-23,21.2582-5.4424,46.495,12.4125,45,22Z"/>
          <g class="cls-82">
            <ellipse class="cls-77" cx="367.9024" cy="915.4024" rx="29" ry="19.5"/>
            <ellipse class="cls-77" cx="362.9024" cy="927.4024" rx="29" ry="19.5"/>
          </g>
          <path class="cls-30" d="M396.9024,907.9024c-1.3865,8.8917-26.0701,12.624-43,11-6.6617-.639-22.8459-2.1915-25-10-2.1484-7.7881,10.2307-19.7309,23-23,21.2582-5.4424,46.495,12.4125,45,22Z"/>
        </g>
        <g>
          <path class="cls-78" d="M713.867,917.3353c-.775,4.97-14.572,7.0563-24.0351,6.1485-3.7236-.3572-12.7699-1.225-13.9739-5.5895-1.2009-4.3532,5.7185-11.0287,12.856-12.856,11.8824-3.042,25.9886,6.938,25.153,12.297Z"/>
          <g class="cls-99">
            <ellipse class="cls-77" cx="689.9024" cy="918.4024" rx="13" ry="7.5"/>
            <ellipse class="cls-77" cx="687.9024" cy="922.4024" rx="13" ry="7.5"/>
          </g>
          <path class="cls-16" d="M713.867,917.3353c-.775,4.97-14.572,7.0563-24.0351,6.1485-3.7236-.3572-12.7699-1.225-13.9739-5.5895-1.2009-4.3532,5.7185-11.0287,12.856-12.856,11.8824-3.042,25.9886,6.938,25.153,12.297Z"/>
        </g>
        <g>
          <path class="cls-78" d="M437.8819,925.972c-.4502,2.8873-8.4655,4.0993-13.963,3.5719-2.1632-.2075-7.4186-.7116-8.118-3.2472-.6976-2.529,3.3221-6.407,7.4686-7.4686,6.903-1.7673,15.0979,4.0306,14.6124,7.1439Z"/>
          <g class="cls-91">
            <ellipse class="cls-77" cx="423.4024" cy="929.4024" rx="11.5" ry="6.5"/>
            <ellipse class="cls-77" cx="424.4024" cy="931.4024" rx="11.5" ry="6.5"/>
          </g>
          <path class="cls-27" d="M437.8819,925.972c-.4502,2.8873-8.4655,4.0993-13.963,3.5719-2.1632-.2075-7.4186-.7116-8.118-3.2472-.6976-2.529,3.3221-6.407,7.4686-7.4686,6.903-1.7673,15.0979,4.0306,14.6124,7.1439Z"/>
        </g>
        <g>
          <path class="cls-9" d="M446.7347,280.2847c-2.2595-1.3205-4.3154-1.7299-6.1614-1.233-1.8492.5016-3.5044,1.152-4.9673,1.9525-1.1257.6169-2.0129,1.0685-2.6616,1.3484-.6504.2846-1.2402.2783-1.7666-.0199-.5278-.2933-1.0828-.9055-1.6631-1.8325-.5804-.923-1.3325-2.2332-2.2578-3.921l-39.8556-72.7595c-1.4167-2.5869-3.0004-4.9402-4.743-7.0573-1.7458-2.1163-4.0752-3.3645-6.9882-3.7437-2.9161-.3784-6.9039.8189-11.9681,3.5927-5.0658,2.7746-8.2522,5.5079-9.556,8.1974-1.307,2.6911-1.5535,5.3154-.7394,7.8666.8141,2.5552,1.9303,5.1254,3.347,7.7132l20.0153,36.5391c-1.9927-.5912-4.0562-1.0795-6.2361-1.398-5.2615-.764-10.8774-.3101-16.8496,1.3651-5.972,1.6783-11.9983,5.0793-18.0817,10.2064-7.85,6.6177-13.4087,14.1592-16.6793,22.6205-3.2722,8.4653-4.1436,17.0864-2.614,25.8673.4209,2.4214,1.0514,4.7996,1.8531,7.1423l-2.3477-4.1198c-2.9781-5.1055-6.306-8.2983-9.9774-9.5839-3.6729-1.2816-8.3762-.1788-14.1146,3.3088-5.6669,3.3828-9.1108,6.7385-10.3287,10.072-1.2196,3.3335.1875,8.0432,4.2167,14.1234l24.9442,37.441-44.449-6.9595c-6.9246-1.0788-11.6995-.4031-14.3246,2.0312-2.6219,2.4351-4.3169,6.9882-5.0817,13.6575-.8046,6.4952.0842,11.1771,2.6665,14.0463,2.5822,2.8732,6.9579,4.6055,13.1255,5.1993l6.4795.556c-3.188.3068-6.3363.9244-9.4417,1.8744-8.5845,2.6267-16.0164,7.1273-22.2937,13.5009-6.2759,6.3744-10.5625,14.1695-12.8506,23.3845-1.6711,6.725-1.9351,13.3721-.7886,19.9349,1.1464,6.566,3.428,12.6868,6.8434,18.36,3.417,5.6772,7.788,10.5626,13.1161,14.6632,4.9075,3.7768,10.4692,6.5229,16.6663,8.2643l-69.3246-.1767c-2.951-.0071-5.775.2441-8.4717.7481-2.6951.508-4.9132,1.9454-6.651,4.3145-1.738,2.3715-2.6157,6.4412-2.6299,12.2154-.0144,5.775.8411,9.8851,2.5662,12.3259,1.7268,2.4431,3.9067,3.9257,6.5334,4.4433,2.6316.5215,5.4204.7839,8.3716.7918l85.2698.217c7.0581.0183,12.9299-.415,17.6157-1.3022,4.6875-.8849,8.4749-2.2881,11.3672-4.2056,2.8922-1.9176,5.1118-4.4139,6.6589-7.4898,1.5487-3.0759,2.5837-6.8268,3.1085-11.2526.5231-4.4258.795-9.5894.8093-15.4932.0048-1.6656-.2162-3.4647-.6598-5.391-.42-1.8098-1.7252-3.3642-3.902-4.669,1.6569-1.7794,3.2307-3.626,4.6398-5.6073,3.7571-5.2797,6.3489-10.7844,7.772-16.514,1.3928-5.6041,1.7173-11.573.9778-17.9045-.7378-6.3323-2.6235-12.4531-5.6525-18.3616-3.0243-5.9086-7.2203-11.1158-12.5802-15.6212-5.2203-4.3884-11.6317-7.5544-19.2137-9.5176l48.6656,4.1752c3.1387.3339,6.012-.2274,8.6179-1.6838,2.6045-1.454,4.8782-3.6944,6.8149-6.7218,2.0049-3.134,3.1036-6.1622,3.3008-9.0862.1941-2.9209-.5183-5.7368-2.1354-8.4494l-24.3174-42.6722c.2146.2625.4091.529.6293.7902,3.5569,4.2199,7.9739,7.966,13.248,11.2375,5.2773,3.2731,11.1174,5.5253,17.5237,6.752,6.4077,1.2307,13.1748.896,20.303-1.0025,7.1249-1.8961,14.3706-5.9467,21.7292-12.1494,6.5731-5.5404,11.6819-10.7287,15.3279-15.564,2.6461-3.5112,4.52-6.7958,5.6406-9.8617,1.3491.239,2.7211.3696,4.1316.3168,3.4408-.1296,7.2251-1.0328,11.3544-2.7086,4.1293-1.6783,8.7816-3.9329,13.9603-6.7687,1.4613-.8006,2.9304-1.8627,4.4028-3.1801,1.4724-1.3205,2.2148-3.3701,2.2245-6.1566.0111-2.7841-1.3722-6.7107-4.1451-11.775-2.6506-4.8376-5.1072-7.9191-7.3682-9.2428ZM289.2174,450.5285c.3307,2.6601.2639,4.9251-.2004,6.7926-.4642,1.8682-1.4563,3.8709-2.978,6.0031-1.5217,2.1354-3.6205,3.7954-6.2949,4.9816-2.676,1.1885-5.8799,1.3157-9.6165.3871-2.9893-.7426-5.4634-2.0822-7.4286-4.0267-1.9637-1.9414-3.3215-4.1969-4.072-6.7632-.7505-2.5671-.7855-5.2192-.105-7.9597.7728-3.1116,2.0782-5.697,3.9099-7.7553,1.8348-2.0543,4.0338-3.4607,6.6002-4.2112,2.5662-.7505,5.4076-.7386,8.5193.0342,3.8622.9596,6.6876,2.6219,8.4812,4.9824,1.792,2.3643,2.854,4.8742,3.1848,7.5351ZM351.4477,310.3871c-1.226-1.6497-1.9717-3.5807-2.2388-5.7909-.2672-2.2061.0907-4.522,1.0701-6.9436.9811-2.42,2.6473-4.6238,5.0022-6.6089,1.7665-1.4891,3.4727-2.5496,5.1199-3.1832,1.6473-.6328,3.2118-.8196,4.6923-.5565,1.4802.2624,2.7603,1.0327,3.8335,2.3071.9922,1.1774,1.4167,2.3294,1.2769,3.4551-.1432,1.1281-.9,2.269-2.2738,3.4265l-16.4822,13.8944ZM398.1229,301.2508c-.7855.663-1.4915,1.4692-2.1179,2.4152-.6265.9493-1.2896,2.0543-1.9891,3.3137-.6996,1.2617-1.4962,2.606-2.3929,4.0307-.8969,1.4279-2.0735,2.967-3.5347,4.6158-1.4629,1.6536-3.2722,3.3883-5.4299,5.2065-2.1593,1.8206-4.4395,3.1991-6.8403,4.1301-2.4026.9349-4.6921,1.3547-6.8689,1.2585-2.1782-.0914-4.1245-.7592-5.8401-2.0002l31.3473-26.4246c1.1503-.9695,2.1461-2.0011,3.0092-3.0859l.2535.4632c.9047,1.6517,1.796,3.2069,2.6757,4.6796-.8064.3656-1.5742.8098-2.2717,1.3975Z"/>
          <path class="cls-9" d="M833.4459,387.3243c-2.1179-5.7837-5.1868-10.332-9.1984-13.644-.9698-.8003-1.9768-1.5366-3.0175-2.215,1.3403-1.8745,2.0984-4.0981,2.2065-6.713.1288-3.192-.5771-6.8959-2.1211-11.1119-1.943-5.3035-4.1356-8.7706-6.5779-10.4028-2.4438-1.6353-4.9482-2.2205-7.5112-1.7585-2.5664.4595-5.1741,1.1774-7.823,2.1473l-10.2148,3.7411c.7971-1.7057,1.5172-3.4527,2.1169-5.2635,2.8237-8.5233,3.4502-17.1882,1.8826-25.9961-1.571-8.8063-5.4507-16.8105-11.6438-24.0078-4.5205-5.2526-9.7898-9.312-15.8081-12.1732-6.0181-2.8629-12.3306-4.5411-18.9338-5.0364-6.6082-.4961-13.1226.244-19.5479,2.2189-.3088.0949-.6107.2075-.9172.3085.304-2.5462.4265-5.1157.3179-7.7149-.3752-8.9717-2.8557-17.2971-7.4382-24.9808-4.5856-7.6806-11.0474-13.7943-19.3855-18.3346-6.0867-3.3136-12.4514-5.2447-19.0914-5.7916-6.6432-.5486-13.1415.1153-19.4937,1.9891-6.3553,1.8746-12.1859,4.871-17.4967,8.9924-.0154.0119-.0298.0249-.0449.0369-.5291-2.1681-1.2103-4.3039-2.0475-6.4065-3.3199-8.3429-8.4128-15.3803-15.2786-21.1163-6.8657-5.7336-14.986-9.3676-24.356-10.8956-6.8402-1.1146-13.4866-.8332-19.9342.8451-6.4507,1.6791-12.3623,4.4537-17.7383,8.3214-5.3789,3.8709-9.8899,8.6266-13.5405,14.272-3.13,4.8378-5.3274,10.1656-6.609,15.9721l-4.2684-68.0151c-.186-2.944-.6201-5.7464-1.2991-8.4041-.6821-2.6569-2.2625-4.7756-4.7383-6.3561-2.4803-1.5805-6.5985-2.1895-12.3623-1.8278-5.7622.3618-9.8088,1.4835-12.132,3.3653-2.3262,1.881-3.6617,4.1531-4.0084,6.8085-.3481,2.6585-.4277,5.4601-.2433,8.4048l1.8702,29.8022c-2.2231-1.0306-5.1008-1.8145-8.6755-2.3346-6.88-.6543-11.6326.0032-14.2625,1.9788-2.6299,1.9748-4.3884,6.2369-5.2773,12.7814l-4.9933,36.8452-33.3899-28.1906c-4.8051-4.0721-8.8947-6.0477-12.2701-5.9284-3.374.1216-7.4319,2.8167-12.1716,8.0845-4.3201,4.8782-6.3076,9.0408-5.9658,12.4825.3403,3.4456,2.835,7.1606,7.4827,11.1445l50.8251,42.9178-4.9178,36.2884c-1.0336,6.0508-.5789,10.5665,1.3657,13.5406,1.9399,2.9726,6.3267,4.9299,13.1559,5.8688,6.9501.9008,11.7614.326,14.4374-1.7283,2.6713-2.0567,4.3901-6.3378,5.1565-12.8466l12.0984-89.5126.873,13.9086c.442,7.0454,1.2577,12.876,2.4486,17.4934,1.1877,4.6207,2.8351,8.3079,4.937,11.069,2.1019,2.7611,4.7383,4.813,7.9088,6.1573,3.1704,1.3436,6.9802,2.1323,11.4307,2.3683,4.4504.233,9.6212.1678,15.5122-.2027,1.6632-.1042,3.4441-.442,5.3378-1.0097,1.881-.5674,3.4149-2.097,4.6045-4.5901,1.9938,1.5938,4.0575,3.0854,6.2506,4.389,5.5698,3.3128,11.2686,5.445,17.0942,6.3951,5.7003.9294,11.6755.764,17.9243-.4897,6.2505-1.2545,12.1971-3.6332,17.8386-7.1352,1.5745-.9765,3.0802-2.0486,4.5309-3.1976.3998,1.5022.864,2.9899,1.4078,4.46,2.3341,6.3116,5.5809,11.9522,9.7452,16.921,4.161,4.968,8.8326,8.8644,14.0192,11.6875,5.0706,2.761,10.7645,4.58,17.0785,5.4633,6.3124.8824,12.7123.6026,19.1932-.8372,1.6921-.3751,3.3567-.8444,4.9966-1.3978-.1416,1.4617-.2288,2.9312-.2393,4.4117-.0509,6.7282.9905,13.1535,3.126,19.2743,2.1354,6.1184,5.1262,11.4164,8.9773,15.8915,3.7651,4.3773,8.4478,8.0932,14.0398,11.1533,1.2329.6743,2.4937,1.2882,3.7742,1.8598l-21.1658,7.7518c-2.6489.97-5.1024,2.106-7.3602,3.413-2.2546,1.303-3.7461,3.3867-4.4744,6.2512-.7267,2.8605-.1224,6.9437,1.8207,12.2472,1.9858,5.4219,4.1833,8.9892,6.5858,10.7072,2.4056,1.7132,4.9434,2.3914,7.6115,2.0297,2.6697-.3625,5.2852-1.1512,7.8467-2.3612l29.1057-10.6597c-.1648.7269-.3123,1.4606-.4296,2.2064-.822,5.2208-.151,10.782,2.0129,16.6873,1.9844,5.4219,5.0372,10.2135,9.1586,14.3762,4.1182,4.1611,8.9153,7.462,14.3882,9.8995,5.4696,2.4367,11.3049,3.8192,17.5061,4.1451,6.1979.3244,12.3115-.6137,18.3394-2.8215,5.783-2.1179,10.9663-5.317,15.5504-9.5902,4.584-4.2764,8.2855-9.184,11.1078-14.7268,2.8192-5.5428,4.5809-11.2805,5.2805-17.2056.698-5.9284.0764-11.5428-1.865-16.8439ZM609.6119,245.9203c-.6409,3.9274-2.0671,6.8793-4.2725,8.8596-2.2101,1.9796-4.6254,3.2437-7.2489,3.7906-2.6251.5477-4.8878.6662-6.7863.3561-1.9-.3093-3.9783-1.136-6.228-2.478-2.2515-1.342-4.0785-3.2977-5.4792-5.8664-1.4023-2.5687-1.792-5.7527-1.1719-9.5521.4961-3.0402,1.6282-5.616,3.4058-7.7331,1.7745-2.1155,3.9115-3.6531,6.4078-4.6111s5.1373-1.21,7.9247-.756c3.1642.5159,5.8481,1.6059,8.0487,3.2627,2.1974,1.66,3.7794,3.7366,4.7367,6.2337.9587,2.4963,1.1782,5.3298.6631,8.4939ZM689.5631,278.6565c-1.9017,3.4949-4.2247,5.8091-6.9612,6.9492-2.7396,1.1384-5.4363,1.5328-8.0948,1.1814-2.6569-.3514-4.832-.9874-6.5222-1.908-1.6903-.9199-3.3773-2.3867-5.058-4.3972-1.6805-2.0114-2.7585-4.4608-3.2308-7.3483-.4755-2.8882.2098-6.0214,2.0511-9.4026,1.4724-2.7047,3.3931-4.7614,5.7717-6.1725,2.3723-1.4095,4.8989-2.1545,7.5718-2.2332,2.6729-.0787,5.2471.5565,7.7275,1.9064,2.8159,1.5336,4.9878,3.4487,6.5175,5.7408,1.5264,2.2928,2.3309,4.7756,2.4105,7.4484.0793,2.6729-.6504,5.4196-2.1831,8.2355ZM758.4015,330.4237c-.8729,2.5281-2.5249,4.8392-4.9561,6.9301-3.0164,2.5957-6.0056,3.9385-8.9694,4.0363-2.9655.0954-5.6271-.4905-7.9899-1.7593-2.3611-1.2689-4.1689-2.6331-5.4252-4.0919-1.2545-1.4589-2.3151-3.4281-3.1737-5.9022-.8618-2.4765-1.0032-5.1485-.4229-8.0161.5771-2.87,2.3278-5.5579,5.2454-8.0694,2.3342-2.0082,4.8591-3.2524,7.5829-3.7302,2.7174-.4786,5.3441-.2822,7.8722.5899,2.5266.8721,4.7112,2.3771,6.5525,4.518,2.0908,2.4304,3.4456,4.9911,4.0657,7.675.6154,2.6848.4897,5.2916-.3816,7.8198ZM799.909,402.3747c-.4182,2.4081-1.4104,4.5459-2.978,6.4205-1.5693,1.8723-3.5601,3.2508-5.969,4.1332-2.2897.8387-4.6492,1.0176-7.0771.5422-2.4312-.4778-4.6128-1.4875-6.5447-3.0354-1.9333-1.5463-3.3406-3.5259-4.223-5.9348-.8395-2.2904-1.0096-4.6206-.5104-6.9882.4977-2.3691,1.5216-4.522,3.0687-6.4531,1.5447-1.9313,3.4591-3.3145,5.7441-4.1534l.0216-.008c2.4052-.8791,4.7799-1.1017,7.1245-.6619,2.3453.438,4.4871,1.431,6.4207,2.9781,1.9302,1.5471,3.3406,3.5227,4.223,5.9348.8824,2.4089,1.1146,4.8193.6996,7.2258Z"/>
        </g>
        <path class="cls-63" d="M645.8415,605.0177c-.5299-1.0484-1.1673-1.8978-1.9135-2.5509-.7477-.6517-1.5139-1.173-2.3031-1.5641-.7892-.3896-1.5297-.6617-2.22-.8164-.6918-.1533-1.2475-.2564-1.6686-.3065.2779-.4039.5772-1.004.898-1.8018.3194-.7964.4727-1.7503.4598-2.8617-.0143-1.11-.3466-2.3117-.9997-3.6036-.6703-1.3263-1.6342-2.5151-2.8889-3.5678s-2.7328-1.8505-4.4315-2.3948c-1.6987-.5428-3.5549-.7448-5.5644-.6044-2.0109.1404-4.1164.7648-6.3149,1.8777-1.8849.9525-3.3931,1.9995-4.526,3.141-1.1315,1.143-1.9622,2.2745-2.4893,3.3959-.5299,1.1215-.888,2.147-1.0756,3.0751-.1891.9281-.2693,1.6586-.2392,2.1914.0272.5342.0329.782.0158.7477.0072,1.7488.3724,3.0765,1.0928,3.9832.7219.9066,2.0625,1.4337,4.0219,1.5827,1.9594.0616,3.4131-.3337,4.3627-1.1874.9496-.8522,1.385-2.1785,1.3077-3.9803.0158-.4025.0702-.835.1647-1.2991s.3323-.9238.7147-1.3807c.3839-.4569.994-.8966,1.8319-1.3206.6617-.3352,1.2862-.5285,1.8734-.5844.5844-.0559,1.1014.0344,1.5483.2678.4469.2349.8035.613,1.0685,1.1372.2292.454.2822.8651.1618,1.2318-.1203.3681-.3939.7147-.8221,1.0398-.4268.3266-.9897.6646-1.6872,1.0184-.7677.3881-1.5053.8164-2.2114,1.2819-.7061.4669-1.1401,1.1243-1.3034,1.9737-.1618.8493.1633,2.0768.974,3.681.7949,1.5712,1.5855,2.5523,2.3747,2.9419s1.5755.4526,2.3618.1862,1.5626-.593,2.3303-.9811c.8035-.4053,1.554-.6531,2.2544-.7448.699-.0902,1.3378.0043,1.9164.2807.5772.2779,1.0441.7648,1.3965,1.4624.3008.5944.381,1.2103.2449,1.8491-.1375.6388-.477,1.249-1.0155,1.8276-.54.5801-1.2805,1.1086-2.2229,1.5841-1.2232.6187-2.2573.868-3.1066.7491-.8479-.1189-1.7202-.4999-2.6154-1.143-.719-.6445-1.3463-1.1043-1.882-1.3822-.5342-.2779-1.1-.3753-1.693-.2951-.5944.0816-1.3807.3695-2.3575.8637-.1966.0994-.3591.202-.5412.3027-.6492-1.2708-1.4855-2.4313-2.5153-3.4753-1.3421-1.3607-2.8689-2.4463-4.5819-3.2584s-3.4762-1.2991-5.288-1.4609-3.5163.0745-5.1147.7118c-1.7445.6947-3.1038,1.6686-4.0791,2.919-.2635.3386-.499.6924-.7152,1.0566l-3.7291-9.3581c-.2822-.8121-.6302-1.5798-1.0427-2.2988-.4125-.7204-1.0441-1.1945-1.8935-1.4251-.8493-.2292-2.0911-.0186-3.7268.6331-1.6342.6517-2.7042,1.3506-3.2055,2.0983-.5027.7477-.6775,1.5225-.5256,2.3246.1504.8035.3939,1.6228.7262,2.4578l3.5299,8.8583c-.6939-.2005-1.4198-.362-2.1978-.4594-1.8763-.232-3.9717.0129-6.2849.7362-2.9877.9339-5.4398,2.3976-7.3562,4.39-.5047.5239-.9578,1.0735-1.3718,1.6427-.8282-.5824-1.9286-1.0072-3.3233-1.2618-1.8978-.3337-3.2928-.0659-4.1851.8006-.8923.868-1.4523,2.2172-1.6815,4.0462l-.845,8.2528-4.4344-6.6343c-.2077-.3495-.5572-.7763-1.0456-1.2805-.487-.5027-1.1315-.9066-1.9336-1.2103-.8021-.3051-1.829-.3008-3.0808.0115-1.1387.2836-1.9809.7462-2.5266,1.385-.5457.6417-.8995,1.2833-1.0613,1.9279s-.2707,1.1773-.328,1.5941l-.845,8.0093-5.1877-7.7157c-.8723-1.3936-1.9092-2.1126-3.1081-2.157-1.2003-.043-2.5781.5314-4.135,1.7259-.9969.6918-1.6844,1.3678-2.0639,2.0267s-.487,1.3607-.3223,2.1055c.1661.7448.5328,1.6113,1.1014,2.5967l12.2117,16.7277c.2936.371.6717.8393,1.1372,1.4094.4641.57,1.09,1.0184,1.8777,1.3449.7863.328,1.7861.3409,3.0021.0387,1.2891-.3223,2.1957-.729,2.7185-1.2217.5214-.4927.8393-1.0756.9539-1.7503.1146-.6732.2234-1.4466.3294-2.3189l.8723-7.6541,4.3642,6.3479c.3796.5514.8078,1.0986,1.2862,1.6443.4784.5471,1.0928.9482,1.8419,1.2046s1.7302.2335,2.9462-.0702c1.1759-.2922,2.0267-.7562,2.5552-1.3922.5256-.6345.8608-1.312,1.004-2.0338.1418-.7204.2521-1.332.328-1.8348l1.1292-7.6378c.2773.4722.5727.9425.9047,1.4087,1.0971,1.5426,2.4721,2.8646,4.1278,3.9646,1.6557,1.1014,3.5965,1.8061,5.8237,2.1126,2.2272.3079,4.7409.0243,7.541-.8508,2.4993-.782,4.5475-1.6371,6.1431-2.5652,1.5941-.9296,2.7314-1.9092,3.4131-2.9419.0111-.0167.0161-.034.0269-.0508.3606.2916.7881.51,1.3009.6352.8852.2148,2.147-.0029,3.7812-.6546,1.4896-.593,2.5022-1.249,3.0364-1.968.3932-.5265.6051-1.1437.6438-1.8476.4712.1478.95.2731,1.4445.3523,1.6199.2607,3.3186.0358,5.1004-.6746,1.6342-.6503,3.0565-1.65,4.2682-2.9949,1.2103-1.3449,2.1499-2.8989,2.8173-4.6592.2822-.7448.4941-1.5106.6614-2.2895,1.2232.7357,2.5742,1.2874,4.0638,1.6364,1.8634.4383,3.7927.5486,5.7864.3294,1.9923-.2191,3.9316-.8049,5.8165-1.7574,2.7228-1.3764,4.8741-3.1439,6.4567-5.3023,1.5827-2.157,2.5122-4.4788,2.7901-6.9652.2779-2.4836-.1919-4.9314-1.4094-7.339ZM579.879,626.5234c.1862-.6517.5586-1.2604,1.12-1.8262.5615-.5643,1.2891-.9868,2.1857-1.2661.6717-.2105,1.2762-.3079,1.8147-.2908.5371.0158.9983.1475,1.3836.3967.3853.2478.6546.6159.8049,1.1.1404.4483.1246.8221-.0487,1.1229-.1733.2993-.5199.5314-1.0427.6947l-6.2705,1.9594c-.1504-.6073-.1332-1.2389.053-1.8906ZM594.02,631.3531c-.2979.0931-.5915.2363-.8794.4283-.2879.1934-.6044.4254-.9496.6975s-.729.5557-1.1487.8493c-.4197.2965-.9324.5901-1.5383.8809-.6059.2922-1.3191.5658-2.1398.8221-.8207.2578-1.6242.3767-2.4091.3538-.7849-.0201-1.4781-.1719-2.0797-.4555-.6001-.2836-1.0685-.7004-1.4051-1.2518l11.9266-3.7282c.5944-.1856,1.105-.4541,1.5753-.7622l.8721,2.1888c-.6187-.1949-1.2264-.21-1.8244-.023ZM612.0138,621.7138c-.1246.7448-.4139,1.418-.8694,2.0195-.454.603-1.0456,1.0484-1.7717,1.3378-.6904.275-1.3993.348-2.1241.2148-.7262-.1303-1.3907-.424-1.9923-.8794-.603-.454-1.0413-1.0269-1.3163-1.7173-.2893-.7262-.3781-1.448-.2635-2.1685.1132-.7176.3967-1.3793.8522-1.9809.454-.6016,1.0441-1.0484,1.7717-1.3378.7262-.2893,1.4581-.381,2.1957-.275s1.3965.391,1.9809.8522c.5844.4626,1.0212,1.057,1.3105,1.7832.275.6904.3495,1.4079.2263,2.1513Z"/>
        <path class="cls-52" d="M541.9024,664.9024c1.2135-4.3462,3.6284-10.109,8.9225-13.6224,6.6398-4.4065,10.8948-.6866,22.0775-3.3776,13.5648-3.2641,12.7042-10.037,26.3212-12.3948,3.9977-.6922,8.1407-.9338,13.2113-3.8264,2.7653-1.5775,5.2991-3.7774,7.9408-6.9459,3.8356-4.2386,8.1958-8.6078,13.8455-10.2833,10.5392-3.1256,23.7438,5.5845,29.1813,9.9504"/>
        <path class="cls-61" d="M528.9024,347.9024c8.0094-10.4959,21.1372-15.2247,33-12,13.7144,3.7281,19.2957,16.3351,20,18"/>
        <path class="cls-61" d="M341.9024,486.9024c8.0094-10.4959,21.1372-15.2247,33-12,9.2888,2.525,10.6932,17.4861,20,18,4.8943.2702,7.8181-3.2462,12.5-1.5,3.7816,1.4105,5.8611,5.1917,7,8"/>
        <g class="cls-96">
          <rect class="cls-68" x="418.7358" y="355.7481" width="40.1667" height="16.5906" rx="8.2953" ry="8.2953" transform="translate(-130.2734 329.0652) rotate(-36.1619)"/>
          <g class="cls-103">
            <rect class="cls-44" x="412.8532" y="358.9201" width="35.3641" height="8.2953" rx="4.1476" ry="4.1476" transform="translate(-131.2936 323.9892) rotate(-36.1619)"/>
          </g>
          <rect class="cls-43" x="418.7358" y="355.7481" width="40.1667" height="16.5906" rx="8.2953" ry="8.2953" transform="translate(-130.2734 329.0652) rotate(-36.1619)"/>
        </g>
        <g class="cls-95">
          <rect class="cls-74" x="673.3111" y="677.5292" width="17.0159" height="7.0283" rx="3.5142" ry="3.5142" transform="translate(-218.4869 1024.7679) rotate(-65.8636)"/>
          <g class="cls-87">
            <rect class="cls-33" x="671.0754" y="680.6661" width="14.9814" height="3.5142" rx="1.7571" ry="1.7571" transform="translate(-221.6689 1022.6149) rotate(-65.8636)"/>
          </g>
          <rect class="cls-42" x="673.3111" y="677.5292" width="17.0159" height="7.0283" rx="3.5142" ry="3.5142" transform="translate(-218.4869 1024.7679) rotate(-65.8636)"/>
        </g>
        <g class="cls-75">
          <rect class="cls-78" x="637.7358" y="380.7481" width="40.1667" height="16.5906" rx="8.2953" ry="8.2953" transform="translate(-29.5187 723.1803) rotate(-56.5265)"/>
          <g class="cls-89">
            <rect class="cls-69" x="632.0314" y="386.8638" width="35.3641" height="8.2953" rx="4.1476" ry="4.1476" transform="translate(-34.7953 717.3017) rotate(-56.5265)"/>
          </g>
          <rect class="cls-38" x="637.7358" y="380.7481" width="40.1667" height="16.5906" rx="8.2953" ry="8.2953" transform="translate(-29.5187 723.1803) rotate(-56.5265)"/>
        </g>
        <g class="cls-101">
          <rect class="cls-67" x="737.7358" y="452.7481" width="40.1667" height="16.5906" rx="8.2953" ry="8.2953" transform="translate(1003.4535 -391.3148) rotate(74.7605)"/>
          <g class="cls-100">
            <rect class="cls-13" x="744.0065" y="449.5065" width="35.3641" height="8.2953" rx="4.1476" ry="4.1476" transform="translate(999.1765 -400.4952) rotate(74.7605)"/>
          </g>
          <rect class="cls-38" x="737.7358" y="452.7481" width="40.1667" height="16.5906" rx="8.2953" ry="8.2953" transform="translate(1003.4535 -391.3148) rotate(74.7605)"/>
        </g>
        <g class="cls-79">
          <rect class="cls-70" x="629.7358" y="567.7481" width="40.1667" height="16.5906" rx="8.2953" ry="8.2953" transform="translate(292.3612 -215.3571) rotate(24.1364)"/>
          <g class="cls-97">
            <rect class="cls-31" x="628.88" y="564.2168" width="35.3641" height="8.2953" rx="4.1476" ry="4.1476" transform="translate(288.9364 -214.6966) rotate(24.1364)"/>
          </g>
          <rect class="cls-38" x="629.7358" y="567.7481" width="40.1667" height="16.5906" rx="8.2953" ry="8.2953" transform="translate(292.3612 -215.3571) rotate(24.1364)"/>
        </g>
        <g class="cls-107">
          <rect class="cls-70" x="319.7358" y="412.7481" width="40.1667" height="16.5906" rx="8.2953" ry="8.2953" transform="translate(817.8877 167.6563) rotate(100.982)"/>
          <g class="cls-105">
            <rect class="cls-31" x="328.8732" y="411.9766" width="35.3641" height="8.2953" rx="4.1476" ry="4.1476" transform="translate(821.078 155.1872) rotate(100.982)"/>
          </g>
          <rect class="cls-38" x="319.7358" y="412.7481" width="40.1667" height="16.5906" rx="8.2953" ry="8.2953" transform="translate(817.8877 167.6563) rotate(100.982)"/>
        </g>
        <g class="cls-104">
          <rect class="cls-68" x="284.6765" y="554.1801" width="62.2852" height="25.7265" rx="12.8632" ry="12.8632" transform="translate(-227.2572 211.5887) rotate(-27.6785)"/>
          <g class="cls-71">
            <rect class="cls-10" x="275.9183" y="557.2204" width="54.8381" height="12.8632" rx="6.4316" ry="6.4316" transform="translate(-227.1102 205.4027) rotate(-27.6785)"/>
          </g>
          <rect class="cls-12" x="284.6765" y="554.1801" width="62.2852" height="25.7265" rx="12.8632" ry="12.8632" transform="translate(-227.2572 211.5887) rotate(-27.6785)"/>
        </g>
        <g class="cls-92">
          <rect class="cls-68" x="515.6307" y="207.729" width="18.5602" height="11.8469" transform="translate(-40.1884 256.5669) rotate(-26.4904)"/>
          <g class="cls-94">
            <rect class="cls-53" x="526.4984" y="199.4481" width="11.3318" height="20.6033" transform="translate(-37.686 259.3925) rotate(-26.4904)"/>
          </g>
          <rect class="cls-40" x="515.6307" y="207.729" width="18.5602" height="11.8469" transform="translate(-40.1884 256.5669) rotate(-26.4904)"/>
        </g>
        <g class="cls-88">
          <rect class="cls-67" x="377.9024" y="523.9024" width="18.0167" height="11.5"/>
          <g class="cls-84">
            <rect class="cls-7" x="389.4024" y="519.4024" width="11" height="20"/>
          </g>
          <rect class="cls-32" x="377.9024" y="523.9024" width="18.0167" height="11.5"/>
        </g>
        <g class="cls-80">
          <rect class="cls-81" x="506.9024" y="652.9024" width="18.0167" height="11.5" transform="translate(1078.8511 39.7137) rotate(80.3583)"/>
          <g class="cls-102">
            <rect class="cls-56" x="511.9957" y="656.4893" width="11" height="20" transform="translate(1087.8968 44.6755) rotate(80.3583)"/>
          </g>
          <rect class="cls-32" x="506.9024" y="652.9024" width="18.0167" height="11.5" transform="translate(1078.8511 39.7137) rotate(80.3583)"/>
        </g>
        <g class="cls-93">
          <rect class="cls-74" x="699.9024" y="419.9024" width="18.0167" height="11.5" transform="translate(-114.5947 500.3069) rotate(-36.1619)"/>
          <g class="cls-86">
            <rect class="cls-36" x="709.7154" y="410.735" width="11" height="20" transform="translate(-110.4784 503.0797) rotate(-36.1619)"/>
          </g>
          <rect class="cls-32" x="699.9024" y="419.9024" width="18.0167" height="11.5" transform="translate(-114.5947 500.3069) rotate(-36.1619)"/>
        </g>
        <g class="cls-83">
          <rect class="cls-70" x="285.4956" y="498.1959" width="10.8303" height="6.913" transform="translate(263.5507 -77.602) rotate(27.4054)"/>
          <g class="cls-72">
            <rect class="cls-28" x="291.9386" y="497.7189" width="6.6124" height="12.0226" transform="translate(264.9935 -79.3637) rotate(27.4054)"/>
          </g>
          <rect class="cls-6" x="285.4956" y="498.1959" width="10.8303" height="6.913" transform="translate(263.5507 -77.602) rotate(27.4054)"/>
        </g>
        <path class="cls-48" d="M393.1604,260.1585l3.0743-1.6162c.4066-.2138.8819.1315.8042.5843l-.5871,3.4233c-.0308.1798.0288.3633.1594.4906l2.4871,2.4244c.329.3207.1474.8793-.3072.9454l-3.4371.4994c-.1805.0262-.3366.1396-.4173.3032l-1.5371,3.1146c-.2033.4119-.7907.4119-.994,0l-1.5371-3.1146c-.0807-.1636-.2368-.277-.4173-.3032l-3.4371-.4994c-.4546-.0661-.6361-.6247-.3072-.9454l2.4871-2.4244c.1306-.1273.1902-.3108.1594-.4906l-.5871-3.4233c-.0777-.4528.3976-.7981.8042-.5843l3.0743,1.6162c.1615.0849.3544.0849.5158,0Z"/>
        <path class="cls-51" d="M491.899,263.3268l3.4003.7082c.4497.0937.5968.6624.2489.9624l-2.6304,2.2682c-.1382.1191-.2088.2986-.189.48l.3773,3.4527c.0499.4567-.4455.7723-.8383.5341l-2.97-1.8007c-.156-.0946-.3485-.1063-.5149-.0315l-3.1671,1.4257c-.4189.1886-.8722-.185-.7671-.6322l.7948-3.3811c.0417-.1776-.0066-.3643-.1292-.4994l-2.3346-2.5715c-.3088-.3401-.0935-.8867.3643-.9249l3.4612-.2889c.1818-.0152.3445-.1188.435-.2772l1.7242-3.015c.2281-.3988.8144-.363.9922.0606l1.3443,3.2025c.0706.1682.2195.2909.3981.3281Z"/>
        <path class="cls-11" d="M589.899,205.3268l3.4003.7082c.4497.0937.5968.6624.2489.9624l-2.6304,2.2682c-.1382.1191-.2088.2986-.189.48l.3773,3.4527c.0499.4567-.4455.7723-.8383.5341l-2.97-1.8007c-.156-.0946-.3485-.1063-.5149-.0315l-3.1671,1.4257c-.4189.1886-.8722-.185-.7671-.6322l.7948-3.3811c.0417-.1776-.0066-.3643-.1292-.4994l-2.3346-2.5715c-.3088-.3401-.0935-.8867.3643-.9249l3.4612-.2889c.1818-.0152.3445-.1188.435-.2772l1.7242-3.015c.2281-.3988.8144-.363.9922.0606l1.3443,3.2025c.0706.1682.2195.2909.3981.3281Z"/>
        <path class="cls-66" d="M666.899,301.3268l3.4003.7082c.4497.0937.5968.6624.2489.9624l-2.6304,2.2682c-.1382.1191-.2088.2986-.189.48l.3773,3.4527c.0499.4567-.4455.7723-.8383.5341l-2.97-1.8007c-.156-.0946-.3485-.1063-.5149-.0315l-3.1671,1.4257c-.4189.1886-.8722-.185-.7671-.6322l.7948-3.3811c.0417-.1776-.0066-.3643-.1292-.4994l-2.3346-2.5715c-.3088-.3401-.0935-.8867.3643-.9249l3.4612-.2889c.1818-.0152.3445-.1188.435-.2772l1.7242-3.015c.2281-.3988.8144-.363.9922.0606l1.3443,3.2025c.0706.1682.2195.2909.3981.3281Z"/>
        <path class="cls-5" d="M729.899,292.3268l3.4003.7082c.4497.0937.5968.6624.2489.9624l-2.6304,2.2682c-.1382.1191-.2088.2986-.189.48l.3773,3.4527c.0499.4567-.4455.7723-.8383.5341l-2.97-1.8007c-.156-.0946-.3485-.1063-.5149-.0315l-3.1671,1.4257c-.4189.1886-.8722-.185-.7671-.6322l.7948-3.3811c.0417-.1776-.0066-.3643-.1292-.4994l-2.3346-2.5715c-.3088-.3401-.0935-.8867.3643-.9249l3.4612-.2889c.1818-.0152.3445-.1188.435-.2772l1.7242-3.015c.2281-.3988.8144-.363.9922.0606l1.3443,3.2025c.0706.1682.2195.2909.3981.3281Z"/>
        <path class="cls-21" d="M443.2998,572.9598l17.472,3.6388c2.3109.4813,3.0669,3.4035,1.2792,4.945l-13.5159,11.6547c-.7099.6121-1.0731,1.5344-.9713,2.4662l1.9385,17.7413c.2564,2.3465-2.2892,3.9685-4.3077,2.7447l-15.2609-9.2529c-.8015-.486-1.7909-.5464-2.6456-.1617l-16.274,7.326c-2.1525.969-4.4817-.9509-3.9415-3.2487l4.0842-17.3733c.2145-.9125-.0337-1.8721-.6638-2.5661l-11.9963-13.2136c-1.5867-1.7477-.4806-4.5562,1.8717-4.7525l17.7851-1.4844c.9341-.078,1.7701-.6106,2.2354-1.4243l8.8598-15.4924c1.1718-2.0491,4.1846-1.865,5.0983.3115l6.9076,16.4559c.3628.8643,1.1277,1.4947,2.0453,1.6859Z"/>
        <path class="cls-60" d="M355.899,693.3268l3.4003.7082c.4497.0937.5968.6624.2489.9624l-2.6304,2.2682c-.1382.1191-.2088.2986-.189.48l.3773,3.4527c.0499.4567-.4455.7723-.8383.5341l-2.97-1.8007c-.156-.0946-.3485-.1063-.5149-.0315l-3.1671,1.4257c-.4189.1886-.8722-.185-.7671-.6322l.7948-3.3811c.0417-.1776-.0066-.3643-.1292-.4994l-2.3346-2.5715c-.3088-.3401-.0935-.8867.3643-.9249l3.4612-.2889c.1818-.0152.3445-.1188.435-.2772l1.7242-3.015c.2281-.3988.8144-.363.9922.0606l1.3443,3.2025c.0706.1682.2195.2909.3981.3281Z"/>
        <path class="cls-57" d="M730.1983,571.8252l6.1768,1.2864c.817.1701,1.0842,1.2032.4522,1.7482l-4.7783,4.1203c-.251.2164-.3794.5424-.3434.8719l.6853,6.2721c.0906.8296-.8093,1.403-1.5229.9703l-5.3952-3.2712c-.2834-.1718-.6331-.1932-.9353-.0572l-5.7533,2.5899c-.761.3426-1.5844-.3362-1.3934-1.1485l1.4439-6.142c.0758-.3226-.0119-.6618-.2347-.9072l-4.241-4.6714c-.5609-.6179-.1699-1.6107.6617-1.6801l6.2875-.5248c.3302-.0276.6258-.2159.7903-.5035l3.1322-5.477c.4143-.7244,1.4794-.6593,1.8024.1101l2.442,5.8176c.1283.3056.3987.5284.7231.596Z"/>
        <path class="cls-17" d="M727.899,388.3268l3.4003.7082c.4497.0937.5968.6624.2489.9624l-2.6304,2.2682c-.1382.1191-.2088.2986-.189.48l.3773,3.4527c.0499.4567-.4455.7723-.8383.5341l-2.97-1.8007c-.156-.0946-.3485-.1063-.5149-.0315l-3.1671,1.4257c-.4189.1886-.8722-.185-.7671-.6322l.7948-3.3811c.0417-.1776-.0066-.3643-.1292-.4994l-2.3346-2.5715c-.3088-.3401-.0935-.8867.3643-.9249l3.4612-.2889c.1818-.0152.3445-.1188.435-.2772l1.7242-3.015c.2281-.3988.8144-.363.9922.0606l1.3443,3.2025c.0706.1682.2195.2909.3981.3281Z"/>
        <path class="cls-4" d="M823.899,400.3268l3.4003.7082c.4497.0937.5968.6624.2489.9624l-2.6304,2.2682c-.1382.1191-.2088.2986-.189.48l.3773,3.4527c.0499.4567-.4455.7723-.8383.5341l-2.97-1.8007c-.156-.0946-.3485-.1063-.5149-.0315l-3.1671,1.4257c-.4189.1886-.8722-.185-.7671-.6322l.7948-3.3811c.0417-.1776-.0066-.3643-.1292-.4994l-2.3346-2.5715c-.3088-.3401-.0935-.8867.3643-.9249l3.4612-.2889c.1818-.0152.3445-.1188.435-.2772l1.7242-3.015c.2281-.3988.8144-.363.9922.0606l1.3443,3.2025c.0706.1682.2195.2909.3981.3281Z"/>
        <path class="cls-45" d="M428.899,417.3268l3.4003.7082c.4497.0937.5968.6624.2489.9624l-2.6304,2.2682c-.1382.1191-.2088.2986-.189.48l.3773,3.4527c.0499.4567-.4455.7723-.8383.5341l-2.97-1.8007c-.156-.0946-.3485-.1063-.5149-.0315l-3.1671,1.4257c-.4189.1886-.8722-.185-.7671-.6322l.7948-3.3811c.0417-.1776-.0066-.3643-.1292-.4994l-2.3346-2.5715c-.3088-.3401-.0935-.8867.3643-.9249l3.4612-.2889c.1818-.0152.3445-.1188.435-.2772l1.7242-3.015c.2281-.3988.8144-.363.9922.0606l1.3443,3.2025c.0706.1682.2195.2909.3981.3281Z"/>
        <path class="cls-54" d="M303.899,453.3268l3.4003.7082c.4497.0937.5968.6624.2489.9624l-2.6304,2.2682c-.1382.1191-.2088.2986-.189.48l.3773,3.4527c.0499.4567-.4455.7723-.8383.5341l-2.97-1.8007c-.156-.0946-.3485-.1063-.5149-.0315l-3.1671,1.4257c-.4189.1886-.8722-.185-.7671-.6322l.7948-3.3811c.0417-.1776-.0066-.3643-.1292-.4994l-2.3346-2.5715c-.3088-.3401-.0935-.8867.3643-.9249l3.4612-.2889c.1818-.0152.3445-.1188.435-.2772l1.7242-3.015c.2281-.3988.8144-.363.9922.0606l1.3443,3.2025c.0706.1682.2195.2909.3981.3281Z"/>
        <path class="cls-23" d="M285.899,386.3268l3.4003.7082c.4497.0937.5968.6624.2489.9624l-2.6304,2.2682c-.1382.1191-.2088.2986-.189.48l.3773,3.4527c.0499.4567-.4455.7723-.8383.5341l-2.97-1.8007c-.156-.0946-.3485-.1063-.5149-.0315l-3.1671,1.4257c-.4189.1886-.8722-.185-.7671-.6322l.7948-3.3811c.0417-.1776-.0066-.3643-.1292-.4994l-2.3346-2.5715c-.3088-.3401-.0935-.8867.3643-.9249l3.4612-.2889c.1818-.0152.3445-.1188.435-.2772l1.7242-3.015c.2281-.3988.8144-.363.9922.0606l1.3443,3.2025c.0706.1682.2195.2909.3981.3281Z"/>
        <path class="cls-39" d="M213.899,516.3268l3.4003.7082c.4497.0937.5968.6624.2489.9624l-2.6304,2.2682c-.1382.1191-.2088.2986-.189.48l.3773,3.4527c.0499.4567-.4455.7723-.8383.5341l-2.97-1.8007c-.156-.0946-.3485-.1063-.5149-.0315l-3.1671,1.4257c-.4189.1886-.8722-.185-.7671-.6322l.7948-3.3811c.0417-.1776-.0066-.3643-.1292-.4994l-2.3346-2.5715c-.3088-.3401-.0935-.8867.3643-.9249l3.4612-.2889c.1818-.0152.3445-.1188.435-.2772l1.7242-3.015c.2281-.3988.8144-.363.9922.0606l1.3443,3.2025c.0706.1682.2195.2909.3981.3281Z"/>
        <path class="cls-37" d="M361.899,338.3268l3.4003.7082c.4497.0937.5968.6624.2489.9624l-2.6304,2.2682c-.1382.1191-.2088.2986-.189.48l.3773,3.4527c.0499.4567-.4455.7723-.8383.5341l-2.97-1.8007c-.156-.0946-.3485-.1063-.5149-.0315l-3.1671,1.4257c-.4189.1886-.8722-.185-.7671-.6322l.7948-3.3811c.0417-.1776-.0066-.3643-.1292-.4994l-2.3346-2.5715c-.3088-.3401-.0935-.8867.3643-.9249l3.4612-.2889c.1818-.0152.3445-.1188.435-.2772l1.7242-3.015c.2281-.3988.8144-.363.9922.0606l1.3443,3.2025c.0706.1682.2195.2909.3981.3281Z"/>
        <path class="cls-25" d="M324.899,324.3268l3.4003.7082c.4497.0937.5968.6624.2489.9624l-2.6304,2.2682c-.1382.1191-.2088.2986-.189.48l.3773,3.4527c.0499.4567-.4455.7723-.8383.5341l-2.97-1.8007c-.156-.0946-.3485-.1063-.5149-.0315l-3.1671,1.4257c-.4189.1886-.8722-.185-.7671-.6322l.7948-3.3811c.0417-.1776-.0066-.3643-.1292-.4994l-2.3346-2.5715c-.3088-.3401-.0935-.8867.3643-.9249l3.4612-.2889c.1818-.0152.3445-.1188.435-.2772l1.7242-3.015c.2281-.3988.8144-.363.9922.0606l1.3443,3.2025c.0706.1682.2195.2909.3981.3281Z"/>
        <circle class="cls-59" cx="742.9024" cy="506.9024" r="18.5"/>
        <circle class="cls-47" cx="431.9024" cy="653.9024" r="18.5"/>
        <g>
          <path class="cls-15" d="M949.0761,447.689c11.0635-17.4923-10.2539-42.1119-31.4821-31.149-25.4319,13.1338-30.5825,63.201-30.5825,63.201,0,0,43.8062,24.7845,69.2381,11.6507,21.2282-10.9628,13.4943-42.5974-7.1735-43.7027Z"/>
          <path class="cls-58" d="M893.1224,482.8724c-.1699.12-.34.22-.53.32l-103.2,53.29c-.12-3.61-1.76-6.8199-4.3101-9.03l102.6602-53.02.2599-.13c2.28-1.18,5.08-.28,6.26,2l.3199.62c1.0801,2.09.42,4.64-1.46,5.95Z"/>
          <path class="cls-73" d="M952.03,466.3161c-.1992.8081-.4654,1.5849-.7299,2.3728-.2634.7843.2833-.5786.0335-.0504-.1216.2571-.2351.5178-.3616.7726-.2746.5533-.5759,1.0939-.9032,1.6178-.1759.2816-.3601.5577-.5508.8294-.0931.1326-.676.7975-.1846.2543-.5075.561-.9947,1.1256-1.5474,1.6444-.2797.2626-.5744.5068-.8648.7571-.5777.498.7721-.491-.3022.2082-.5614.3654-1.1226.7213-1.7136,1.0375-.5411.2895-1.0983.5415-1.6566.7954.3004-.1366.6166-.2471.1243-.0618-.3033.1142-.6043.2341-.9081.3474-1.3414.5-2.7059.9193-4.1054,1.2235-.3581.0778-.7174.1498-1.0783.2136.0264-.0047-1.2232.1822-.6602.1111.5756-.0727-.516.0484-.6245.058-.3271.0291-.6545.0525-.9824.0709-1.2439.0699-2.488.0561-3.7311-.0197-2.354-.1435-4.6043,2.1723-4.5,4.5.1147,2.5608,1.9783,4.3462,4.5,4.5,6.3344.3862,12.9507-1.0436,18.504-4.153,5.4947-3.0766,9.4227-8.5577,10.9214-14.6368.5625-2.2817-.7296-4.9858-3.143-5.5355-2.3248-.5295-4.9328.698-5.5355,3.143h0Z"/>
        </g>
        <circle class="cls-73" cx="639.9024" cy="623.9024" r="3"/>
      </g>
    </g>
  </g>
</svg>