<?xml version="1.0" encoding="UTF-8"?>
<svg xmlns="http://www.w3.org/2000/svg" viewBox="0 0 1024 1024">
  <defs>
    <style>
      .cls-1, .cls-2, .cls-3, .cls-4, .cls-5, .cls-6, .cls-7, .cls-8, .cls-9, .cls-10, .cls-11, .cls-12, .cls-13, .cls-14, .cls-15, .cls-16, .cls-17, .cls-18, .cls-19 {
        stroke: #231f20;
      }

      .cls-1, .cls-2, .cls-3, .cls-4, .cls-11, .cls-14, .cls-16, .cls-17, .cls-18 {
        stroke-width: 3px;
      }

      .cls-20, .cls-6, .cls-14 {
        fill: #9474d9;
      }

      .cls-20, .cls-21, .cls-22, .cls-23 {
        stroke-width: 0px;
      }

      .cls-2, .cls-12 {
        fill: #f897da;
      }

      .cls-3, .cls-19 {
        fill: none;
      }

      .cls-4, .cls-21, .cls-15 {
        fill: #03c6fe;
      }

      .cls-5, .cls-6, .cls-7, .cls-8, .cls-10, .cls-12, .cls-13, .cls-15 {
        stroke-miterlimit: 10;
      }

      .cls-5, .cls-22, .cls-18 {
        fill: #fff;
      }

      .cls-7, .cls-9, .cls-11, .cls-23 {
        fill: #fb574d;
      }

      .cls-10, .cls-16 {
        fill: #eac658;
      }

      .cls-13, .cls-17 {
        fill: #01cdaa;
      }

      .cls-19 {
        stroke-width: 10px;
      }
    </style>
  </defs>
  <g id="Layer_2" data-name="Layer 2">
    <path class="cls-3" d="M968.1895,490.9502c-.4551-2.4624-1.7539-4.5288-3.8584-6.1411-1.7789-1.3621-4.3671-2.1253-7.8732-2.3231,1.5173-.0868,2.8871-.4193,4.0636-1.0255,2.7061-1.4004,4.7256-4.5195,6.1719-9.5356l.0371-.1431c1.1982-5.0845,1.0957-8.7852-.3105-11.3135-1.4365-2.5835-4.5186-4.5029-9.4229-5.8677l-17.543-4.8765,16.6084-14.958c3.5928-3.2236,5.4834-6.2188,5.7812-9.1577.3047-3.0122-1.2461-6.4844-4.7529-10.6328-2.7165-3.1636-5.3055-5.0071-7.8651-5.6328,1.0659-1.2407,2.0986-2.8179,3.117-4.7627,2.5166-4.6587,3.2139-8.3184,2.1318-11.188-1.0176-2.6992-3.6074-5.1826-7.916-7.5928l-12.3486-6.3677,6.4502-12.1382c1.5283-2.7754,2.3613-5.1729,2.5488-7.3301.2158-2.4976-.46-4.7524-2.0068-6.7017-1.3359-1.6855-3.4258-3.2588-6.4404-4.8364-3.041-1.5166-5.5986-2.3052-7.8242-2.4121-.1719-.0083-.3428-.0122-.5117-.0122-2.3711,0-4.457.7817-6.2002,2.3223-1.5654,1.3833-3.0156,3.3721-4.4238,6.0659l-6.4688,12.2178-12.2939-6.3379c-.5354-.2802-1.0501-.5213-1.5606-.7538.4609-.6371.8445-1.2972,1.128-1.9893,1.2617-3.0796.8662-6.9062-1.209-11.6973-1.3506-3.1221-2.8486-5.4043-4.5811-6.9775-.5863-.532-1.2102-.9771-1.8619-1.3541,2.8572-.7081,5.629-1.8064,8.274-3.3032,3.7451-2.1201,6.999-4.9526,9.6709-8.4194,2.6367-3.4224,4.6318-7.2334,5.9307-11.3286,1.2969-4.0967,1.8584-8.2686,1.667-12.4004-.1982-4.2529-1.3105-8.1978-3.3066-11.7236-2.1855-3.8643-4.9785-6.8018-8.3008-8.7324-.002-.002-.0049-.0034-.0078-.0049.1689-1.0483.1836-2.1489.043-3.293-.2979-2.4023-1.2578-5.0493-2.8525-7.8672-2.1113-3.7319-4.2656-6.0566-6.585-7.1064-1.3779-.6245-2.7695-.9414-4.1387-.9414-1.0195,0-2.0303.1763-3.0029.5225-1.7158.6084-3.4531,1.4087-5.165,2.3779l-7.0312,3.9787c1.1696-1.8668,2.1595-3.838,2.9473-5.9177,2.1924-5.7905,2.8857-11.8296,2.0596-17.9502-.832-6.1577-3.3164-11.8911-7.3828-17.0396-2.9795-3.7754-6.5732-6.7896-10.6807-8.959-4.0615-2.146-8.4219-3.5044-12.9609-4.0376-1.418-.1665-2.8535-.251-4.2666-.251-3.1133,0-6.2539.4097-9.3359,1.2168-.8563.2242-1.6989.4935-2.534.7856,1.0275-2.2446,1.8123-4.585,2.326-7.0204,1.2773-6.0581,1.0361-12.1318-.7188-18.0537-1.7686-5.9585-5.1025-11.2427-9.9092-15.7051-3.5273-3.2749-7.541-5.7017-11.9287-7.2134-3.9014-1.3457-7.9512-2.0283-12.0381-2.0283-.4619,0-.9248.0088-1.3896.0259-4.5713.1704-9.0439,1.1938-13.2939,3.042-.827.3596-1.6328.7629-2.427,1.1885.6877-2.4032,1.116-4.8648,1.2532-7.3804.3369-6.1831-.8291-12.1484-3.4668-17.7314-2.6572-5.6177-6.7588-10.3306-12.1914-14.0083-3.9854-2.6963-8.3223-4.4819-12.8906-5.3071-2.1934-.3965-4.416-.5972-6.6055-.5972-2.3184,0-4.6631.2251-6.9697.6694-4.4902.8652-8.7539,2.5596-12.6748,5.0361-3.9531,2.4971-7.3467,5.8159-10.0869,9.8647-1.6823,2.4852-2.9958,5.0521-3.9584,7.6732-.1815-.1981-.3732-.3875-.5787-.5648-1.1016-.9478-2.2422-1.7261-3.3896-2.314-.0889-.0454-.1719-.0884-.251-.1299.2285-.4839.5264-1.0835.9004-1.8125l24.1006-46.9966c.9365-1.8276,1.6875-3.6929,2.2334-5.5459.71-2.4214.4668-4.8481-.7246-7.2148-1.1465-2.2739-3.5928-4.3481-7.4795-6.3423-3.2734-1.6777-5.9785-2.4937-8.2686-2.4937-.4336,0-.8594.0298-1.2617.0884-2.6641.3848-4.7969,1.5742-6.3389,3.5352-1.1689,1.4868-2.2393,3.1709-3.1807,5.0059l-11.705,22.8267c.6509-1.3747,1.0054-2.7219,1.036-4.0542.0664-3.0449-1.7061-6.3101-5.4199-9.9824l-.1084-.1021c-3.8643-3.458-7.1406-5.1387-10.085-5.1387-2.9561.0264-6.1162,1.8145-9.6602,5.4678l-12.6738,13.0728-5.1914-21.7402c-1.1113-4.6958-2.8359-7.7891-5.2754-9.459-1.54-1.0508-3.5127-1.5615-6.0303-1.5615-1.6055,0-3.4746.2178-5.5791.6514-4.958,1.0601-8.1396,2.8735-9.7266,5.543-1.5498,2.6084-1.7852,6.123-.7139,10.7671l9.4512,39.5908-5.7069,5.8864c-4.2922-1.3867-8.6163-2.7024-12.9714-3.9446,1.2561-1.7528,2.2723-4.3528,3.0904-7.9134.9336-4.0547,1.041-6.9507.3379-9.1143-.7695-2.3682-2.0879-4.0337-3.9238-4.9521-1.3027-.6494-2.5996-1.1245-3.8516-1.4116-.0977-.0225-.1895-.0439-.2764-.0645.1045-.5342.248-1.1958.4277-1.978l11.8438-51.4722c.459-2.002.7305-3.9941.8047-5.9238.0947-2.522-.7373-4.8149-2.4717-6.8159-1.6689-1.9233-4.5488-3.335-8.8047-4.3149-2.1455-.4932-3.9814-.7334-5.6133-.7334-1.6367,0-3.0166.2412-4.2188.7378-2.4893,1.0278-4.2646,2.7041-5.2764,4.9814-.7695,1.728-1.3945,3.623-1.8564,5.6318l-7.8173,33.9772c-.1438-1.3981-.388-2.8416-.7638-4.337-.834-3.3037-2.3535-6.5264-4.5176-9.5811-2.1934-3.0913-5.2031-5.7856-8.9463-8.0088-3.7529-2.2246-8.4131-3.6543-13.8516-4.2495-1.6797-.1831-3.3477-.2764-4.96-.2764-5.0771,0-9.876.9214-14.2646,2.7383-5.8232,2.4131-10.6445,6.1636-14.332,11.1475-3.6797,4.9736-5.9277,11.0049-6.6836,17.9248-.4141,3.7896-.1826,7.8208.6885,11.9824.8828,4.2153,2.5654,8.2695,5,12.0488,1.2866,2.0001,2.8466,3.8503,4.6552,5.545-7.5622-.4319-15.1793-.6586-22.8497-.6586-1.8174,0-3.6315.0143-5.4431.0388.0739-.1506.1658-.2856.2347-.4403l19.8354-42.252c1.8623-4.0732,2.3613-7.6987,1.4844-10.7764-.9463-3.3198-3.7549-5.9565-8.5635-8.0503-3.2764-1.458-6.0283-2.1665-8.4121-2.1665-.9268,0-1.8076.1108-2.6191.3291-3.1851.8594-5.7417,3.8628-7.8184,9.1885l-7.8716,20.3423-9.6562-19.5605c-2.4307-4.9141-5.1709-7.6338-8.3784-8.3145-.6196-.1309-1.2773-.1978-1.9546-.1978-2.5771,0-5.5459.9365-9.0532,2.8506-4.457,2.3833-7.0957,5.2485-7.8413,8.5156-.7183,3.1406.0977,6.8052,2.4414,10.9189l23.4829,40.2324c.0876.1575.1838.3056.2763.4577-9.7834.7321-19.4664,1.8237-29.038,3.2566.8984-.9567,1.7595-1.9606,2.5707-3.0224,2.7979-3.6606,4.833-7.8931,6.0488-12.5781,1.2314-4.7383,1.2896-9.916.1724-15.3896-1.314-6.436-4.1182-12.0327-8.3345-16.6333-4.1836-4.5654-9.2637-7.9033-15.0991-9.9214-3.5645-1.2319-7.2876-1.8564-11.0669-1.8564-2.4399,0-4.9536.2607-7.4712.7749-4.7158.9619-9.0259,2.8135-12.8091,5.5024-3.7441,2.6587-6.9209,5.9404-9.4419,9.7544-2.5215,3.8154-4.2925,8.0479-5.2642,12.5811-.9785,4.5723-.9795,9.3188-.0024,14.1108.6016,2.9432,1.5187,5.6783,2.7192,8.1989-.085-.0032-.1697-.0128-.2549-.0128-.1875,0-.3745.0078-.5693.0244-1.4487.1245-2.8027.3945-4.0225.8013-.0928.0312-.1826.0605-.2695.0889-.1899-.5137-.4121-1.1533-.6646-1.9111l-16.7036-50.1045c-.6494-1.9482-1.4556-3.79-2.3975-5.4771-1.2324-2.2017-3.1362-3.7261-5.6606-4.5317-.8774-.2798-1.8672-.4214-2.9419-.4214-1.916,0-4.1475.4336-6.8218,1.3252-4.1313,1.3774-6.8765,3.0532-8.3916,5.125-1.5879,2.1724-2.23,4.5278-1.9087,6.9985.2417,1.8726.6958,3.8164,1.3496,5.7764l17.1689,51.4995c1.4751,4.4282,3.0195,8.0908,4.5884,10.8843,1.6719,2.9839,3.562,5.3076,5.6196,6.9087.6964.5413,1.427,1.0093,2.1835,1.4177C224.864,197.3517,117.505,342.1345,117.505,511.995c0,125.72,58.81,237.71,150.41,309.95-12.42,5.24-21.14,17.53-21.14,31.87,0,19.1,15.48,34.58,34.57,34.58,18.91,0,34.27-15.17,34.57-34.01,57.76,33.15,124.7,52.11,196.08,52.11,206.0623,0,375.2173-157.9803,392.9611-359.4329,2.0776,1.3466,5.094,2.0222,9.2265,2.0453l.2256.001c4.2051,0,7.2637-.6689,9.3545-2.0439,2.25-1.4824,3.7002-3.5576,4.1934-6.0059.373-1.8613.5674-3.8467.5781-5.8994l.0498-8.8496,15.7676,17.3369c1.1924,1.3164,2.7314,2.3643,4.5752,3.1152,1.7764.7207,3.6533,1.0918,5.6689,1.1025,3.8008,0,7.0957-1.375,9.7969-4.0918,2.6973-2.7217,4.0762-6.0381,4.0986-9.8584l.208-37.1289c.0117-1.9712-.1602-3.9336-.5098-5.835ZM420.4038,95.605c.4097-1.1802,1.0435-2.1421,1.936-2.9399.875-.7822,1.9043-1.2856,3.146-1.5391.7065-.144,1.3892-.2173,2.0283-.2173.7261,0,1.4204.0947,2.0601.2798,1.1465.3345,2.0723.9097,2.8315,1.7588.7705.8618,1.313,2.041,1.6118,3.5049.3633,1.7812.2734,3.2158-.2651,4.2612-.6274,1.2129-1.415,2.1104-2.4102,2.7456-1.1182.7153-2.1079,1.1646-2.9409,1.3345-.3506.0718-.751.1079-1.1899.1079h-.0005c-.5825,0-1.2397-.064-1.9551-.1904-1.1152-.1963-2.1475-.7119-3.1572-1.5771-.8887-.7607-1.5171-2.0195-1.8687-3.7412-.2856-1.396-.229-2.6338.1738-3.7876ZM405.3399,125.7104c1.1502.8604,2.3471,1.6567,3.601,2.3687,1.3.7386,2.6284,1.3917,3.9763,1.9745-2.2637.5855-4.5176,1.1951-6.7653,1.8196.1177-1.6777-.1386-3.7039-.812-6.1628ZM903.5996,424.9092c.1143.0034.2266.0054.3379.0054,2.3994,0,4.5137-.8276,6.2832-2.4609,1.5264-1.4092,2.9531-3.4014,4.3555-6.0752l6.5-12.231,12.2656,6.3477c2.0484,1.072,3.8638,1.8019,5.5042,2.2159-.3542.2862-.7099.5798-1.0715.9008l-30.2471,27.2373-7.8407-2.1795c-1.0136-5.392-2.1326-10.7468-3.3632-16.059,2.8235,1.4694,5.2123,2.2285,7.2762,2.2985ZM896.2578,391.3042l-5.4335,10.2687c-1.5277-5.2499-3.1573-10.4564-4.8948-15.6134l10.3283,5.3447ZM875.2998,301.6089c.5-.894,1.167-1.5684,2.041-2.0625.918-.5195,1.8193-.772,2.7559-.772l.1182.0015c1.0273.021,1.9883.2896,2.9336.8188.8984.5049,1.5947,1.2085,2.1279,2.1519.5459.9644.8076,1.9351.8008,2.9644-.0078,1.0269-.2666,1.9565-.7871,2.8403-.5244.8872-1.248,1.584-2.2148,2.1309-.8213.4648-1.6846.6909-2.6406.6909l-.1797-.0024c-1.0986-.0332-2.0947-.3096-3.0508-.8472-.8945-.5005-1.5889-1.2031-2.123-2.1475-.4873-.8613-.7041-1.7539-.6611-2.7285.0469-1.0757.334-2.0674.8799-3.0386ZM872.3428,337.3774c1.1497.2998,2.3195.5231,3.4977.6995-.0441.0189-.0861.0347-.1305.054-3.2361,1.4005-5.5824,3.0259-7.1332,4.9094-1.4342-3.0214-2.9053-6.0219-4.4135-9.0005,2.5402,1.4578,5.2771,2.5802,8.1794,3.3377ZM837.1445,248.2524c.2793-1.1353,1.1201-2.2632,2.5-3.3535,1.1162-.8823,2.2471-1.3892,3.459-1.5498.3389-.0449.6777-.0679,1.0049-.0679.8682,0,1.6836.1543,2.4922.4717,1.0908.4287,2.0049,1.1216,2.791,2.1167.9541,1.2075,1.5547,2.4468,1.7842,3.6782.2178,1.1748.1221,2.2607-.2949,3.3203-.4219,1.0762-1.2314,2.0913-2.4043,3.0176-1.4131,1.1162-2.7236,1.6821-3.9238,1.6821-1.3643-.0137-2.5205-.3125-3.5352-.9136-1.1426-.6777-1.9893-1.3594-2.5156-2.0259-.5234-.6631-.9756-1.6201-1.3438-2.8447-.3262-1.0859-.3311-2.2407-.0137-3.5312ZM838.2256,285.3076c2.0527.3848,4.1572.5801,6.2549.5801.0963,0,.1942-.0073.2906-.0081l-6.8117,3.8545c-1.2397-1.8145-2.4918-3.6198-3.7608-5.4124,1.3129.3938,2.6537.7285,4.027.9858ZM808.9818,252.3316c-4.4543-5.0901-9.0365-10.0654-13.7433-14.9194,1.3293.1806,2.676.3011,4.0417.3437.3564.0112.7119.0166,1.0674.0166,3.797,0,7.6098-.6549,11.3552-1.9387-1.6282,3.8188-2.5539,7.8149-2.7565,11.9031-.0771,1.5458-.0599,3.0781.0355,4.5948ZM792.5293,201.3037c.0996-1.1641.7568-2.4072,1.9521-3.6948.9697-1.0444,2.0098-1.7192,3.1807-2.063.6846-.2012,1.3682-.3032,2.0332-.3032.4932,0,.9932.0562,1.4863.166,1.1436.2563,2.1533.8008,3.082,1.6626,1.127,1.0474,1.9111,2.1802,2.3281,3.3628.3955,1.1255.4668,2.2129.2178,3.3242-.2529,1.1294-.8965,2.2573-1.9121,3.3516-1.2373,1.3325-2.4561,2.0942-3.6221,2.2642-.415.0601-.8223.0908-1.21.0908-.8721,0-1.6631-.1475-2.4219-.4517-1.2334-.4937-2.1748-1.0376-2.7969-1.6162-.6182-.5737-1.2119-1.4507-1.7646-2.605-.4883-1.0215-.6699-2.1606-.5527-3.4883ZM764.584,205.123c.1583,1.5086.4045,2.9897.7216,4.4447-5.1819-4.3447-10.477-8.5583-15.8804-12.6365,1.3356-.0255,2.6892-.1064,4.0416-.2725,4.1493-.5092,8.1942-1.8029,12.0466-3.8344-1.046,4.0607-1.3608,8.1899-.9294,12.2987ZM742.5918,157.7153c.7988-1.1797,1.7236-2.0054,2.8291-2.5249.9834-.4629,1.96-.688,2.9854-.688.1562,0,.3135.0054.4736.0161,1.168.0781,2.2471.4614,3.2969,1.1724,1.2754.8628,2.2227,1.8623,2.8145,2.9639.5635,1.0562.7998,2.1211.7236,3.2568-.0771,1.1523-.541,2.3638-1.3809,3.604-1.0176,1.5044-2.1045,2.4434-3.2305,2.7891-.7744.2378-1.5283.3579-2.2393.3579-.4756,0-.9482-.0537-1.4062-.1602-1.2939-.2993-2.3076-.6934-3.0107-1.1694-.6992-.4731-1.4189-1.2485-2.1416-2.3062-.6396-.9351-.9932-2.0337-1.0801-3.3608-.0781-1.1665.3818-2.4961,1.3662-3.9507ZM713.3716,165.512c.1893,1.4118.4557,2.8121.8208,4.1941.392,1.4866.8686,2.9319,1.4136,4.3394-2.0198-1.2194-4.0516-2.4207-6.0948-3.6047,1.2906-1.0862,2.567-2.7153,3.8605-4.9288ZM695.2393,112.8491c1.4927-1.526,2.6213-2.998,3.4249-4.4369l-12.6476,24.6649c-2.1309,4.1533-3.666,7.8198-4.5635,10.895-.9609,3.2827-1.2979,6.2593-1.001,8.8452.1025.8998.2849,1.772.5323,2.6191-6.2113-2.9489-12.5106-5.7421-18.8953-8.3707l33.1501-34.2166ZM587.2549,100.2153c.8309-.7159,1.5673-1.5384,2.2215-2.451l-1.0106,4.3924c-1.031,4.4813-1.6163,8.3583-1.744,11.5318-.0198-.173-.0199-.3385-.046-.5137-.1729-1.1841-.5361-2.4648-1.0469-3.7236-.9082-2.4551-2.0869-4.416-3.5059-5.8296-.1426-.1421-.2881-.2793-.4355-.4111,2.0342-.5552,3.8975-1.5562,5.5674-2.9951ZM557.8877,83.0098c.79-.3125,1.6895-.4707,2.6719-.4707.3652,0,.75.022,1.1436.0649,1.1201.1221,2.0488.3545,2.7568.689.5186.2461.8799.5293,1.1045.8682.0898.1353.1758.3276.1436.7231-.0977-.0029-.2002-.0112-.3076-.0229l-9.0996-.9946c.4453-.3291.9717-.6133,1.5869-.8569ZM565.6318,102.5103c-.2051.0122-.415.022-.6289.0298-.2588.0098-.5254.0142-.7988.0142-1.0605,0-2.2539-.0718-3.5498-.2139-1.1104-.1211-2.1494-.3599-3.1035-.7134l8.0811.8833ZM586.7523,116.7033c.1287,2.2289.5072,4.2329,1.1599,5.9578.3184.8408.723,1.6234,1.1663,2.3785-2.1016-.4163-4.2083-.8186-6.3217-1.2014,2.2802-1.8167,3.6518-4.2595,3.9955-7.1349ZM945.1172,484.6777c-2.1855,1.5908-3.5381,3.6509-4.0205,6.1196-.3721,1.8887-.5654,3.8501-.5762,5.8286l-.0293,5.2666-15.7783-17.8125c-1.3555-1.478-2.9355-2.585-4.6953-3.2896-1.6865-.6763-3.4766-1.0244-5.4102-1.0356-3.4665,0-6.5391,1.1553-9.1567,3.4086-.3452-4.7791-.7766-9.5342-1.2905-14.2646l45.8555,12.7291c1.5066.4263,2.8726.6898,4.146.8122-4.0668.0437-7.0356.7726-9.0444,2.2376Z"/>
    <circle class="cls-4" cx="612.9881" cy="839.0822" r="34.5618"/>
    <circle class="cls-2" cx="563.4516" cy="872.7192" r="30.4283"/>
    <circle class="cls-14" cx="494.2643" cy="866.6812" r="38.759"/>
    <circle class="cls-11" cx="623.0916" cy="783.4201" r="18.0828"/>
    <circle class="cls-11" cx="545.4461" cy="755.4239" r="10.9831"/>
    <circle class="cls-11" cx="117.3289" cy="775.7924" r="10.9831"/>
    <circle class="cls-4" cx="55.0025" cy="673.1956" r="10.9831"/>
    <circle class="cls-14" cx="641.9655" cy="734.0041" r="22.2815"/>
    <circle class="cls-4" cx="469.5292" cy="778.1422" r="22.2815"/>
    <circle class="cls-17" cx="411.1782" cy="740.8518" r="29.657"/>
    <circle class="cls-18" cx="365.888" cy="822.201" r="54.8333"/>
    <circle class="cls-11" cx="435.5679" cy="819.0172" r="19.2314"/>
    <circle class="cls-2" cx="437.0815" cy="860.1941" r="19.2314"/>
    <circle class="cls-16" cx="447.2477" cy="881.4913" r="19.2314"/>
    <circle class="cls-11" cx="409.5832" cy="877.4255" r="14.8007"/>
    <circle class="cls-14" cx="668.7113" cy="828.8142" r="19.8908"/>
    <circle class="cls-17" cx="655.6597" cy="861.1788" r="16.8077"/>
    <circle class="cls-17" cx="694.5299" cy="780.8582" r="16.8077"/>
    <circle class="cls-17" cx="460.6946" cy="483.4458" r="16.8077"/>
    <circle class="cls-18" cx="768.7872" cy="708.1892" r="16.8077"/>
    <circle class="cls-18" cx="609.2323" cy="877.6897" r="16.1532"/>
    <circle class="cls-14" cx="736.2304" cy="770.5088" r="16.8077"/>
    <circle class="cls-4" cx="745.0931" cy="806.9235" r="18.349"/>
    <circle class="cls-16" cx="820.4537" cy="780.8582" r="64.8159"/>
    <circle class="cls-11" cx="796.27" cy="574.5952" r="23.2048"/>
    <circle class="cls-2" cx="761.6837" cy="858.5281" r="18.9836" transform="translate(-322.9765 1233.6878) rotate(-67.5)"/>
    <circle class="cls-14" cx="389.6294" cy="655.8045" r="18.9836"/>
    <circle class="cls-11" cx="207.075" cy="834.1138" r="18.9836"/>
    <circle class="cls-14" cx="190.578" cy="793.1751" r="26.6825"/>
    <circle class="cls-2" cx="341.5256" cy="684.55" r="30.011"/>
    <circle class="cls-17" cx="200.8343" cy="648.4631" r="38.8993"/>
    <circle class="cls-1" cx="229.8543" cy="733.0069" r="35.6333"/>
    <circle class="cls-16" cx="269.6864" cy="749.3029" r="23.0895"/>
    <circle class="cls-11" cx="268.1229" cy="792.6582" r="23.0895"/>
    <circle class="cls-11" cx="330.1227" cy="727.798" r="23.0895"/>
    <circle class="cls-2" cx="289.7426" cy="644.8992" r="23.0895"/>
    <circle class="cls-18" cx="288.5771" cy="536.9919" r="20.7951"/>
    <circle class="cls-1" cx="302.0382" cy="595.9472" r="16.6203"/>
    <circle class="cls-11" cx="243.7771" cy="574.3067" r="35.4035"/>
    <circle class="cls-14" cx="252.1068" cy="597.2028" r="13.2644"/>
    <circle class="cls-4" cx="227.7461" cy="606.5182" r="13.2644"/>
    <circle class="cls-4" cx="414.0921" cy="389.5554" r="13.2644"/>
    <circle class="cls-11" cx="258.1819" cy="623.7316" r="7.1893"/>
    <circle class="cls-11" cx="247.9834" cy="519.6144" r="7.1893"/>
    <circle class="cls-11" cx="274.2064" cy="490.6351" r="7.1893"/>
    <circle class="cls-16" cx="188.5528" cy="591.0415" r="18.5223"/>
    <circle class="cls-18" cx="152.406" cy="623.2373" r="18.5223"/>
    <circle class="cls-11" cx="144.2107" cy="593.8392" r="18.5223"/>
    <circle class="cls-11" cx="150.4896" cy="419.9016" r="15.047"/>
    <circle class="cls-16" cx="168.1242" cy="397.144" r="15.047"/>
    <circle class="cls-11" cx="201.0411" cy="402.7448" r="11.1296"/>
    <circle class="cls-14" cx="185.3784" cy="456.8905" r="41.8017"/>
    <circle class="cls-4" cx="201.0411" cy="253.4075" r="51.689"/>
    <circle class="cls-17" cx="201.8751" cy="334.0906" r="41.8017"/>
    <circle class="cls-1" cx="277.5974" cy="278.9855" r="25.1182"/>
    <circle class="cls-11" cx="289.9534" cy="325.5672" r="21.5791"/>
    <circle class="cls-11" cx="374.0033" cy="226.09" r="22.6815"/>
    <circle class="cls-11" cx="385.7161" cy="172.9244" r="22.6815"/>
    <circle class="cls-18" cx="351.3219" cy="177.4667" r="16.7049"/>
    <circle class="cls-18" cx="268.8855" cy="101.9558" r="13.3692"/>
    <circle class="cls-16" cx="226.0438" cy="111.3489" r="13.3692"/>
    <circle class="cls-16" cx="507.4523" cy="400.5053" r="13.3692"/>
    <circle class="cls-17" cx="209.3218" cy="149.0519" r="13.3692"/>
    <circle class="cls-11" cx="310.3461" cy="124.8049" r="13.3692"/>
    <circle class="cls-18" cx="134.169" cy="226.09" r="21.1394"/>
    <circle class="cls-11" cx="135.3299" cy="302.2172" r="21.1394"/>
    <circle class="cls-1" cx="810.7798" cy="486.1086" r="21.1394"/>
    <circle class="cls-4" cx="865.5901" cy="497.6924" r="21.1394"/>
    <circle class="cls-17" cx="879.6487" cy="450.7761" r="16.1191"/>
    <circle class="cls-2" cx="836.5481" cy="356.1848" r="25.1566"/>
    <circle class="cls-14" cx="827.8888" cy="318.7214" r="11.8298"/>
    <circle class="cls-14" cx="508.9917" cy="144.5805" r="11.8298"/>
    <circle class="cls-11" cx="448.8647" cy="163.7494" r="11.8298"/>
    <circle class="cls-4" cx="429.4504" cy="141.7877" r="8.6241"/>
    <circle class="cls-16" cx="452.0705" cy="140.2077" r="8.6241"/>
    <circle class="cls-18" cx="422.7162" cy="164.4915" r="8.6241"/>
    <circle class="cls-17" cx="411.6748" cy="150.4118" r="8.6241"/>
    <circle class="cls-2" cx="556.7998" cy="187.684" r="8.6241"/>
    <circle class="cls-1" cx="379.5171" cy="273.3429" r="8.6241"/>
    <circle class="cls-11" cx="681.0915" cy="857.9468" r="8.6241"/>
    <circle class="cls-4" cx="815.9995" cy="637.7876" r="8.6241"/>
    <circle class="cls-11" cx="875.5319" cy="579.719" r="8.6241"/>
    <circle class="cls-1" cx="847.5158" cy="665.0691" r="8.6241"/>
    <circle class="cls-16" cx="821.6213" cy="390.8491" r="16.1191"/>
    <circle class="cls-11" cx="271.9232" cy="238.5803" r="17.299"/>
    <circle class="cls-16" cx="338.2514" cy="296.434" r="28.7399"/>
    <circle class="cls-2" cx="316.7424" cy="210.805" r="34.4877"/>
    <circle class="cls-4" cx="283.6631" cy="437.3083" r="26.2637"/>
    <circle class="cls-18" cx="280.4436" cy="392.0525" r="15.0202"/>
    <circle class="cls-11" cx="239.6352" cy="375.964" r="13.5914"/>
    <circle class="cls-1" cx="247.9834" cy="472.9297" r="18.9517"/>
    <circle class="cls-2" cx="224.1789" cy="503.6976" r="21.9164"/>
    <circle class="cls-17" cx="197.4189" cy="532.4104" r="21.9164"/>
    <circle class="cls-18" cx="139.2464" cy="519.6144" r="21.9164"/>
    <circle class="cls-4" cx="157.8672" cy="558.0193" r="27.7612"/>
  </g>
  <g id="Layer_5" data-name="Layer 5">
    <g>
      <path class="cls-9" d="M409.2856,599.1182c-10.752,2.5049-20.2666,4.2256-28.5469,5.1719-8.2812.9414-15.5518.666-21.8145-.8311-6.2617-1.499-11.7578-4.4688-16.4893-8.9111-4.7305-4.4404-8.9092-10.7324-12.5303-18.8857-3.624-8.1475-6.9307-18.6494-9.9258-31.5049l-36.1738-155.2979c-1.252-5.374-1.9707-10.5664-2.1504-15.5771-.1836-5.0039,1.5791-9.6074,5.2871-13.7969,3.7012-4.1885,10.8164-7.5088,21.333-9.959,10.5166-2.4492,18.3008-2.5996,23.3633-.4531,5.0566,2.1494,8.625,5.5674,10.7041,10.2578,2.0742,4.6904,3.7441,9.7246,4.9961,15.0977l35.1943,151.0918c.8164,3.5059,1.5117,6.2422,2.0947,8.1973.5781,1.9619,1.2686,3.3428,2.0723,4.1367.7988.8018,1.8574,1.1094,3.1719.9248,1.3096-.1777,3.1357-.5459,5.4746-1.0908,3.0342-.7061,6.3457-1.0439,9.9258-1.0186,3.5771.0332,7.0732,1.8066,10.4795,5.3203,3.4072,3.5205,6.2803,10.3057,8.6211,20.3525,2.4492,10.5156,2.9658,18.2842,1.5449,23.293-1.4189,5.0137-3.7881,8.3311-7.1025,9.9697-3.3145,1.6318-6.4951,2.8066-9.5293,3.5127Z"/>
      <path class="cls-22" d="M371.5889,619.8359c-5.7544,0-11.1885-.6016-16.1519-1.7881-8.8076-2.1084-16.6348-6.335-23.269-12.5645-6.1807-5.8018-11.5547-13.7871-15.9722-23.7324-4.04-9.084-7.582-20.2695-10.8257-34.1904l-36.1738-155.2983c-1.4668-6.2969-2.3188-12.502-2.5317-18.4424-.3237-8.8257,2.8037-17.2241,9.0449-24.2759,5.8618-6.6338,15.4033-11.4209,29.1616-14.6265,6.7866-1.5806,12.6377-2.3486,17.8887-2.3486,5.6382,0,10.458.8813,14.7339,2.6943,8.5391,3.6299,14.9531,9.8486,18.562,17.9893,2.457,5.5562,4.4375,11.5317,5.8916,17.7725,0,0,35.1992,151.1138,35.2017,151.1245,2.4946-.3203,5.0854-.4805,7.7495-.4805l.48.001c5.3418.0498,13.314,1.8037,21.1431,9.8799,5.4644,5.6465,9.4209,14.3467,12.46,27.3896,3.1069,13.3408,3.5415,23.124,1.3667,30.79-3.2534,11.4951-9.8906,16.8525-14.8853,19.3223-4.3589,2.1465-8.6504,3.7158-12.7778,4.6758-11.2295,2.6162-21.4062,4.4561-30.2432,5.4658-3.7559.4268-7.4048.6426-10.853.6426Z"/>
      <path class="cls-23" d="M409.2856,599.1182c-10.752,2.5049-20.2666,4.2256-28.5469,5.1719-8.2812.9414-15.5518.666-21.8145-.8311-6.2617-1.499-11.7578-4.4688-16.4893-8.9111-4.7305-4.4404-8.9092-10.7324-12.5303-18.8857-3.624-8.1475-6.9307-18.6494-9.9258-31.5049l-36.1738-155.2979c-1.252-5.374-1.9707-10.5664-2.1504-15.5771-.1836-5.0039,1.5791-9.6074,5.2871-13.7969,3.7012-4.1885,10.8164-7.5088,21.333-9.959,10.5166-2.4492,18.3008-2.5996,23.3633-.4531,5.0566,2.1494,8.625,5.5674,10.7041,10.2578,2.0742,4.6904,3.7441,9.7246,4.9961,15.0977l35.1943,151.0918c.8164,3.5059,1.5117,6.2422,2.0947,8.1973.5781,1.9619,1.2686,3.3428,2.0723,4.1367.7988.8018,1.8574,1.1094,3.1719.9248,1.3096-.1777,3.1357-.5459,5.4746-1.0908,3.0342-.7061,6.3457-1.0439,9.9258-1.0186,3.5771.0332,7.0732,1.8066,10.4795,5.3203,3.4072,3.5205,6.2803,10.3057,8.6211,20.3525,2.4492,10.5156,2.9658,18.2842,1.5449,23.293-1.4189,5.0137-3.7881,8.3311-7.1025,9.9697-3.3145,1.6318-6.4951,2.8066-9.5293,3.5127Z"/>
      <path class="cls-19" d="M371.5889,619.8359c-5.7544,0-11.1885-.6016-16.1519-1.7881-8.8076-2.1084-16.6348-6.335-23.269-12.5645-6.1807-5.8018-11.5547-13.7871-15.9722-23.7324-4.04-9.084-7.582-20.2695-10.8257-34.1904l-36.1738-155.2983c-1.4668-6.2969-2.3188-12.502-2.5317-18.4424-.3237-8.8257,2.8037-17.2241,9.0449-24.2759,5.8618-6.6338,15.4033-11.4209,29.1616-14.6265,6.7866-1.5806,12.6377-2.3486,17.8887-2.3486,5.6382,0,10.458.8813,14.7339,2.6943,8.5391,3.6299,14.9531,9.8486,18.562,17.9893,2.457,5.5562,4.4375,11.5317,5.8916,17.7725,0,0,35.1992,151.1138,35.2017,151.1245,2.4946-.3203,5.0854-.4805,7.7495-.4805l.48.001c5.3418.0498,13.314,1.8037,21.1431,9.8799,5.4644,5.6465,9.4209,14.3467,12.46,27.3896,3.1069,13.3408,3.5415,23.124,1.3667,30.79-3.2534,11.4951-9.8906,16.8525-14.8853,19.3223-4.3589,2.1465-8.6504,3.7158-12.7778,4.6758-11.2295,2.6162-21.4062,4.4561-30.2432,5.4658-3.7559.4268-7.4048.6426-10.853.6426Z"/>
    </g>
    <g>
      <path class="cls-9" d="M511.269,729.4355c-10.4961-3.4199-19.5288-6.8701-27.1045-10.3438-7.5732-3.4795-13.6533-7.4766-18.2373-11.998-4.5835-4.5225-7.75-9.9082-9.5-16.1572-1.7505-6.2471-2.0723-13.793-.9512-22.6445,1.1138-8.8467,3.7178-19.5449,7.8066-32.0957l49.3931-151.6133c1.709-5.2461,3.7812-10.0596,6.2188-14.4404,2.4326-4.3779,6.3223-7.4053,11.6641-9.0723,5.334-1.6689,13.1406-.8301,23.4072,2.5156,10.2676,3.3447,17.0068,7.2441,20.2275,11.7002,3.2158,4.4551,4.5,9.2266,3.8535,14.3154-.6523,5.0879-1.8281,10.2588-3.5371,15.5049l-48.0547,147.5068c-1.1152,3.4219-1.9375,6.124-2.4492,8.0977-.5205,1.9785-.6436,3.5176-.3672,4.6133.2695,1.0996,1.0156,1.9102,2.2363,2.4316,1.2129.5254,2.9648,1.1553,5.248,1.8994,2.9629.9648,5.9727,2.3896,9.0215,4.2637,3.0449,1.8789,5.1191,5.2051,6.2148,9.9746,1.0957,4.7754.043,12.0693-3.1523,21.877-3.3438,10.2666-6.9219,17.1816-10.7285,20.7324-3.8086,3.5566-7.5527,5.1699-11.2363,4.8574-3.6816-.3184-7.0098-.96-9.9731-1.9248Z"/>
      <path class="cls-22" d="M522.1396,746.3984c-.7197,0-1.4482-.0312-2.165-.0918-4.832-.418-9.3154-1.2949-13.3496-2.6084-10.9702-3.5742-20.6294-7.2656-28.7124-10.9717-9.1436-4.2012-16.7168-9.2305-22.519-14.9541-6.4448-6.3584-10.9561-14.0264-13.4106-22.791-2.2881-8.165-2.7554-17.7793-1.3882-28.5742,1.2417-9.8613,3.998-21.2666,8.4258-34.8574l49.3931-151.6133c2-6.1392,4.4805-11.8882,7.373-17.0869,4.292-7.7236,11.314-13.293,20.3032-16.0981,3.208-1.0034,6.7822-1.5142,10.6143-1.5142,6.3037,0,13.4707,1.3369,21.9092,4.0869,13.6729,4.4541,22.4873,9.9116,27.7373,17.1753,5.4268,7.5181,7.6992,16.1577,6.5771,24.9927-.7734,6.0298-2.1709,12.1675-4.1553,18.2603,0,0-48.0615,147.5278-48.0654,147.5376,2.4375,1.0781,4.877,2.3652,7.292,3.8496,4.543,2.8037,10.4609,8.4307,12.9795,19.3955,1.7559,7.6514.6406,17.1455-3.5098,29.8818-4.2402,13.0205-8.9307,21.6182-14.7588,27.0547-6.3408,5.9209-13.2637,8.9268-20.5703,8.9268Z"/>
      <path class="cls-21" d="M511.269,729.4355c-10.4961-3.4199-19.5288-6.8701-27.1045-10.3438-7.5732-3.4795-13.6533-7.4766-18.2373-11.998-4.5835-4.5225-7.75-9.9082-9.5-16.1572-1.7505-6.2471-2.0723-13.793-.9512-22.6445,1.1138-8.8467,3.7178-19.5449,7.8066-32.0957l49.3931-151.6133c1.709-5.2461,3.7812-10.0596,6.2188-14.4404,2.4326-4.3779,6.3223-7.4053,11.6641-9.0723,5.334-1.6689,13.1406-.8301,23.4072,2.5156,10.2676,3.3447,17.0068,7.2441,20.2275,11.7002,3.2158,4.4551,4.5,9.2266,3.8535,14.3154-.6523,5.0879-1.8281,10.2588-3.5371,15.5049l-48.0547,147.5068c-1.1152,3.4219-1.9375,6.124-2.4492,8.0977-.5205,1.9785-.6436,3.5176-.3672,4.6133.2695,1.0996,1.0156,1.9102,2.2363,2.4316,1.2129.5254,2.9648,1.1553,5.248,1.8994,2.9629.9648,5.9727,2.3896,9.0215,4.2637,3.0449,1.8789,5.1191,5.2051,6.2148,9.9746,1.0957,4.7754.043,12.0693-3.1523,21.877-3.3438,10.2666-6.9219,17.1816-10.7285,20.7324-3.8086,3.5566-7.5527,5.1699-11.2363,4.8574-3.6816-.3184-7.0098-.96-9.9731-1.9248Z"/>
      <path class="cls-19" d="M522.1396,746.3984c-.7197,0-1.4482-.0312-2.165-.0918-4.832-.418-9.3154-1.2949-13.3496-2.6084-10.9702-3.5742-20.6294-7.2656-28.7124-10.9717-9.1436-4.2012-16.7168-9.2305-22.519-14.9541-6.4448-6.3584-10.9561-14.0264-13.4106-22.791-2.2881-8.165-2.7554-17.7793-1.3882-28.5742,1.2417-9.8613,3.998-21.2666,8.4258-34.8574l49.3931-151.6133c2-6.1392,4.4805-11.8882,7.373-17.0869,4.292-7.7236,11.314-13.293,20.3032-16.0981,3.208-1.0034,6.7822-1.5142,10.6143-1.5142,6.3037,0,13.4707,1.3369,21.9092,4.0869,13.6729,4.4541,22.4873,9.9116,27.7373,17.1753,5.4268,7.5181,7.6992,16.1577,6.5771,24.9927-.7734,6.0298-2.1709,12.1675-4.1553,18.2603,0,0-48.0615,147.5278-48.0654,147.5376,2.4375,1.0781,4.877,2.3652,7.292,3.8496,4.543,2.8037,10.4609,8.4307,12.9795,19.3955,1.7559,7.6514.6406,17.1455-3.5098,29.8818-4.2402,13.0205-8.9307,21.6182-14.7588,27.0547-6.3408,5.9209-13.2637,8.9268-20.5703,8.9268Z"/>
    </g>
    <g>
      <path class="cls-9" d="M803.5244,484.519c-8.5625,6.9688-16.3574,12.6895-23.3809,17.1738-7.0283,4.48-13.6836,7.4229-19.9668,8.8257-6.2852,1.4014-12.5273,1.1445-18.7266-.771-6.1992-1.9146-12.7168-5.7339-19.5469-11.4722-6.832-5.73-14.4121-13.7158-22.7441-23.9531l-100.6543-123.6729c-3.4834-4.2793-6.4082-8.6289-8.7676-13.0527-2.3613-4.416-2.7969-9.3257-1.3047-14.7183,1.4883-5.3872,6.4238-11.4932,14.7988-18.3096s15.3047-10.3672,20.7959-10.6597c5.4873-.2886,10.1924,1.2183,14.1201,4.519,3.9219,3.3052,7.6309,7.0957,11.1133,11.375l97.9287,120.3223c2.2725,2.792,4.0977,4.9463,5.4795,6.4473,1.3789,1.5093,2.6064,2.4463,3.6768,2.8076,1.0693.3701,2.1553.1816,3.2559-.561,1.0986-.7344,2.5781-1.8662,4.4404-3.3823,2.417-1.9668,5.2441-3.7236,8.4727-5.271,3.2285-1.54,7.1484-1.4814,11.751.1816,4.6064,1.668,10.167,6.5039,16.6777,14.5044,6.8164,8.375,10.6885,15.1289,11.6104,20.2524.9248,5.1289.252,9.1489-2.0068,12.0752-2.2627,2.9224-4.6055,5.3726-7.0225,7.3394Z"/>
      <path class="cls-22" d="M752.2324,526.4062c-5.0938,0-10.2119-.7822-15.2109-2.3271-8.1035-2.5029-16.4375-7.3203-24.7676-14.3188-7.6133-6.3857-15.7061-14.8833-24.7285-25.9692l-100.6543-123.6729c-4.084-5.0176-7.5732-10.2202-10.3691-15.4629-4.1611-7.7822-5.0371-16.7012-2.5264-25.7773,2.3594-8.5386,8.832-17.0264,19.7871-25.9429,11.1533-9.0781,20.5166-13.5278,29.4668-14.0049.7168-.0376,1.416-.0557,2.1055-.0557,8.4131,0,16.1807,2.7905,22.4629,8.0703,4.6523,3.9204,9.0537,8.4214,13.0977,13.3906,0,0,97.9414,120.3384,97.9482,120.3462,2.2275-1.4648,4.6309-2.8169,7.1875-4.0425,3.6055-1.7192,7.5078-2.585,11.624-2.585,3.7539,0,7.6924.7354,11.708,2.186,7.3887,2.6758,14.7617,8.7573,23.2148,19.144,8.6436,10.6206,13.3271,19.2207,14.7383,27.064,2.1211,11.7607-1.4912,19.4873-4.8955,23.897-2.9707,3.8369-6.1387,7.1309-9.4287,9.8086-8.9395,7.2749-17.2754,13.3926-24.7764,18.1821-8.4824,5.4062-16.8125,9.0459-24.7705,10.8223-3.7178.8291-7.4883,1.248-11.2129,1.248Z"/>
      <path class="cls-20" d="M803.5244,484.519c-8.5625,6.9688-16.3574,12.6895-23.3809,17.1738-7.0283,4.48-13.6836,7.4229-19.9668,8.8257-6.2852,1.4014-12.5273,1.1445-18.7266-.771-6.1992-1.9146-12.7168-5.7339-19.5469-11.4722-6.832-5.73-14.4121-13.7158-22.7441-23.9531l-100.6543-123.6729c-3.4834-4.2793-6.4082-8.6289-8.7676-13.0527-2.3613-4.416-2.7969-9.3257-1.3047-14.7183,1.4883-5.3872,6.4238-11.4932,14.7988-18.3096s15.3047-10.3672,20.7959-10.6597c5.4873-.2886,10.1924,1.2183,14.1201,4.519,3.9219,3.3052,7.6309,7.0957,11.1133,11.375l97.9287,120.3223c2.2725,2.792,4.0977,4.9463,5.4795,6.4473,1.3789,1.5093,2.6064,2.4463,3.6768,2.8076,1.0693.3701,2.1553.1816,3.2559-.561,1.0986-.7344,2.5781-1.8662,4.4404-3.3823,2.417-1.9668,5.2441-3.7236,8.4727-5.271,3.2285-1.54,7.1484-1.4814,11.751.1816,4.6064,1.668,10.167,6.5039,16.6777,14.5044,6.8164,8.375,10.6885,15.1289,11.6104,20.2524.9248,5.1289.252,9.1489-2.0068,12.0752-2.2627,2.9224-4.6055,5.3726-7.0225,7.3394Z"/>
      <path class="cls-19" d="M752.2324,526.4062c-5.0938,0-10.2119-.7822-15.2109-2.3271-8.1035-2.5029-16.4375-7.3203-24.7676-14.3188-7.6133-6.3857-15.7061-14.8833-24.7285-25.9692l-100.6543-123.6729c-4.084-5.0176-7.5732-10.2202-10.3691-15.4629-4.1611-7.7822-5.0371-16.7012-2.5264-25.7773,2.3594-8.5386,8.832-17.0264,19.7871-25.9429,11.1533-9.0781,20.5166-13.5278,29.4668-14.0049.7168-.0376,1.416-.0557,2.1055-.0557,8.4131,0,16.1807,2.7905,22.4629,8.0703,4.6523,3.9204,9.0537,8.4214,13.0977,13.3906,0,0,97.9414,120.3384,97.9482,120.3462,2.2275-1.4648,4.6309-2.8169,7.1875-4.0425,3.6055-1.7192,7.5078-2.585,11.624-2.585,3.7539,0,7.6924.7354,11.708,2.186,7.3887,2.6758,14.7617,8.7573,23.2148,19.144,8.6436,10.6206,13.3271,19.2207,14.7383,27.064,2.1211,11.7607-1.4912,19.4873-4.8955,23.897-2.9707,3.8369-6.1387,7.1309-9.4287,9.8086-8.9395,7.2749-17.2754,13.3926-24.7764,18.1821-8.4824,5.4062-16.8125,9.0459-24.7705,10.8223-3.7178.8291-7.4883,1.248-11.2129,1.248Z"/>
    </g>
  </g>
  <g id="Layer_6" data-name="Layer 6">
    <circle class="cls-7" cx="708.9761" cy="733.4144" r="10.9831"/>
    <circle class="cls-6" cx="481.7403" cy="716.0423" r="22.2815"/>
    <circle class="cls-5" cx="719.9592" cy="503.5545" r="22.2815"/>
    <circle class="cls-5" cx="256.3495" cy="409.687" r="22.2815"/>
    <circle class="cls-13" cx="574.7083" cy="718.8423" r="29.657"/>
    <circle class="cls-13" cx="624.2246" cy="461.4363" r="16.8077"/>
    <circle class="cls-10" cx="662.4685" cy="317.0461" r="16.8077"/>
    <circle class="cls-6" cx="553.1595" cy="633.795" r="18.9836"/>
    <circle class="cls-15" cx="391.2762" cy="584.5087" r="13.2644"/>
    <circle class="cls-12" cx="289.4225" cy="580.9965" r="13.2644"/>
    <circle class="cls-12" cx="769.8128" cy="351.8535" r="13.2644"/>
    <circle class="cls-12" cx="481.7403" cy="308.9267" r="13.2644"/>
    <circle class="cls-15" cx="577.6222" cy="367.5459" r="13.2644"/>
    <circle class="cls-7" cx="364.5711" cy="380.7353" r="11.1296"/>
    <circle class="cls-8" cx="411.5135" cy="450.9202" r="18.9517"/>
    <circle class="cls-13" cx="360.9489" cy="510.4009" r="21.9164"/>
  </g>
  <g id="Layer_7" data-name="Layer 7">
    <path class="cls-5" d="M627.4929,200.9288c-4.0598-10.1269-21.1602-8.617-23.0281,3.838-2.2378,14.9215,17.5669,32.5767,17.5669,32.5767,0,0,24.1125-11.0689,26.3503-25.9904,1.8679-12.455-14.0373-18.9149-20.8891-10.4244Z"/>
    <path class="cls-12" d="M412.0704,279.2225c-10.0233-4.3094-21.0727,8.8289-13.6059,18.9711,8.9454,12.1507,35.4364,10.6816,35.4364,10.6816,0,0,9.271-24.8592.3256-37.0099-7.4668-10.1422-23.294-3.4937-22.1562,7.3572Z"/>
    <path class="cls-13" d="M684.1119,609.2593c2.5925-10.5979-12.1921-19.3225-20.9599-10.2813-10.5041,10.8316-4.6745,36.7149-4.6745,36.7149,0,0,26.0501,5.0324,36.5542-5.7992,8.7678-9.0412-.4065-23.5511-10.9198-20.6345Z"/>
    <path class="cls-7" d="M532.4954,516.4898c-7.8127-7.6157-22.8371.6892-19.5017,12.8339,3.9959,14.5496,29.2534,22.6733,29.2534,22.6733,0,0,17.5653-19.8845,13.5694-34.4341-3.3354-12.1446-20.4941-11.6108-23.3211-1.0731Z"/>
    <path class="cls-7" d="M77.3343,94.2256c-9.9922-4.381-21.1353,8.6779-13.7413,18.8733,8.8582,12.2144,35.3591,10.9349,35.3591,10.9349,0,0,9.4487-24.7922.5905-37.0066-7.394-10.1954-23.2684-3.6603-22.2082,7.1984Z"/>
    <path class="cls-7" d="M919.9722,127.4766c5.8232-9.2264-5.4264-22.1937-16.6111-16.4041-13.3996,6.9361-16.0896,33.3311-16.0896,33.3311,0,0,23.1044,13.0429,36.504,6.1069,11.1847-5.7896,7.092-22.4615-3.8034-23.0338Z"/>
    <path class="cls-15" d="M830.1029,65.7521c-3.9066-1.8612-8.4866,3.1769-5.6824,7.3107,3.3595,4.9524,13.881,4.7751,13.881,4.7751,0,0,4.0544-9.7106.6949-14.6629-2.8042-4.1338-9.1786-1.7408-8.8935,2.5771Z"/>
    <path class="cls-10" d="M957.2926,77.7827c1.2232-4.1508-4.4728-7.8809-8.1138-4.4612-4.362,4.097-2.5314,14.4595-2.5314,14.4595,0,0,10.2276,2.4758,14.5896-1.6211,3.641-3.4197.2748-9.3381-3.9445-8.3772Z"/>
    <path class="cls-12" d="M103.3058,899.9581c-5.8232,9.2264,5.4264,22.1937,16.6111,16.4041,13.3996-6.9361,16.0896-33.3311,16.0896-33.3311,0,0-23.1044-13.0429-36.504-6.1069-11.1847,5.7896-7.092,22.4615,3.8034,23.0338Z"/>
    <path class="cls-13" d="M193.1751,961.6826c3.9066,1.8612,8.4866-3.1769,5.6824-7.3107-3.3595-4.9524-13.881-4.7751-13.881-4.7751,0,0-4.0544,9.7106-.6949,14.6629,2.8042,4.1338,9.1786,1.7408,8.8935-2.5771Z"/>
    <path class="cls-1" d="M65.9854,949.652c-1.2232,4.1508,4.4728,7.8809,8.1138,4.4612,4.362-4.097,2.5314-14.4595,2.5314-14.4595,0,0-10.2276-2.4758-14.5896,1.6211-3.641,3.4197-.2748,9.3381,3.9445,8.3772Z"/>
    <path class="cls-10" d="M309.3087,419.6004c-10.8178-1.4186-17.8741,14.2311-7.9288,21.9581,11.9148,9.2572,37.0059.6334,37.0059.6334,0,0,2.1549-26.4441-9.7599-35.7013-9.9453-7.727-23.3655,2.9782-19.3173,13.1098Z"/>
  </g>
</svg>