<?xml version="1.0" encoding="UTF-8"?>
<svg id="Layer_1" data-name="Layer 1" xmlns="http://www.w3.org/2000/svg" viewBox="0 0 1024 512">
  <defs>
    <style>
      .cls-1 {
        stroke-miterlimit: 10;
      }

      .cls-1, .cls-2, .cls-3 {
        fill: none;
        stroke: #231f20;
      }

      .cls-4 {
        fill: #9474d9;
      }

      .cls-4, .cls-5, .cls-6, .cls-7, .cls-8, .cls-9, .cls-10, .cls-11 {
        stroke-width: 0px;
      }

      .cls-6 {
        fill: #03c6fe;
      }

      .cls-7 {
        fill: #f897da;
      }

      .cls-8 {
        fill: #01cdaa;
      }

      .cls-9 {
        fill: #fff;
      }

      .cls-2 {
        stroke-width: 9px;
      }

      .cls-10 {
        fill: #eac658;
      }

      .cls-11 {
        fill: #fb574d;
      }
    </style>
  </defs>
  <g>
    <g>
      <path class="cls-11" d="M448.3257,417.2346c-12.4598,0-23.3587-.5459-32.702-1.6253-9.3433-1.0856-17.2651-3.2497-23.7648-6.4993s-11.7808-7.9218-15.8431-14.0154c-4.0623-6.0928-7.0457-14.078-8.9372-23.9672-1.8978-9.883-2.8436-22.2731-2.8436-37.1704v-179.9617c0-6.2268.5397-12.1172,1.6248-17.6712,1.0793-5.5477,4.1959-10.1559,9.3433-13.8121,5.1416-3.6562,13.8121-5.4843,25.999-5.4843s20.7814,1.8281,25.7957,5.4843c5.0081,3.6562,8.0549,8.3278,9.1405,14.015,1.0793,5.6876,1.6253,11.6476,1.6253,17.8744v175.0863c0,4.0627.0634,7.2489.2028,9.547.1331,2.3043.5397,3.9984,1.2187,5.0777.6728,1.0856,1.7584,1.695,3.2497,1.8281,1.4859.1394,3.5865.2028,6.2965.2028,3.5168,0,7.2427.4762,11.1714,1.4224,3.9233.9516,7.3124,3.7956,10.1564,8.5302,2.8431,4.7418,4.2656,12.9361,4.2656,24.5774,0,12.1873-1.4224,20.8578-4.2656,25.999-2.844,5.1474-6.2965,8.188-10.3592,9.1405-4.0618.9453-7.8583,1.4216-11.3742,1.4216Z"/>
      <path class="cls-4" d="M574.6605,417.2346c-12.4598,0-23.3587-.5459-32.702-1.6253-9.3438-1.0856-17.2655-3.2497-23.7648-6.4993-6.5002-3.2497-11.7808-7.9218-15.8435-14.0154-4.0627-6.0928-7.0452-14.078-8.9368-23.9672-1.8987-9.883-2.844-22.2731-2.844-37.1704v-179.9617c0-6.2268.5397-12.1172,1.6253-17.6712,1.0785-5.5477,4.195-10.1559,9.3433-13.8121,5.1412-3.6562,13.8117-5.4843,25.999-5.4843s20.7814,1.8281,25.7957,5.4843c5.0081,3.6562,8.0549,8.3278,9.1405,14.015,1.0793,5.6876,1.6253,11.6476,1.6253,17.8744v175.0863c0,4.0627.0634,7.2489.2028,9.547.1331,2.3043.5397,3.9984,1.2187,5.0777.6728,1.0856,1.7584,1.695,3.2497,1.8281,1.4859.1394,3.5865.2028,6.2965.2028,3.5168,0,7.2427.4762,11.1714,1.4224,3.9233.9516,7.3124,3.7956,10.1564,8.5302,2.8431,4.7418,4.2656,12.9361,4.2656,24.5774,0,12.1873-1.4224,20.8578-4.2656,25.999-2.844,5.1474-6.2965,8.188-10.3592,9.1405-4.0618.9453-7.8583,1.4216-11.3742,1.4216Z"/>
      <path class="cls-6" d="M700.9949,417.2346c-12.4598,0-23.3587-.5459-32.702-1.6253-9.3433-1.0856-17.2651-3.2497-23.7644-6.4993-6.5002-3.2497-11.7808-7.9218-15.8435-14.0154-4.0627-6.0928-7.0452-14.078-8.9368-23.9672-1.8987-9.883-2.844-22.2731-2.844-37.1704v-179.9617c0-6.2268.5397-12.1172,1.6253-17.6712,1.0785-5.5477,4.195-10.1559,9.3433-13.8121,5.1412-3.6562,13.8117-5.4843,25.999-5.4843s20.781,1.8281,25.7953,5.4843c5.0081,3.6562,8.0549,8.3278,9.1405,14.015,1.0793,5.6876,1.6253,11.6476,1.6253,17.8744v175.0863c0,4.0627.0634,7.2489.2028,9.547.1331,2.3043.5397,3.9984,1.2187,5.0777.6728,1.0856,1.7584,1.695,3.2497,1.8281,1.4859.1394,3.5865.2028,6.2965.2028,3.5168,0,7.2427.4762,11.1714,1.4224,3.9233.9516,7.3124,3.7956,10.1564,8.5302,2.8431,4.7418,4.2656,12.9361,4.2656,24.5774,0,12.1873-1.4224,20.8578-4.2656,25.999-2.844,5.1474-6.2965,8.188-10.3592,9.1405-4.0618.9453-7.8583,1.4216-11.3742,1.4216Z"/>
    </g>
    <path class="cls-2" d="M748.6121,340.5493c-8.5535-14.2388-19.7329-19.8759-27.9853-22.0864v-164.0614c0-8.062-.7246-15.9699-2.1605-23.5356-2.5268-13.2354-9.7865-24.5565-21.0097-32.7503-10.5549-7.6961-24.4041-11.2809-43.5839-11.2809-18.7929,0-33.021,3.6218-43.4812,11.0606-9.6885,6.8805-16.4782,15.9905-19.9116,26.5683-3.3983-10.4887-9.9917-19.5101-19.3576-26.348-10.5549-7.6961-24.4041-11.2809-43.5844-11.2809-18.7929,0-33.021,3.6218-43.4812,11.0606-9.6891,6.8807-16.4787,15.9907-19.9122,26.5689-3.3977-10.4899-9.9916-19.5117-19.358-26.3486-10.5553-7.6961-24.4041-11.2809-43.5839-11.2809-13.0636,0-23.9165,1.7547-32.8374,5.3213,5.2179-15.0828,7.1659-33.7337-3.762-50.8035-20.1918-31.5405-60.165-15.6441-54.8966,14.7937-25.4374-17.5259-56.6069,12.1224-36.4151,43.6628,15.9778,24.958,46.5448,26.3379,64.5188,24.6547-.6415,1.9756-1.1794,3.9967-1.5828,6.0706-1.4497,7.4209-2.185,15.3146-2.185,23.461v179.9617c0,16.98,1.1075,31.0017,3.381,42.8432,2.6412,13.8072,7.1739,25.5978,13.4704,35.0421,6.9952,10.4932,16.2353,18.6598,27.4634,24.2737,9.6127,4.8061,20.9784,7.9968,33.8024,9.4872,10.4821,1.2107,22.6497,1.8245,36.1661,1.8245,5.7952,0,11.9246-.7425,18.2649-2.2186,7.3736-1.728,17.2689-6.1392,25.5099-17.1234,3.8647,3.0797,8.0634,5.7659,12.5911,8.0294,9.6123,4.8061,20.9784,7.9977,33.8033,9.4881,10.4812,1.2107,22.6497,1.8245,36.1666,1.8245,5.7952,0,11.9246-.7425,18.2658-2.2186,7.3726-1.7288,17.2661-6.1388,25.508-17.1234,3.8648,3.0797,8.0635,5.7659,12.5917,8.0294,9.6123,4.8061,20.9775,7.9977,33.8019,9.4881,10.4816,1.2107,22.6502,1.8245,36.167,1.8245,5.7952,0,11.9246-.7425,18.2658-2.2186,8.7375-2.0488,21.016-7.8637,29.8893-23.9252,5.4834-9.9143,8.037-22.819,8.037-40.6104,0-17.6162-2.7207-30.3593-8.5758-40.1243Z"/>
  </g>
  <g>
    <g>
      <path class="cls-5" d="M987.7723,379.0896c0-.6737.0295-1.2616.0876-1.7673.059-.5048.1751-.9328.352-1.2849.1751-.3511.4271-.6362.7568-.856s.7613-.3806,1.2956-.4834,1.2035-.1537,2.0095-.1537h9.7275c.3368,0,.6549.0295.9551.0885.3002.0572.5486.2269.747.5039.1975.2788.2966.747.2966,1.4064,0,.6585-.0992,1.1231-.2966,1.3939-.1984.2707-.4503.436-.7577.4941s-.6299.0885-.9668.0885h-9.4639c-.2198,0-.3914.0036-.5164.0107-.1233.0071-.2153.0286-.2734.0661-.059.0357-.092.0947-.0992.1751-.008.0804-.0116.1939-.0116.3404,0,.1903-.025.3914-.0768.604-.0509.2118-.2046.3949-.461.5486-.2555.1537-.6987.2314-1.3277.2314-.6594,0-1.1276-.0777-1.4055-.2314s-.4423-.3404-.4941-.5602c-.0518-.2189-.0768-.4244-.0768-.6147Z"/>
      <path class="cls-5" d="M987.5739,386.754c0-.6737.1358-1.3545.4074-2.0425.2698-.688.6576-1.3215,1.1633-1.8996.5048-.579,1.1115-1.04,1.8227-1.3831.7094-.3449,1.5038-.5164,2.3821-.5164.805,0,1.5592.1537,2.2623.461.7023.3074,1.3206.7282,1.8549,1.2634.5343.5334.9551,1.149,1.2625,1.8442.3083.6951.4619,1.4385.4619,2.2284,0,1.0829-.2609,2.064-.78,2.9432-.52.8774-1.2187,1.5806-2.097,2.1069-.8783.5272-1.8594.7916-2.9432.7916-.9221,0-1.7423-.1769-2.4589-.5272-.7175-.352-1.3251-.8131-1.8227-1.384s-.8747-1.1964-1.1312-1.8772c-.2555-.6808-.3842-1.351-.3842-2.0086ZM991.5929,386.7093c0,.2198.0554.4718.1644.7577.1099.2859.2966.5343.5602.747.2636.2118.6219.3181,1.0767.3181.3645,0,.68-.0768.9435-.2305s.4682-.3699.6147-.6478.2198-.6004.2198-.9659c0-.3226-.0768-.6147-.2305-.8792-.1537-.2627-.3663-.4753-.6371-.6362s-.5817-.2412-.9337-.2412c-.4387,0-.7899.1019-1.0534.3074-.2636.2046-.4503.4459-.5602.7237-.109.2788-.1644.5272-.1644.747Z"/>
      <path class="cls-5" d="M987.6624,399.1816c0-.4101.0804-.7657.2421-1.065.1608-.3002.4021-.5307.7237-.6916l7.4-3.8867c.629-.3226,1.1562-.4244,1.5815-.3074.4244.117.797.512,1.1196,1.1857.3368.688.4539,1.2295.3511,1.6244-.1019.3958-.52.7541-1.2509,1.0758l-4.6998,2.0649,4.6998,2.064c.7613.3368,1.1848.7032,1.2732,1.0981s-.0366.9292-.3735,1.6029c-.3368.688-.7211,1.0829-1.1526,1.1857-.4316.1019-.948,0-1.5484-.3074l-7.4-3.8867c-.3217-.1617-.5629-.3887-.7237-.6808-.1617-.2931-.2421-.6514-.2421-1.0758Z"/>
      <path class="cls-5" d="M987.531,411.8523c0-1.0981.1787-2.0282.5379-2.7886.3583-.7613.8265-1.376,1.4046-1.8451.579-.4682,1.2044-.8122,1.8781-1.032.6728-.2189,1.3242-.3288,1.9541-.3288,1.1562,0,2.1739.2555,3.0522.7684.8783.512,1.5663,1.2223,2.064,2.1301.4977.9069.747,1.946.747,3.1174,0,.9078-.1465,1.6834-.4396,2.3285-.2922.6433-.6657,1.1669-1.1196,1.5699-.4539.4021-.9373.6987-1.4493.889-.5129.1903-.9882.2859-1.4278.2859-.8345,0-1.4707-.2055-1.9103-.6156-.4387-.4092-.6585-.9364-.6585-1.5806v-4.6775c-.235.059-.4351.1796-.604.3628-.1689.1823-.3002.4128-.3949.6916-.0956.2779-.143.5781-.143.8998s.0188.6076.0545.8569c.0366.2484.084.4646.143.6478s.117.3511.176.5048c.0581.1537.1063.2931.1421.4173.0375.1242.0554.2448.0554.3628,0,.2636-.0876.5048-.2636.7246-.176.2189-.4387.4173-.7907.5924-.1894.1028-.3699.176-.5379.2198s-.3252.0661-.4718.0661c-.4396,0-.8059-.1796-1.0981-.5379-.2931-.3592-.5155-.8756-.6692-1.5484-.1537-.6737-.2305-1.5011-.2305-2.4812ZM994.2278,410.0734v2.4598c0,.2046.0438.3547.1313.4503.0885.0947.2198.1421.3958.1421.1903,0,.3511-.0545.4834-.1644.1313-.1099.2305-.26.2966-.4503.0652-.1903.0983-.4173.0983-.6808,0-.3511-.0697-.6585-.2091-.9221s-.3145-.4646-.5272-.604c-.2118-.1394-.4351-.2162-.6692-.2305Z"/>
      <path class="cls-5" d="M987.7723,422.5886c0-.6728.0295-1.2625.0876-1.7673.059-.5048.1751-.9328.352-1.2849.1751-.3511.4271-.6362.7568-.856s.7613-.3806,1.2956-.4834,1.2035-.1537,2.0095-.1537h9.7275c.3368,0,.6549.0295.9551.0876.3002.059.5486.2269.747.5057.1975.2779.2966.7461.2966,1.4055,0,.6585-.0992,1.1231-.2966,1.3939-.1984.2707-.4503.4351-.7577.4941-.3074.0581-.6299.0876-.9668.0876h-9.4639c-.2198,0-.3914.0036-.5164.0116-.1233.0071-.2153.0286-.2734.0652-.059.0366-.092.0956-.0992.176-.008.0804-.0116.1939-.0116.3404s-.025.3914-.0768.604c-.0509.2118-.2046.3949-.461.5486-.2555.1537-.6987.2305-1.3277.2305-.6594,0-1.1276-.0768-1.4055-.2305s-.4423-.3404-.4941-.5593c-.0518-.2198-.0768-.4253-.0768-.6156Z"/>
      <path class="cls-5" d="M983.2708,428.2543c.3217-.7175.6773-1.1347,1.065-1.2518s.8971-.0223,1.5261.2859l11.9452,5.3351c.688.3083,1.0981.6371,1.2303.9882.1313.352.05.8935-.2421,1.6253-.3226.7023-.6665,1.116-1.032,1.2411-.3663.1242-.856.0474-1.4707-.2305l-12.056-5.3806c-.688-.2931-1.1017-.6183-1.2411-.9766-.1385-.3592-.0465-.9042.2752-1.636ZM988.1011,430.0332l7.9057-5.227c.5852-.3806,1.0722-.5343,1.46-.461s.7791.4244,1.1749,1.0543c.4244.688.5888,1.2187.4941,1.5922-.0956.3735-.4432.7577-1.0436,1.1526l-5.3789,3.557-4.6122-1.6682Z"/>
      <path class="cls-5" d="M987.7723,442.066c0-.6728.0295-1.2625.0876-1.7673.059-.5048.1751-.9328.352-1.2849.1751-.3511.4271-.6362.7568-.856s.7613-.3806,1.2956-.4834,1.2035-.1537,2.0095-.1537h9.7275c.3368,0,.6549.0295.9551.0876.3002.059.5486.2269.747.5057.1975.2779.2966.7461.2966,1.4055s-.0992,1.1231-.2966,1.3939c-.1984.2707-.4503.4351-.7577.4941-.3074.0581-.6299.0876-.9668.0876h-9.4639c-.2198,0-.3914.0036-.5164.0116-.1233.0071-.2153.0286-.2734.0652-.059.0366-.092.0956-.0992.176-.008.0804-.0116.1939-.0116.3404s-.025.3914-.0768.604c-.0509.2118-.2046.3949-.461.5486-.2555.1537-.6987.2305-1.3277.2305-.6594,0-1.1276-.0768-1.4055-.2305s-.4423-.3404-.4941-.5593c-.0518-.2198-.0768-.4253-.0768-.6156Z"/>
      <path class="cls-5" d="M987.5739,449.7295c0-.6737.1358-1.3536.4074-2.0416.2698-.6889.6576-1.3215,1.1633-1.8996.5048-.579,1.1115-1.04,1.8227-1.3831.7094-.3449,1.5038-.5164,2.3821-.5164.805,0,1.5592.1537,2.2623.461.7023.3074,1.3206.7282,1.8549,1.2625s.9551,1.149,1.2625,1.8451c.3083.6951.4619,1.4376.4619,2.2284,0,1.0829-.2609,2.064-.78,2.9423-.52.8783-1.2187,1.5815-2.097,2.1087-.8783.5263-1.8594.7899-2.9432.7899-.9221,0-1.7423-.1751-2.4589-.5263-.7175-.352-1.3251-.8131-1.8227-1.384s-.8747-1.1964-1.1312-1.8772c-.2555-.6808-.3842-1.3501-.3842-2.0095ZM991.5929,449.6857c0,.2198.0554.4727.1644.7577.1099.285.2966.5343.5602.747.2636.2118.6219.3181,1.0767.3181.3645,0,.68-.0768.9435-.2305s.4682-.3699.6147-.6478c.1465-.2788.2198-.6004.2198-.9659,0-.3226-.0768-.6156-.2305-.8783-.1537-.2636-.3663-.4762-.6371-.6371-.2707-.1617-.5817-.2421-.9337-.2421-.4387,0-.7899.1028-1.0534.3083-.2636.2046-.4503.4459-.5602.7246-.109.2779-.1644.5263-.1644.7461Z"/>
      <path class="cls-5" d="M987.5739,461.982c0-.6737.1358-1.3536.4074-2.0416.2698-.6889.6576-1.3215,1.1633-1.8996.5048-.579,1.1115-1.04,1.8227-1.3831.7094-.3449,1.5038-.5164,2.3821-.5164.805,0,1.5592.1537,2.2623.461.7023.3074,1.3206.7282,1.8549,1.2625s.9551,1.149,1.2625,1.8451c.3083.6951.4619,1.4376.4619,2.2284,0,1.0829-.2609,2.064-.78,2.9423-.52.8783-1.2187,1.5815-2.097,2.1087-.8783.5263-1.8594.7899-2.9432.7899-.9221,0-1.7423-.1751-2.4589-.5263-.7175-.352-1.3251-.8131-1.8227-1.384s-.8747-1.1964-1.1312-1.8772c-.2555-.6808-.3842-1.3501-.3842-2.0095ZM991.5929,461.9383c0,.2198.0554.4727.1644.7577.1099.285.2966.5343.5602.747.2636.2118.6219.3181,1.0767.3181.3645,0,.68-.0768.9435-.2305s.4682-.3699.6147-.6478c.1465-.2788.2198-.6004.2198-.9659,0-.3226-.0768-.6156-.2305-.8783-.1537-.2636-.3663-.4762-.6371-.6371-.2707-.1617-.5817-.2421-.9337-.2421-.4387,0-.7899.1028-1.0534.3083-.2636.2046-.4503.4459-.5602.7246-.109.2779-.1644.5263-.1644.7461Z"/>
      <path class="cls-5" d="M987.5739,474.2346c0-.6737.1358-1.3536.4074-2.0416.2698-.6889.6576-1.3215,1.1633-1.8996.5048-.579,1.1115-1.04,1.8227-1.3831.7094-.3449,1.5038-.5164,2.3821-.5164.805,0,1.5592.1537,2.2623.461.7023.3074,1.3206.7282,1.8549,1.2625s.9551,1.149,1.2625,1.8451c.3083.6951.4619,1.4376.4619,2.2284,0,1.0829-.2609,2.064-.78,2.9423-.52.8783-1.2187,1.5815-2.097,2.1087-.8783.5263-1.8594.7899-2.9432.7899-.9221,0-1.7423-.1751-2.4589-.5263-.7175-.352-1.3251-.8131-1.8227-1.384s-.8747-1.1964-1.1312-1.8772c-.2555-.6808-.3842-1.3501-.3842-2.0095ZM991.5929,474.1908c0,.2198.0554.4727.1644.7577.1099.285.2966.5343.5602.747.2636.2118.6219.3181,1.0767.3181.3645,0,.68-.0768.9435-.2305s.4682-.3699.6147-.6478c.1465-.2788.2198-.6004.2198-.9659,0-.3226-.0768-.6156-.2305-.8783-.1537-.2636-.3663-.4762-.6371-.6371-.2707-.1617-.5817-.2421-.9337-.2421-.4387,0-.7899.1028-1.0534.3083-.2636.2046-.4503.4459-.5602.7246-.109.2779-.1644.5263-.1644.7461Z"/>
      <path class="cls-5" d="M988.035,486.9276c0-.7175.1465-1.3394.4396-1.8665s.6916-.9587,1.1973-1.2956c.5048-.3368,1.0793-.5861,1.7236-.747s1.3251-.2341,2.0416-.2189c.7032.0143,1.3831.1054,2.0425.2743.6594.168,1.2437.4199,1.7566.7577.5129.336.9185.7604,1.2187,1.2732.3002.512.4503,1.1196.4503,1.8227,0,.6442-.1537,1.2697-.461,1.8772s-.7219,1.1526-1.2411,1.636-1.1088.8631-1.7673,1.1419c-.6585.2779-1.3394.4173-2.0416.4173-.7327,0-1.4242-.1394-2.0756-.4173-.6514-.2788-1.2232-.6558-1.7128-1.1312-.4905-.4753-.8756-1.0177-1.1526-1.6244-.2788-.6076-.4182-1.2411-.4182-1.8996ZM991.768,486.4004c0,.2931.0733.5602.2198.8015s.3413.4351.5826.5817.5004.2198.7791.2198c.2931,0,.5602-.0697.8015-.2082.2421-.1394.4316-.3297.5709-.5709.1394-.2421.2091-.5093.2091-.8015s-.0733-.5602-.2198-.8015c-.1465-.2421-.3377-.4325-.5709-.5709-.235-.1394-.4977-.2091-.7907-.2091-.2788,0-.5379.0733-.7791.2198-.2412.1456-.436.3368-.5826.5709s-.2198.4905-.2198.7684ZM983.1172,482.8649c0-.6442.0947-1.1053.285-1.3831s.4316-.4432.7246-.4941c.2931-.0518.6004-.0768.9221-.0768h11.9237c.3226,0,.6299.025.923.0768.2922.0509.5379.2118.7345.4834.1984.2707.2966.7282.2966,1.3724,0,.512-.0697.9364-.2082,1.2732-.1394.3368-.3547.5781-.6478.7246h-12.9995c-.3217.0295-.6335.0107-.9337-.0545-.2993-.0661-.545-.2386-.7353-.5164s-.285-.7461-.285-1.4055Z"/>
    </g>
    <path class="cls-3" d="M1003.3193,423.8945c.8096-.1543,1.5-.5967,2-1.2803.458-.6289.6807-1.4697.6807-2.5723,0-1.0947-.2178-1.9336-.666-2.5625-.4971-.7012-1.1875-1.1543-2.001-1.3125-.4268-.082-.875-.124-1.332-.124h-2.0185c.2092-.3156.4025-.6495.5673-1.0137.4111-.9023.6191-1.9648.6191-3.1553,0-1.5068-.335-2.8799-.9932-4.0791-.2661-.4846-.5865-.918-.936-1.3224.4969-.3882.9305-.921,1.2778-1.6307.5557-1.1104.7314-2.0713.5371-2.9326-.2334-1.0498-1.0479-1.8887-2.4209-2.4941l-.5312-.2334.5332-.2344c1.3193-.5811,2.1201-1.3916,2.3789-2.3984.2314-.8828.0713-1.8682-.4814-2.9971-.351-.7308-.7912-1.2744-1.2978-1.6691.33-.3753.637-.7728.8974-1.2128.7021-1.1885,1.0586-2.5205,1.0586-3.9609,0-1.0664-.2129-2.0889-.6338-3.0391-.4072-.9199-.9717-1.7441-1.6758-2.4463-.2554-.2558-.532-.4861-.8183-.7041h3.915c.459,0,.9102-.042,1.335-.123.8105-.1514,1.5039-.5947,2.0059-1.2812.458-.6289.6807-1.4697.6807-2.5723,0-1.0928-.2178-1.9316-.6699-2.5693-.5-.6992-1.1904-1.1504-1.9902-1.3037-.4277-.084-.8779-.126-1.3389-.126h-9.7275c-.9385,0-1.7188.0625-2.3848.1904-.8057.1543-1.4688.4102-2.0283.7822-.6221.415-1.1064.9619-1.4365,1.624-.2822.5635-.4629,1.2002-.5518,1.9551-.0664.5811-.0996,1.252-.0996,1.9941,0,.3525.0449.7168.1309,1.0732.1221.5212.4643,1.2437,1.3696,1.7874-.4805.6288-.8704,1.3074-1.1518,2.027-.3633.9189-.5469,1.8535-.5469,2.7764,0,.8965.1719,1.8096.5127,2.7148.3398.9014.8428,1.7373,1.4941,2.4854.6719.7705,1.4961,1.3975,2.4521,1.8662.2086.1019.4263.1874.6463.2681l-2.9481,1.5483c-.6855.3438-1.2344.874-1.5889,1.5322-.3184.5938-.4805,1.2705-.4805,2.0127,0,.7607.1641,1.4463.4912,2.042.3535.6406.8975,1.1592,1.5449,1.4854l3.0143,1.5833c-.8951.2943-1.7355.7551-2.4987,1.3727-.8125.6592-1.4697,1.5156-1.9531,2.5439-.4844,1.0254-.7295,2.251-.7295,3.6436,0,1.1445.0918,2.1025.2803,2.9258.2246.9863.5742,1.7607,1.0684,2.3672.1137.1394.2454.2526.3738.3704-.3353.326-.6177.6981-.8299,1.1237-.2822.5635-.4629,1.2002-.5518,1.9551-.0664.5801-.0996,1.251-.0996,1.9941,0,.3516.0449.7158.1309,1.0762.1289.543.4883,1.3057,1.4746,1.8506.5928.3262,1.3457.4785,2.3711.4785.343,0,.6454-.0257.931-.0634l-1.1907.787-2.748-1.2266c-.7393-.3613-1.4111-.5371-2.0557-.5371-.3213,0-.6338.0449-.9238.1328-.9805.2939-1.7373,1.0615-2.3223,2.3633-.5479,1.2471-.6484,2.2812-.3086,3.1621.3447.8906,1.1035,1.5762,2.29,2.0811l6.6846,2.9825c-.0717.012-.1478.0217-.2168.0351-.8057.1543-1.4688.4102-2.0283.7822-.6221.415-1.1064.9619-1.4365,1.624-.2822.5635-.4629,1.2002-.5518,1.9551-.0664.5801-.0996,1.251-.0996,1.9941,0,.3516.0449.7158.1309,1.0762.123.5203.4652,1.2409,1.3696,1.7845-.4805.6288-.8704,1.3074-1.1518,2.027-.3633.9199-.5469,1.8535-.5469,2.7754,0,.8975.1719,1.8105.5127,2.7158.3389.8994.8418,1.7354,1.4941,2.4854.2935.3365.621.6403.9706.9208-.3258.2672-.6345.5538-.912.8722-.6562.75-1.168,1.5869-1.5186,2.4824-.3633.9189-.5469,1.8535-.5469,2.7764,0,.8965.1719,1.8096.5127,2.7139.3389.9004.8408,1.7363,1.4951,2.4883.293.3356.6203.639.97.9193-.3253.2667-.6339.553-.9124.8717-.6572.751-1.1689,1.5889-1.5186,2.4834-.3633.9189-.5469,1.8525-.5469,2.7754,0,.8975.1719,1.8105.5127,2.7158.2626.6966.625,1.3528,1.0757,1.9609h-2.1138c-.4424,0-.8691.0361-1.2637.1055-.8291.1436-1.5312.6045-2.0332,1.3359-.4268.624-.6348,1.4453-.6348,2.5127,0,1.0967.2012,1.9023.6367,2.5371.4795.6982,1.1543,1.1611,1.9639,1.3398.3467.0752.7021.1123,1.0586.1123.125,0,.251-.0039.3779-.0137h.8818c-.001.0293-.001.0576-.001.0869,0,.9443.2021,1.8643.5996,2.7314.3809.833.9121,1.583,1.5781,2.2275.6631.6436,1.4424,1.1592,2.3223,1.5361.8984.3828,1.8604.5771,2.8594.5771.9658,0,1.9141-.1934,2.8213-.5752.873-.3701,1.6631-.8818,2.3496-1.5205.6914-.6426,1.251-1.3818,1.6631-2.1963.4492-.8867.6768-1.8223.6768-2.7803,0-.7295-.1152-1.4092-.3457-2.0303.0029-.0059.0059-.0117.0078-.0186.2422-.585.3594-1.251.3594-2.0352,0-1.0898-.2227-1.9248-.6758-2.5449-.2851-.3937-.636-.6963-1.0285-.9193.3355-.3798.647-.7826.9103-1.2281.7021-1.1875,1.0586-2.5205,1.0586-3.9609,0-1.0674-.2129-2.0889-.6328-3.0361-.4062-.9199-.9707-1.7441-1.6777-2.4512-.2132-.2134-.4409-.4094-.6757-.5965.7712-.6095,1.4186-1.3476,1.9276-2.2082.7021-1.1885,1.0586-2.5205,1.0586-3.96,0-1.0664-.2129-2.0889-.6328-3.0371-.4053-.918-.9697-1.7432-1.6768-2.4492-.2137-.2142-.4419-.4107-.6771-.5981.7712-.6086,1.4185-1.3466,1.928-2.2075.7021-1.1875,1.0586-2.5205,1.0586-3.9609,0-1.0664-.2129-2.0889-.6328-3.0381-.4062-.9189-.9707-1.7432-1.6777-2.4492-.2552-.2556-.5315-.4855-.8174-.7031h3.915c.4619,0,.9141-.042,1.3408-.123.8096-.1543,1.5-.5967,2-1.2803.458-.6289.6807-1.4697.6807-2.5723,0-1.0947-.2178-1.9336-.666-2.5625-.4971-.7012-1.1875-1.1543-1.9941-1.3115-.4248-.083-.875-.125-1.3389-.125h-1.1812c.2492-.7426.4345-1.6899.0894-2.6133-.3301-.8779-1.0771-1.5674-2.2861-2.1104l-.5469-.2441,1.1152-.7383c1.04-.6846,1.6562-1.4453,1.8828-2.3311.2363-.9307-.0029-1.9551-.7393-3.1475-.0747-.119-.1556-.2102-.2326-.3184h1.8762c.4619,0,.9141-.042,1.3408-.123ZM993.2889,424.2064c.0298-.0632.0659-.1282.0891-.1888h.1966l-.2856.1888Z"/>
  </g>
  <g>
    <g>
      <g>
        <circle class="cls-7" cx="29.3902" cy="184.2828" r="9.3902"/>
        <circle class="cls-1" cx="29.3902" cy="184.2828" r="9.3902"/>
      </g>
      <g>
        <circle class="cls-8" cx="29.3902" cy="162.1553" r="9.3902"/>
        <circle class="cls-1" cx="29.3902" cy="162.1553" r="9.3902"/>
      </g>
      <g>
        <circle class="cls-10" cx="29.3902" cy="140.0278" r="9.3902"/>
        <circle class="cls-1" cx="29.3902" cy="140.0278" r="9.3902"/>
      </g>
      <g>
        <circle class="cls-6" cx="29.3902" cy="117.9003" r="9.3902"/>
        <circle class="cls-1" cx="29.3902" cy="117.9003" r="9.3902"/>
      </g>
      <g>
        <circle class="cls-4" cx="29.3902" cy="95.7728" r="9.3902"/>
        <circle class="cls-1" cx="29.3902" cy="95.7728" r="9.3902"/>
      </g>
      <g>
        <circle class="cls-11" cx="29.3902" cy="73.6453" r="9.3902"/>
        <circle class="cls-1" cx="29.3902" cy="73.6453" r="9.3902"/>
      </g>
      <g>
        <circle class="cls-5" cx="29.3902" cy="51.5177" r="9.3902"/>
        <circle class="cls-1" cx="29.3902" cy="51.5177" r="9.3902"/>
      </g>
      <g>
        <circle class="cls-9" cx="29.3902" cy="29.3902" r="9.3902"/>
        <circle class="cls-1" cx="29.3902" cy="29.3902" r="9.3902"/>
      </g>
    </g>
    <path class="cls-3" d="M43.7803,51.5176c0-4.4438-2.0266-8.4219-5.2021-11.0637,3.1756-2.6418,5.2021-6.6199,5.2021-11.0637,0-7.9346-6.4556-14.3901-14.3901-14.3901s-14.3901,6.4556-14.3901,14.3901c0,4.4438,2.0266,8.4219,5.2021,11.0637-3.1756,2.6418-5.2021,6.6199-5.2021,11.0637s2.0264,8.4221,5.2019,11.0639c-3.1755,2.6418-5.2019,6.6198-5.2019,11.0635s2.0265,8.4222,5.2019,11.064c-3.1754,2.6418-5.2019,6.6199-5.2019,11.064s2.0266,8.4219,5.2021,11.0637c-3.1756,2.6418-5.2021,6.6199-5.2021,11.0637s2.0266,8.4219,5.2021,11.0637c-3.1756,2.6418-5.2021,6.6199-5.2021,11.0637s2.0266,8.4219,5.2021,11.0637c-3.1756,2.6418-5.2021,6.6199-5.2021,11.0637s2.0266,8.4219,5.2021,11.0637c-3.1756,2.6418-5.2021,6.6199-5.2021,11.0637,0,7.9346,6.4556,14.3901,14.3901,14.3901s14.3901-6.4556,14.3901-14.3901c0-4.4438-2.0266-8.4219-5.2021-11.0637,3.1756-2.6418,5.2021-6.6199,5.2021-11.0637s-2.0266-8.4219-5.2021-11.0637c3.1756-2.6418,5.2021-6.6199,5.2021-11.0637s-2.0266-8.4219-5.2021-11.0637c3.1756-2.6418,5.2021-6.6199,5.2021-11.0637s-2.0266-8.4219-5.2021-11.0637c3.1756-2.6418,5.2021-6.6199,5.2021-11.0637s-2.0265-8.4222-5.2019-11.064c3.1754-2.6418,5.2019-6.6199,5.2019-11.064s-2.0264-8.4218-5.2019-11.0635c3.1755-2.6418,5.2019-6.6199,5.2019-11.0639Z"/>
  </g>
</svg>