<?xml version="1.0" encoding="UTF-8"?><svg id="Layer_2" xmlns="http://www.w3.org/2000/svg" viewBox="0 0 912.6297 629.9013"><defs><style>.cls-1{fill:#fff;}.cls-1,.cls-2,.cls-3,.cls-4,.cls-5,.cls-6,.cls-7,.cls-8{stroke-miterlimit:10;}.cls-1,.cls-2,.cls-3,.cls-4,.cls-5,.cls-6,.cls-7,.cls-8,.cls-9{stroke:#231f20;}.cls-2,.cls-10{fill:#9474d9;}.cls-3,.cls-11{fill:#fb574d;}.cls-12,.cls-13{stroke-width:0px;}.cls-14{font-family:Fredoka-Bold, Fredoka;font-size:444px;font-weight:700;}.cls-5{fill:#eac658;}.cls-6{fill:#f897da;}.cls-7{fill:#01cdaa;}.cls-8,.cls-15{fill:#03c6fe;}.cls-9{fill:none;stroke-width:9px;}.cls-13{fill:#231f20;}</style></defs><text class="cls-14" transform="translate(249.1954 476.5662)"><tspan class="cls-11" x="0" y="0">l</tspan><tspan class="cls-10" x="138.0791" y="0">l</tspan><tspan class="cls-15" x="276.1582" y="0">l</tspan></text><path class="cls-9" d="M684.8461,396.7475c-9.3486-15.5625-21.5674-21.7236-30.5869-24.1396v-179.3135c0-8.8115-.792-17.4546-2.3613-25.7236-2.7617-14.4658-10.6963-26.8394-22.9629-35.7949-11.5361-8.4116-26.6729-12.3296-47.6357-12.3296-20.54,0-36.0908,3.9585-47.5234,12.0889-10.5892,7.5201-18.0101,17.4771-21.7627,29.0382-3.7142-11.4638-10.9205-21.3239-21.1572-28.7975-11.5361-8.4116-26.6729-12.3296-47.6362-12.3296-20.54,0-36.0908,3.9585-47.5234,12.0889-10.5898,7.5203-18.0106,17.4772-21.7633,29.0389-3.7136-11.4651-10.9205-21.3256-21.1576-28.7982-11.5366-8.4116-26.6729-12.3296-47.6357-12.3296-14.278,0-26.1399,1.9178-35.8901,5.816,5.7029-16.485,7.8321-36.8698-4.1118-55.5265-22.0689-34.4727-65.7583-17.0984-60.0001,16.169-27.8022-19.1552-61.8694,13.2493-39.8005,47.722,17.4631,27.2782,50.8719,28.7864,70.5168,26.9468-.7011,2.1593-1.289,4.3683-1.73,6.6349-1.5845,8.1108-2.3882,16.7383-2.3882,25.6421v196.6919c0,18.5586,1.2104,33.8838,3.6953,46.8262,2.8867,15.0908,7.8408,27.9775,14.7227,38.2998,7.6455,11.4688,17.7446,20.3945,30.0166,26.5303,10.5063,5.2529,22.9287,8.7402,36.9448,10.3691,11.4565,1.3232,24.7554,1.9941,39.5283,1.9941,6.334,0,13.0332-.8115,19.9629-2.4248,8.0591-1.8886,18.8743-6.71,27.8814-18.7153,4.224,3.366,8.813,6.3019,13.7617,8.7759,10.5059,5.2529,22.9287,8.7412,36.9458,10.3701,11.4556,1.3232,24.7554,1.9941,39.5288,1.9941,6.334,0,13.0332-.8115,19.9639-2.4248,8.058-1.8895,18.8713-6.7095,27.8793-18.7153,4.2241,3.366,8.8132,6.3019,13.7623,8.7759,10.5059,5.2529,22.9277,8.7412,36.9443,10.3701,11.4561,1.3232,24.7559,1.9941,39.5293,1.9941,6.334,0,13.0332-.8115,19.9639-2.4248,9.5498-2.2393,22.9697-8.5947,32.668-26.1494,5.9932-10.8359,8.7842-24.9404,8.7842-44.3857,0-19.2539-2.9736-33.1816-9.373-43.8545Z"/><path class="cls-12" d="M515.2348,540.0171c.7363,0,1.3789.0322,1.9316.0957.5518.0645,1.0195.1914,1.4043.3848.3838.1914.6953.4668.9355.8271s.416.832.5283,1.416.168,1.3154.168,2.1963v10.6318c0,.3682-.0322.7158-.0967,1.0439-.0625.3281-.248.5996-.5508.8164-.3047.2158-.8164.3242-1.5371.3242-.7197,0-1.2275-.1084-1.5234-.3242-.2959-.2168-.4766-.4922-.54-.8281s-.0967-.6885-.0967-1.0566v-10.3438c0-.2402-.0039-.4277-.0117-.5645-.0078-.1348-.0312-.2354-.0723-.2988-.0391-.0645-.1035-.1006-.1914-.1084-.0879-.0088-.2119-.0127-.3721-.0127-.208,0-.4277-.0273-.6602-.084-.2314-.0557-.4316-.2236-.5996-.5039-.168-.2793-.2529-.7637-.2529-1.4512,0-.7207.085-1.2324.2529-1.5361s.3721-.4834.6123-.54c.2393-.0566.4639-.084.6719-.084Z"/><path class="cls-12" d="M506.8578,539.8003c.7363,0,1.4805.1484,2.2324.4453.752.2949,1.4443.7188,2.0762,1.2715.6328.5518,1.1367,1.2148,1.5117,1.9922.377.7754.5645,1.6436.5645,2.6035,0,.8799-.168,1.7041-.5039,2.4727-.3359.7676-.7959,1.4434-1.3809,2.0273-.583.584-1.2559,1.0439-2.0156,1.3799-.7598.3369-1.5723.5049-2.4355.5049-1.1836,0-2.2559-.2852-3.2168-.8525-.959-.5684-1.7275-1.332-2.3027-2.292-.5762-.96-.8652-2.0322-.8652-3.2168,0-1.0078.1934-1.9043.5762-2.6875.3848-.7842.8887-1.4482,1.5127-1.9922s1.3076-.9561,2.0518-1.2363c.7441-.2793,1.4766-.4199,2.1953-.4199ZM506.9067,544.1929c-.2402,0-.5156.0605-.8281.1797-.3125.1201-.584.3242-.8164.6123-.2314.2881-.3477.6797-.3477,1.1768,0,.3984.084.7432.252,1.0312s.4043.5117.708.6719.6562.2402,1.0557.2402c.3525,0,.6719-.084.9609-.252.2871-.168.5195-.4004.6953-.6963s.2637-.6357.2637-1.0205c0-.4795-.1113-.8633-.3359-1.1514-.2236-.2881-.4873-.4922-.791-.6123-.3047-.1191-.5762-.1797-.8164-.1797Z"/><path class="cls-12" d="M493.2748,539.897c.4482,0,.8369.0879,1.1641.2646.3281.1758.5801.4395.7559.791l4.248,8.0879c.3525.6875.4639,1.2637.3359,1.7285-.1279.4639-.5596.8711-1.2959,1.2236-.752.3682-1.3438.4961-1.7754.3838-.4326-.1113-.8242-.5684-1.1758-1.3672l-2.2568-5.1367-2.2559,5.1367c-.3682.832-.7686,1.2949-1.2002,1.3916s-1.0156-.04-1.752-.4082c-.752-.3682-1.1836-.7881-1.2959-1.2598-.1113-.4717,0-1.0361.3359-1.6924l4.248-8.0879c.1768-.3516.4248-.6152.7441-.791.3203-.1768.7119-.2646,1.1758-.2646Z"/><path class="cls-12" d="M479.4262,539.7534c1.2002,0,2.2168.1953,3.0479.5879.832.3916,1.5039.9033,2.0166,1.5352.5117.6328.8877,1.3164,1.1279,2.0527.2393.7354.3594,1.4473.3594,2.1357,0,1.2637-.2793,2.376-.8398,3.3359-.5596.96-1.3359,1.7119-2.3281,2.2559-.9912.5439-2.127.8164-3.4072.8164-.9922,0-1.8398-.1602-2.5449-.4805-.7031-.3193-1.2754-.7275-1.7158-1.2236-.4395-.4961-.7637-1.0244-.9717-1.584-.208-.5605-.3125-1.0801-.3125-1.5605,0-.9121.2246-1.6074.6729-2.0879.4473-.4795,1.0234-.7197,1.7275-.7197h5.1123c-.0645-.2568-.1963-.4756-.3965-.6602-.1992-.1846-.4512-.3281-.7559-.4316-.3037-.1045-.6318-.1562-.9834-.1562-.3525,0-.6641.0205-.9365.0596-.2715.04-.5078.0918-.708.1562s-.3838.1279-.5518.1924c-.168.0635-.3203.1162-.4561.1553-.1357.041-.2676.0605-.3965.0605-.2881,0-.5518-.0957-.792-.2881-.2393-.1924-.4561-.4795-.6475-.8643-.1123-.207-.1924-.4043-.2402-.5879s-.0723-.3555-.0723-.5156c0-.4805.1963-.8809.5879-1.2002.3926-.3203.957-.5635,1.6924-.7314.7363-.168,1.6406-.252,2.7119-.252ZM481.3705,547.0727h-2.6885c-.2236,0-.3877.0479-.4922.1436-.1035.0967-.1553.2402-.1553.4326,0,.208.0596.3838.1797.5283.1201.1436.2842.252.4922.3242.208.0713.4561.1074.7441.1074.3838,0,.7197-.0762,1.0078-.2285s.5078-.3438.6602-.5762c.1523-.2314.2363-.4756.252-.7314Z"/><path class="cls-12" d="M467.6918,540.0171c.7354,0,1.3799.0322,1.9316.0957.5518.0645,1.0195.1914,1.4043.3848.3838.1914.6953.4668.9355.8271s.416.832.5283,1.416.168,1.3154.168,2.1963v10.6318c0,.3682-.0322.7158-.0957,1.0439-.0645.3281-.248.5996-.5527.8164-.3037.2158-.8154.3242-1.5361.3242-.7197,0-1.2275-.1084-1.5234-.3242-.2959-.2168-.4756-.4922-.54-.8281-.0635-.3359-.0957-.6885-.0957-1.0566v-10.3438c0-.2402-.0039-.4277-.0127-.5645-.0078-.1348-.0312-.2354-.0713-.2988-.04-.0645-.1045-.1006-.1924-.1084-.0879-.0088-.2119-.0127-.3721-.0127-.208,0-.4277-.0273-.6602-.084-.2314-.0557-.4316-.2236-.5996-.5039-.168-.2793-.252-.7637-.252-1.4512,0-.7207.084-1.2324.252-1.5361s.3721-.4834.6113-.54c.2402-.0566.4648-.084.6729-.084Z"/><path class="cls-12" d="M461.4994,535.0972c.7842.3516,1.2402.7402,1.3682,1.1641s.0244.9805-.3125,1.668l-5.8311,13.0557c-.3369.752-.6963,1.2002-1.0801,1.3447-.3848.1436-.9766.0547-1.7764-.2646-.7676-.3525-1.2197-.7285-1.3564-1.1279-.1357-.4004-.0518-.9355.252-1.6074l5.8809-13.1768c.3203-.752.6758-1.2041,1.0674-1.3564.3926-.1514.9883-.0508,1.7881.3008ZM459.5551,540.3764l5.7129,8.6406c.416.6396.584,1.1719.5039,1.5957s-.4639.8516-1.1523,1.2842c-.752.4639-1.332.6436-1.7402.54-.4082-.1045-.8281-.4844-1.2598-1.1406l-3.8877-5.8789,1.8232-5.041Z"/><path class="cls-12" d="M446.4037,540.0171c.7354,0,1.3799.0322,1.9316.0957.5518.0645,1.0195.1914,1.4043.3848.3838.1914.6953.4668.9355.8271s.416.832.5283,1.416.168,1.3154.168,2.1963v10.6318c0,.3682-.0322.7158-.0957,1.0439-.0645.3281-.248.5996-.5527.8164-.3037.2158-.8154.3242-1.5361.3242-.7197,0-1.2275-.1084-1.5234-.3242-.2959-.2168-.4756-.4922-.54-.8281-.0635-.3359-.0957-.6885-.0957-1.0566v-10.3438c0-.2402-.0039-.4277-.0127-.5645-.0078-.1348-.0312-.2354-.0713-.2988-.04-.0645-.1045-.1006-.1924-.1084-.0879-.0088-.2119-.0127-.3721-.0127-.208,0-.4277-.0273-.6602-.084-.2314-.0557-.4316-.2236-.5996-.5039-.168-.2793-.252-.7637-.252-1.4512,0-.7207.084-1.2324.252-1.5361s.3721-.4834.6113-.54c.2402-.0566.4648-.084.6729-.084Z"/><path class="cls-12" d="M438.0278,539.8003c.7363,0,1.4795.1484,2.2314.4453.7529.2949,1.4443.7188,2.0762,1.2715.6328.5518,1.1367,1.2148,1.5117,1.9922.377.7754.5645,1.6436.5645,2.6035,0,.8799-.168,1.7041-.5039,2.4727-.3359.7676-.7959,1.4434-1.3799,2.0273s-1.2559,1.0439-2.0166,1.3799c-.7598.3369-1.5713.5049-2.4355.5049-1.1836,0-2.2559-.2852-3.2158-.8525-.96-.5684-1.7285-1.332-2.3047-2.292-.5752-.96-.8633-2.0322-.8633-3.2168,0-1.0078.1914-1.9043.5752-2.6875.3848-.7842.8887-1.4482,1.5127-1.9922s1.3076-.9561,2.0518-1.2363c.7441-.2793,1.4756-.4199,2.1963-.4199ZM438.0756,544.1929c-.2402,0-.5166.0605-.8281.1797-.3115.1201-.584.3242-.8164.6123-.2314.2881-.3477.6797-.3477,1.1768,0,.3984.084.7432.252,1.0312s.4043.5117.708.6719c.3047.1602.6562.2402,1.0557.2402.3525,0,.6729-.084.96-.252.2881-.168.5205-.4004.6963-.6963.1768-.2959.2646-.6357.2646-1.0205,0-.4795-.1123-.8633-.3369-1.1514-.2236-.2881-.4873-.4922-.792-.6123-.3037-.1191-.5752-.1797-.8154-.1797Z"/><path class="cls-12" d="M424.6361,539.8003c.7363,0,1.4795.1484,2.2314.4453.7529.2949,1.4443.7188,2.0762,1.2715.6328.5518,1.1367,1.2148,1.5117,1.9922.377.7754.5645,1.6436.5645,2.6035,0,.8799-.168,1.7041-.5039,2.4727-.3359.7676-.7959,1.4434-1.3799,2.0273s-1.2559,1.0439-2.0166,1.3799c-.7598.3369-1.5713.5049-2.4355.5049-1.1836,0-2.2559-.2852-3.2158-.8525-.96-.5684-1.7285-1.332-2.3047-2.292-.5752-.96-.8633-2.0322-.8633-3.2168,0-1.0078.1914-1.9043.5752-2.6875.3848-.7842.8887-1.4482,1.5127-1.9922s1.3076-.9561,2.0518-1.2363c.7441-.2793,1.4756-.4199,2.1963-.4199ZM424.684,544.1929c-.2402,0-.5166.0605-.8281.1797-.3115.1201-.584.3242-.8164.6123-.2314.2881-.3477.6797-.3477,1.1768,0,.3984.084.7432.252,1.0312s.4043.5117.708.6719c.3047.1602.6562.2402,1.0557.2402.3525,0,.6729-.084.96-.252.2881-.168.5205-.4004.6963-.6963.1768-.2959.2646-.6357.2646-1.0205,0-.4795-.1123-.8633-.3369-1.1514-.2236-.2881-.4873-.4922-.792-.6123-.3037-.1191-.5752-.1797-.8154-.1797Z"/><path class="cls-12" d="M411.2445,539.8003c.7363,0,1.4795.1484,2.2314.4453.7529.2949,1.4443.7188,2.0762,1.2715.6328.5518,1.1367,1.2148,1.5117,1.9922.377.7754.5645,1.6436.5645,2.6035,0,.8799-.168,1.7041-.5039,2.4727-.3359.7676-.7959,1.4434-1.3799,2.0273s-1.2559,1.0439-2.0166,1.3799c-.7598.3369-1.5713.5049-2.4355.5049-1.1836,0-2.2559-.2852-3.2158-.8525-.96-.5684-1.7285-1.332-2.3047-2.292-.5752-.96-.8633-2.0322-.8633-3.2168,0-1.0078.1914-1.9043.5752-2.6875.3848-.7842.8887-1.4482,1.5127-1.9922s1.3076-.9561,2.0518-1.2363c.7441-.2793,1.4756-.4199,2.1963-.4199ZM411.2924,544.1929c-.2402,0-.5166.0605-.8281.1797-.3115.1201-.584.3242-.8164.6123-.2314.2881-.3477.6797-.3477,1.1768,0,.3984.084.7432.252,1.0312s.4043.5117.708.6719c.3047.1602.6562.2402,1.0557.2402.3525,0,.6729-.084.96-.252.2881-.168.5205-.4004.6963-.6963.1768-.2959.2646-.6357.2646-1.0205,0-.4795-.1123-.8633-.3369-1.1514-.2236-.2881-.4873-.4922-.792-.6123-.3037-.1191-.5752-.1797-.8154-.1797Z"/><path class="cls-12" d="M397.3715,540.3042c.7842,0,1.4639.1602,2.04.4805s1.0479.7559,1.416,1.3086c.3682.5518.6406,1.1797.8164,1.8838s.2559,1.4482.2393,2.2314c-.0156.7686-.1152,1.5117-.2998,2.2324-.1836.7207-.459,1.3594-.8281,1.9199-.3672.5605-.8311,1.0039-1.3916,1.332-.5596.3281-1.2236.4922-1.9922.4922-.7041,0-1.3877-.168-2.0518-.5039s-1.2598-.7891-1.7881-1.3564-.9434-1.2119-1.248-1.9316c-.3037-.7197-.4561-1.4639-.4561-2.2314,0-.8008.1523-1.5566.4561-2.2686.3047-.7119.7168-1.3369,1.2363-1.8721.5195-.5361,1.1123-.957,1.7754-1.2598.6641-.3047,1.3564-.457,2.0762-.457ZM397.9477,544.3843c-.3203,0-.6123.0801-.876.2402s-.4756.373-.6357.6367-.2402.5469-.2402.8516c0,.3203.0762.6123.2275.876.1523.2646.3604.4717.624.624.2646.1523.5566.2285.876.2285.3203,0,.6123-.0801.876-.2402.2646-.1602.4727-.3691.624-.624.1523-.2568.2285-.5439.2285-.8643,0-.3047-.0801-.5879-.2402-.8516-.1592-.2637-.3682-.4766-.624-.6367s-.5361-.2402-.8398-.2402ZM401.8119,534.9292c.7041,0,1.208.1035,1.5117.3115s.4844.4717.54.792c.0566.3203.084.6562.084,1.0078v13.0322c0,.3525-.0273.6885-.084,1.0088-.0557.3193-.2314.5879-.5283.8027-.2959.2168-.7959.3242-1.5.3242-.5596,0-1.0234-.0762-1.3916-.2275-.3682-.1523-.6318-.3877-.792-.708v-14.208c-.0322-.3516-.0117-.6924.0596-1.0205.0723-.3271.2607-.5957.5645-.8037s.8154-.3115,1.5361-.3115Z"/><path class="cls-13" d="M518.018,560.2534c-1.292,0-2.2441-.2559-2.9971-.8037-.8154-.5986-1.3418-1.4229-1.5225-2.3848-.0938-.4902-.1406-1.002-.1406-1.5205v-3.4053c-.0771.083-.1543.1641-.2334.2422-.7979.7988-1.7305,1.4375-2.7715,1.8975-1.0752.4766-2.2344.7188-3.4463.7188-1.6309,0-3.1406-.4033-4.4873-1.1992-.3867-.2295-.7588-.4941-1.1299-.8027-.4482.4971-1.0264.916-1.7275,1.252-1.3076.6406-2.4678.8164-3.4854.5479-1.7451-.4482-2.5205-2.0742-2.8018-2.707-.293.6592-1.1016,2.3467-2.9092,2.752-.999.2236-2.127.0332-3.417-.6113-.6738-.3301-1.2363-.7441-1.6748-1.2324-.4053.3301-.8213.6104-1.2617.8525-1.3594.7461-2.9102,1.124-4.6094,1.124-1.3467,0-2.5508-.2373-3.5791-.7041-.2275-.1035-.4492-.2158-.6641-.3379v1.6377c0,.5205-.0479,1.0312-.1406,1.5176-.1904.9678-.7295,1.79-1.5586,2.3799-.7451.5293-1.7217.7871-2.9854.7871-1.292,0-2.2441-.2559-2.9971-.8037-.8115-.5957-1.3369-1.417-1.5215-2.377-.0938-.4941-.1406-1.0078-.1406-1.5283v-1.4492c-1.332.793-2.5,1.0342-3.5508.7646-1.0469-.2666-1.9404-.9834-2.7344-2.1904l-.4902-.7412-.0342.0762c-.627,1.4004-1.4385,2.2715-2.481,2.665-.772.2871-1.6226.3076-2.6538.0273v.8721c0,.5244-.0474,1.0352-.1416,1.5186-.1895.9668-.728,1.7891-1.5571,2.3789-.7451.5293-1.7217.7871-2.9858.7871-1.2925,0-2.2451-.2559-2.9971-.8037-.8115-.5957-1.3374-1.417-1.522-2.377-.0933-.4951-.1401-1.0088-.1401-1.5283v-3.4053c-.0762.082-.1538.1631-.2324.2412-.8018.8018-1.7354,1.4404-2.7744,1.8984-1.0732.4766-2.2329.7188-3.4453.7188-1.6294,0-3.1396-.4043-4.4878-1.2002-.8496-.5039-1.604-1.1377-2.2495-1.8896-.1455.1709-.2896.3281-.4346.4727-.8018.8018-1.7354,1.4404-2.7744,1.8984-1.0732.4766-2.2329.7188-3.4453.7188-1.6294,0-3.1396-.4043-4.4878-1.2002-.8496-.5039-1.604-1.1377-2.2495-1.8896-.1455.1709-.2896.3281-.4346.4727-.8018.8018-1.7354,1.4404-2.7744,1.8984-1.0732.4766-2.2329.7188-3.4453.7188-1.6294,0-3.1396-.4043-4.4878-1.2002-.3843-.2275-.7524-.4873-1.1147-.7871-.2422.3457-.5396.6465-.8892.8994-.7319.5371-1.7026.7988-2.9653.7988-.855,0-1.5928-.124-2.2505-.3789-1.6304.5664-3.6514.4629-5.3936-.418-.9214-.4658-1.7593-1.0996-2.4893-1.8828-.7236-.7773-1.3022-1.6729-1.7207-2.6611-.4341-1.0283-.6538-2.1064-.6538-3.2061,0-1.1348.2212-2.2285.6567-3.25.4248-.9932,1.0107-1.8779,1.7417-2.6318.7344-.7578,1.5859-1.3613,2.5312-1.793.9194-.4219,1.8921-.6504,2.8945-.6797v-.6611c-.04-.5264-.0015-1.0879.1162-1.6318.2119-.959.7632-1.7656,1.5952-2.3359.7456-.5107,1.6826-.749,2.9487-.749,1.2314,0,2.188.2451,2.9238.748.8677.5947,1.418,1.4336,1.5913,2.4268.0801.4551.1206.9385.1206,1.4365v1.7148c.5508-.3584,1.1265-.6514,1.7192-.875,2.0889-.7822,4.1704-.7695,6.2271.04,1.0137.3975,1.9575.9746,2.8042,1.7158.2588.2246.5083.4717.7446.7363.251-.2861.5195-.5537.8027-.8008.8472-.7383,1.7935-1.3076,2.813-1.6914,2.0879-.7822,4.1714-.7695,6.2271.04,1.0137.3975,1.9575.9746,2.8042,1.7158.2588.2246.5083.4717.7446.7363.251-.2861.5195-.5537.8027-.8008.8472-.7383,1.7935-1.3076,2.813-1.6914,2.0869-.7822,4.1714-.7695,6.2271.04.6953.2725,1.3706.6416,2.0127,1.0996.6187-.8691,1.3921-1.2158,1.9648-1.3516.4248-.1006.8447-.1514,1.249-.1514.8281,0,1.5737.0371,2.2173.1113.8579.1006,1.5903.3086,2.2407.6348.7734.3867,1.4106.9502,1.8936,1.6748.3159.4736.5591,1.0098.7358,1.627l2.8701-6.4316c.5874-1.3809,1.3882-2.2559,2.4438-2.667,1.0508-.4043,2.2422-.2998,3.7002.3418,1.5039.6748,2.4043,1.5674,2.7559,2.7305.2588.8574.2012,1.8008-.1689,2.8105.4678-.3945.957-.5879,1.3506-.6807.4248-.1006.8447-.1514,1.249-.1514.8271,0,1.5732.0371,2.2178.1113.8574.1006,1.5898.3086,2.2412.6348.3896.1953.749.4404,1.0723.7295.0713-.0684.1445-.1328.2188-.1934.6992-.5703,1.5879-.9736,2.7158-1.2314.9287-.2119,1.9971-.3145,3.2686-.3145,1.5684,0,2.9531.2783,4.1162.8271,1.168.5498,2.1406,1.2979,2.8896,2.2217.543.6709.9805,1.3955,1.3057,2.1621l1.4043-2.6738c.3867-.7705.9932-1.4014,1.751-1.8193,1.3652-.752,3.3262-.7676,4.7344-.0098.7744.415,1.3984,1.0635,1.8037,1.873l1.374,2.6152c.0156-.0332.0312-.0664.0469-.0986.5303-1.083,1.2422-2.0176,2.1162-2.7793.8477-.7383,1.7939-1.3076,2.8125-1.6914,2.0889-.7822,4.1738-.7695,6.2275.04.7012.2744,1.3789.6465,2.0225,1.1074.6406-.8916,1.3965-1.2275,1.959-1.3594.4189-.1006.8389-.1514,1.2451-.1514.8262,0,1.5723.0371,2.2168.1113.8574.1006,1.5908.3086,2.2422.6348.7725.3857,1.4092.9502,1.8926,1.6748.4307.6465.7266,1.4092.9033,2.3301h0c.1436.7432.2129,1.6162.2129,2.6689v10.6318c0,.5283-.0479,1.042-.1436,1.5264-.1816.9521-.7178,1.7715-1.5488,2.3662-.7529.5332-1.7305.792-2.9922.792ZM514.3578,549.0259v6.5186c0,.4561.041.9053.123,1.334.1338.71.5244,1.3193,1.1309,1.7637.5713.417,1.3369.6113,2.4062.6113,1.0469,0,1.8359-.1982,2.4121-.6064.6162-.4414,1.0137-1.0439,1.1475-1.7422.083-.4238.125-.8721.125-1.3359v-10.6318c0-.9883-.0635-1.7988-.1953-2.4795v-.001c-.1504-.7881-.3975-1.4297-.7529-1.9639-.3857-.5781-.8926-1.0273-1.5088-1.335-.5459-.2744-1.1699-.4492-1.9092-.5352-.6055-.0703-1.3135-.1055-2.1016-.1055-.3281,0-.6699.042-1.0146.124-.4609.1084-1.1074.417-1.582,1.2744l-.2842.5283-.5029-.2988c-.6943-.5557-1.4375-.9912-2.209-1.2939-1.8281-.7197-3.6543-.7295-5.5088-.0352-.9062.3418-1.751.8496-2.5088,1.5098-.7715.6729-1.4023,1.5029-1.874,2.4648-.1396.2852-.2637.6113-.3896,1.0273l-.3545,1.167-2.4648-4.6943c-.3164-.6328-.7949-1.1309-1.3877-1.4482-1.1123-.5996-2.709-.585-3.7783.0049-.5879.3242-1.04.7949-1.3438,1.4004l-2.5332,4.8223-.375-1.333c-.0254-.0918-.0498-.1826-.0791-.2744-.2949-.9053-.7627-1.7578-1.3896-2.5312-.6523-.8057-1.5068-1.46-2.5391-1.9463-1.0293-.4854-2.2705-.7314-3.6895-.7314-1.1953,0-2.1914.0947-3.0459.2891-.9736.2227-1.7285.5605-2.3057,1.0322-.1543.125-.3027.2754-.4541.458l-.3711.4473-.3867-.4336c-.3291-.3691-.7197-.6689-1.1602-.8887-.5459-.2734-1.1699-.4492-1.9092-.5352-.6045-.0703-1.3125-.1055-2.1016-.1055-.3271,0-.6699.042-1.0186.124-.459.1094-1.1055.418-1.5781,1.2744-.2998.541-.4395,1.2598-.4395,2.2617,0,.7441.0859,1.333.2627,1.8008l-.8848.4521-1.6348-2.4727,1.4951-3.3525c.5156-1.0508.6504-1.9795.4102-2.7773-.2627-.8691-.9844-1.5576-2.2051-2.1055-1.1973-.5264-2.1387-.6279-2.9326-.3232-.79.3076-1.4082,1.0059-1.8887,2.1338l-4.2925,9.6191-.1924-1.8584c-.0303-.2969-.0669-.5781-.1167-.8359-.1514-.7891-.3979-1.4316-.7529-1.9648-.3853-.5781-.8931-1.0273-1.5088-1.335-.5459-.2734-1.1699-.4492-1.9087-.5352-.6045-.0703-1.312-.1055-2.1021-.1055-.3267,0-.6694.042-1.019.124-.4585.1094-1.1045.418-1.5776,1.2744l-.2764.5527-.5103-.3223c-.6968-.5586-1.4399-.9941-2.209-1.2949-1.8267-.7197-3.6533-.7275-5.5098-.0352-.9062.3418-1.7505.8496-2.5073,1.5098-.3862.3369-.7422.7188-1.0576,1.1348l-.394.5205-.3999-.5156c-.3096-.4004-.6494-.7617-1.0103-1.0762-.7612-.665-1.606-1.1826-2.5132-1.5381-1.8262-.7197-3.6528-.7275-5.5093-.0352-.9062.3418-1.7505.8496-2.5073,1.5098-.3862.3369-.7422.7188-1.0576,1.1348l-.394.5205-.3999-.5156c-.3096-.4004-.6494-.7617-1.0103-1.0762-.7612-.665-1.606-1.1826-2.5132-1.5381-1.8257-.7197-3.6523-.7275-5.5093-.0352-.791.2988-1.5508.7393-2.2563,1.3096l-.8145.6582v-3.7432c0-.4395-.0356-.8652-.106-1.2637-.126-.7227-.5308-1.3359-1.1709-1.7744-.564-.3857-1.3354-.5732-2.3589-.5732-1.0547,0-1.812.1826-2.3833.5732-.6187.4248-1.0278,1.0205-1.1836,1.7246-.0972.4492-.1289.9141-.0947,1.3818l.0015,1.7158-.7803-.0205c-.9346,0-1.8423.1992-2.6982.5918-.832.3799-1.582.9111-2.2295,1.5791-.6455.666-1.1636,1.4502-1.5396,2.3291-.3828.8965-.5767,1.8584-.5767,2.8574,0,.9648.1934,1.9131.5747,2.8164.373.8799.8882,1.6777,1.5317,2.3691.6494.6973,1.3926,1.2598,2.2085,1.6719,1.5605.791,3.3691.8496,4.7739.3076l.1904-.0732.1875.0811c.6367.2627,1.2788.374,2.041.374,1.042,0,1.8193-.1982,2.3765-.6074.3926-.2832.6948-.6465.9009-1.0811l.293-.6182.5.4668c.4609.4307.9214.7803,1.4082,1.0674,1.1914.7041,2.5303,1.0615,3.9785,1.0615,1.0718,0,2.0947-.2129,3.041-.6328.9263-.4082,1.7578-.9775,2.4717-1.6914.2422-.2422.4844-.5264.7402-.8672l.4009-.5352.3999.5361c.6475.8691,1.4414,1.5859,2.3594,2.1299,1.1914.7031,2.5303,1.0605,3.9785,1.0605,1.0718,0,2.0947-.2129,3.041-.6328.9263-.4082,1.7578-.9775,2.4717-1.6914.2422-.2422.4844-.5264.7402-.8672l.4009-.5352.3999.5361c.6475.8691,1.4414,1.5859,2.3594,2.1299,1.1914.7031,2.5303,1.0605,3.9785,1.0605,1.0718,0,2.0947-.2129,3.041-.6328.9263-.4082,1.7578-.9775,2.4717-1.6914.3721-.3721.7158-.7949,1.022-1.2598l.9175-1.3906v6.5215c0,.458.0415.9092.1226,1.3408.1357.7061.5269,1.3145,1.1304,1.7568.5708.417,1.3359.6113,2.4062.6113,1.0493,0,1.8364-.1973,2.4062-.6016.6167-.4395,1.0161-1.0459,1.1553-1.7559.0815-.4199.123-.8672.123-1.3271v-2.2725l.6714.2451c1.1128.4062,1.9292.4531,2.6318.1914.7783-.2939,1.4067-.9932,1.9194-2.1367l.7764-1.7383,1.4951,2.2617c.6514.9893,1.3525,1.5684,2.1465,1.7715.8164.208,1.7656-.0195,2.9092-.7266.2158-.1348.4004-.2803.5811-.4258l.8135-.6543v3.46c0,.458.041.9092.123,1.3408.1357.7061.5264,1.3145,1.1299,1.7568.5713.417,1.3369.6113,2.4062.6113,1.0488,0,1.8359-.1973,2.4053-.6016.6172-.4395,1.0176-1.0459,1.1572-1.7559.0811-.4229.1221-.8701.1221-1.3271v-3.5469l.7969.5879c.3906.2881.8223.54,1.2812.749.8975.4072,1.9619.6143,3.165.6143,1.5293,0,2.918-.3369,4.1289-1.001.5176-.2842,1-.6318,1.4727-1.0625l.4219-.3848.3252.4688c.375.5391.9268.9893,1.6406,1.3389,1.0791.5391,1.9795.708,2.7539.5322,1.3896-.3115,2.0342-1.7734,2.2471-2.2539l.8818-2.0098.8838,2.0127c.2031.4619.8223,1.8672,2.1699,2.2139.7842.207,1.7061.0547,2.7979-.4805.7432-.3555,1.3096-.8115,1.6875-1.3584l.3271-.4727.4229.3906c.4541.418.9004.7559,1.3643,1.0312,1.1904.7031,2.5293,1.0596,3.9785,1.0596,1.0713,0,2.0947-.2129,3.041-.6328.9287-.4102,1.7588-.9785,2.4697-1.6904.3721-.3711.7158-.7949,1.0234-1.2598l.917-1.3887ZM463.5356,541.8638l.1211.1826c.002-.1709.0078-.335.0176-.4941l-.1387.3115ZM466.8158,548.6391l-2.0117-3.0439.7686-.6309c.3486.3447.6816.502.8994.5742l.3438.1133v2.9873Z"/><circle class="cls-6" cx="682.2661" cy="341.4327" r="9.3902"/><circle class="cls-7" cx="682.2661" cy="319.3052" r="9.3902"/><circle class="cls-5" cx="682.2661" cy="297.1777" r="9.3902"/><circle class="cls-8" cx="682.2661" cy="275.0502" r="9.3902"/><circle class="cls-2" cx="682.2661" cy="252.9226" r="9.3902"/><circle class="cls-3" cx="682.2661" cy="230.7951" r="9.3902"/><circle class="cls-4" cx="682.2661" cy="208.6676" r="9.3902"/><circle class="cls-1" cx="682.2661" cy="186.5401" r="9.3902"/></svg>